<svg xmlns="http://www.w3.org/2000/svg" width="609.725" height="600.162" viewBox="0 0 609.725 600.162">
  <g id="Group_215" data-name="Group 215" transform="translate(-21.256 -123.848)">
    <g id="Group_101" data-name="Group 101" transform="translate(404.793 197.916)">
      <g id="Group_99" data-name="Group 99" transform="translate(0 0)">
        <path id="Path_124" data-name="Path 124" d="M217.885,128.013c-.288-3.405-2.2-6.647-1.785-10.038.814-6.637,9.925-10.222,9.945-16.908.015-5.135-5.34-8.486-7.571-13.11-2.546-5.274-.856-11.934-3.734-17.033-2.756-4.883-8.772-6.774-14.294-7.762-3.344-.6-7.152-.907-9.782,1.239-3.517,2.869-2.952,8.253-3.97,12.675-1.306,5.674-5.507,10.142-8.9,14.872s-6.176,10.78-4.147,16.238c1.409,3.789,4.853,6.446,6.8,9.99,2,3.645,2.28,7.954,3.429,11.951,1.246,4.34,3.7,8.515,7.565,10.864C199.138,145.677,218.779,138.573,217.885,128.013Z" transform="translate(-172.955 -62.722)" fill="#70aa55"/>
        <g id="Group_96" data-name="Group 96" transform="translate(27.004 15.576)">
          <path id="Path_125" data-name="Path 125" d="M195.249,182.313a.681.681,0,0,1-.682-.679l-.226-105.886a.681.681,0,0,1,.679-.681h0a.68.68,0,0,1,.681.679l.227,105.886a.68.68,0,0,1-.679.681Z" transform="translate(-194.341 -75.067)" fill="#115b33"/>
        </g>
        <g id="Group_97" data-name="Group 97" transform="translate(13.616 26.233)">
          <path id="Path_126" data-name="Path 126" d="M197.631,99.177,183.984,87.892a.681.681,0,0,1,.869-1.048l12.676,10.482,13.177-13.6a.68.68,0,0,1,.979.945Z" transform="translate(-183.738 -83.514)" fill="#115b33"/>
        </g>
        <g id="Group_98" data-name="Group 98" transform="translate(12.708 43.012)">
          <path id="Path_127" data-name="Path 127" d="M197.843,116.127l-14.58-12.22a.68.68,0,1,1,.875-1.042L197.7,114.228l14.991-17.183a.68.68,0,0,1,1.027.893Z" transform="translate(-183.019 -96.813)" fill="#115b33"/>
        </g>
      </g>
    </g>
    <g id="Group_95" data-name="Group 95" transform="translate(93.52 365.328)">
      <path id="Path_122" data-name="Path 122" d="M47.193,116.756c.89-.945,1.855-2.239,1.145-3.421a1.936,1.936,0,0,0-2.143-.8c-1.539.386-2.305,1.757-2.993,3.045a84.549,84.549,0,0,0,5.977-7.445,15.313,15.313,0,0,0,2.118-3.943,2.665,2.665,0,0,0-3.994-3.064,23.92,23.92,0,0,0-5.618,6.069c.889-4.645,1.772-9.491.5-14.045a4.2,4.2,0,0,0-2.1-2.977,1.989,1.989,0,0,0-1.637.009c-.935.449-1,1.329-1.029,2.142q-.156,3.919-.037,7.843A6.146,6.146,0,0,0,34.6,95.7a2.775,2.775,0,0,0-1.4-.5,2.43,2.43,0,0,0-2.158,1.715,6.731,6.731,0,0,0-.168,2.914,82.99,82.99,0,0,0,3.481,17.156A13.919,13.919,0,0,0,29,108.646a2.63,2.63,0,0,0-1.418-.62,2.134,2.134,0,0,0-1.576.809c-2.14,2.4-.656,6.1.5,9.1a34.138,34.138,0,0,1,.982,21.46c-.548,1.925-1.265,10.036,3.43,7.929,2.015-.9,1.521-5.519,1.724-7.264C33.732,130.762,41.051,123.275,47.193,116.756Z" transform="translate(-20.744 -90)" fill="#115b33"/>
      <path id="Path_123" data-name="Path 123" d="M44.9,155.41a34.778,34.778,0,0,1,8.869-11.184,11.415,11.415,0,0,0,2.575-2.558,3.187,3.187,0,0,0,.149-3.435c-5.024.238-8.717,4.618-11.746,8.63a147.93,147.93,0,0,1,11.391-20.675c1.239-1.876,2.39-4.71.584-6.048-1.125-.833-2.753-.412-3.926.352-2.474,1.611-3.872,4.4-5.157,7.055l-5.13,10.6c2.758-9.616,5.525-19.267,6.991-29.163.362-2.441.393-5.457-1.7-6.762-2.364-1.472-5.482.579-6.778,3.042a21.356,21.356,0,0,0-1.892,7.492,202.9,202.9,0,0,0-1.441,24.074A87.165,87.165,0,0,0,34,128c-.5-1.041-1.217-2.207-2.37-2.31a2.55,2.55,0,0,0-2.22,1.334c-1.74,2.734-.173,6.291,1.4,9.125l5.241,9.466-4.074-2.8a2.663,2.663,0,0,0-2.265-.673c-1.449.518-.91,2.685-.109,4l7.557,12.393c2.379-.079,4.391.037,6.766.182C44.717,157.788,44.355,156.5,44.9,155.41Z" transform="translate(-28.645 -96.438)" fill="#70aa55"/>
    </g>
    <path id="Path_116" data-name="Path 116" d="M2.093,116.894C-9.906,47.2,30.584,10.618,81.806,1.157S180.554,41.636,231.18,47.129c45.253,4.909,92.812-39.678,138.014-19.958,94.962,41.429-7.154,119.468,5.628,184.885s73.97,39.8,81.059,113.45c-38.441,77.111-118.089-1.084-156.508,13.151-66.869-1.4-102.769,92.265-187.835,91.085C46.03,391.308,13.388,372.887,19.18,325.654c14.159-49.483,46.292-42.077,43.308-81.734S14.091,186.592,2.093,116.894Z" transform="translate(236.16 123.892) rotate(30)" fill="#efefff"/>
    <path id="Path_596" data-name="Path 596" d="M413.637,407.467s18.27-47.959-7.845-72.035S340.7,295.182,303.058,302.6s-48.57,71.633-48.57,71.633" fill="none" stroke="#b8c5d5" stroke-width="1" stroke-dasharray="10"/>
    <g id="Group_212" data-name="Group 212" transform="translate(212.256 373.848)">
      <path id="Path_116-2" data-name="Path 116" d="M76.959,19.5a.907.907,0,0,0-.86-.789c-.358,0-8.025-.573-8.025-.573s-5.3-5.3-5.947-5.878a2.383,2.383,0,0,0-2.15-.287c-.072,0-1.146.358-3.01.932C55.175,7.67,52.022,2.939,46.5,2.939H46A6.745,6.745,0,0,0,40.844,0c-12.9,0-19.06,16.129-21,24.3-5.016,1.577-8.6,2.652-9.029,2.8-2.795.86-2.866.932-3.225,3.584C7.309,32.688,0,89.319,0,89.319L56.966,100,87.85,93.333C87.85,93.262,77.03,20,76.959,19.5ZM53.814,13.763c-1.433.43-3.081.932-4.8,1.505V14.194A24,24,0,0,0,47.866,6.38C50.732,6.81,52.6,10.036,53.814,13.763ZM44.283,7.1a24,24,0,0,1,1.29,8.674v.573c-3.153,1-6.521,2.007-9.96,3.082C37.548,12.043,41.2,8.459,44.283,7.1Zm-3.8-3.656a2.87,2.87,0,0,1,1.648.573c-4.156,1.935-8.527,6.81-10.39,16.631-2.723.86-5.374,1.649-7.882,2.437C26.011,15.627,31.242,3.441,40.486,3.441Z" transform="translate(0)" fill="#95bf47"/>
      <path id="Path_117" data-name="Path 117" d="M98.66,23.31c-.358,0-8.025-.573-8.025-.573s-5.3-5.3-5.947-5.878A1.15,1.15,0,0,0,83.9,16.5l-4.3,88.172,30.884-6.667S99.664,24.672,99.592,24.17A1.241,1.241,0,0,0,98.66,23.31Z" transform="translate(-22.562 -4.672)" fill="#5e8e3e"/>
      <path id="Path_118" data-name="Path 118" d="M51.833,49.233l-3.8,11.326a17.651,17.651,0,0,0-7.452-1.792c-6.019,0-6.306,3.8-6.306,4.731,0,5.161,13.471,7.168,13.471,19.283,0,9.534-6.019,15.7-14.188,15.7-9.817,0-14.761-6.093-14.761-6.093l2.651-8.674s5.159,4.444,9.459,4.444a3.823,3.823,0,0,0,4.013-3.871c0-6.738-11.035-7.025-11.035-18.136,0-9.319,6.664-18.351,20.207-18.351C49.254,47.727,51.833,49.233,51.833,49.233Z" transform="translate(-5.329 -13.534)" fill="#fff"/>
    </g>
    <g id="Group_156" data-name="Group 156" transform="translate(106.589 515.941)">
      <g id="Group_99-2" data-name="Group 99" transform="translate(0 0)">
        <path id="Path_124-2" data-name="Path 124" d="M202.637,105.856c-.19-2.25-1.455-4.391-1.18-6.631.538-4.384,6.557-6.753,6.57-11.17.01-3.392-3.528-5.606-5-8.661-1.682-3.484-.566-7.884-2.467-11.252-1.821-3.226-5.795-4.475-9.443-5.128-2.209-.4-4.725-.6-6.462.819-2.323,1.9-1.95,5.452-2.623,8.374-.863,3.748-3.638,6.7-5.883,9.825s-4.08,7.122-2.739,10.727c.931,2.5,3.206,4.258,4.49,6.6,1.321,2.408,1.507,5.254,2.266,7.9a12.163,12.163,0,0,0,5,7.177C190.252,117.525,203.228,112.831,202.637,105.856Z" transform="translate(-172.955 -62.722)" fill="#70aa55"/>
        <g id="Group_96-2" data-name="Group 96" transform="translate(17.84 10.29)">
          <path id="Path_125-2" data-name="Path 125" d="M194.941,145.918a.45.45,0,0,1-.45-.448l-.149-69.952a.45.45,0,0,1,.449-.45h0a.449.449,0,0,1,.45.448l.15,69.952a.449.449,0,0,1-.449.45Z" transform="translate(-194.341 -75.067)" fill="#115b33"/>
        </g>
        <g id="Group_97-2" data-name="Group 97" transform="translate(8.995 17.33)">
          <path id="Path_126-2" data-name="Path 126" d="M192.916,93.861,183.9,86.406a.45.45,0,0,1,.574-.693l8.374,6.925,8.705-8.988a.449.449,0,0,1,.647.624Z" transform="translate(-183.738 -83.514)" fill="#115b33"/>
        </g>
        <g id="Group_98-2" data-name="Group 98" transform="translate(8.396 28.415)">
          <path id="Path_127-2" data-name="Path 127" d="M192.812,109.572,183.18,101.5a.449.449,0,1,1,.578-.688l8.957,7.507,9.9-11.352a.449.449,0,0,1,.678.59Z" transform="translate(-183.019 -96.813)" fill="#115b33"/>
        </g>
      </g>
    </g>
    <g id="Group_94" data-name="Group 94" transform="translate(454.278 345.075)">
      <path id="Path_122-2" data-name="Path 122" d="M34.287,149.018c-1.963-2.083-4.091-4.938-2.526-7.546a4.271,4.271,0,0,1,4.728-1.775c3.395.852,5.084,3.875,6.6,6.716a186.485,186.485,0,0,1-13.184-16.422,33.777,33.777,0,0,1-4.672-8.7,5.879,5.879,0,0,1,8.809-6.758c4.909,3.29,8.871,8.478,12.393,13.388-1.961-10.246-3.908-20.935-1.1-30.981.745-2.66,1.949-5.4,4.626-6.565a4.386,4.386,0,0,1,3.61.019c2.063.99,2.2,2.93,2.27,4.725q.344,8.645.082,17.3a13.557,13.557,0,0,1,6.142-9.859,6.123,6.123,0,0,1,3.078-1.094c2.165-.044,4.027,1.747,4.76,3.783a14.847,14.847,0,0,1,.372,6.427A183.055,183.055,0,0,1,62.6,149.524a30.7,30.7,0,0,1,11.805-18.4,5.8,5.8,0,0,1,3.128-1.369,4.707,4.707,0,0,1,3.476,1.784c4.72,5.286,1.447,13.462-1.1,20.073a75.3,75.3,0,0,0-2.166,47.335c1.208,4.246,2.791,22.137-7.566,17.491-4.445-1.995-3.355-12.173-3.8-16.022C63.979,179.91,47.836,163.4,34.287,149.018Z" transform="translate(-24.924 -90)" fill="#115b33"/>
      <path id="Path_123-2" data-name="Path 123" d="M56.785,220.133a76.712,76.712,0,0,0-19.562-24.67c-2.063-1.713-4.262-3.367-5.679-5.643s-1.877-5.388-.329-7.576c11.082.526,19.227,10.187,25.909,19.036A326.3,326.3,0,0,0,32,155.677c-2.732-4.139-5.273-10.389-1.288-13.341,2.481-1.837,6.072-.909,8.659.775,5.457,3.553,8.541,9.7,11.376,15.562l11.316,23.389c-6.084-21.211-12.186-42.5-15.42-64.326-.8-5.385-.868-12.037,3.756-14.915,5.215-3.246,12.092,1.277,14.951,6.711,2.663,5.057,3.492,10.852,4.173,16.526a447.547,447.547,0,0,1,3.178,53.1,192.261,192.261,0,0,1,8.138-19.486c1.111-2.3,2.685-4.868,5.227-5.1,2-.179,3.821,1.252,4.9,2.942,3.837,6.03.383,13.875-3.079,20.127L76.32,198.527l8.985-6.166c1.49-1.022,3.293-2.092,5-1.484,3.2,1.142,2.006,5.921.24,8.817L73.872,227.03c-5.247-.173-9.686.081-14.925.4C57.193,225.378,57.99,222.549,56.785,220.133Z" transform="translate(-24.938 -90.054)" fill="#70aa55"/>
    </g>
    <path id="Path_128" data-name="Path 128" d="M198.134,406.643c.249-1.974-.345-3.944-.632-5.913s-.187-4.191,1.166-5.65a2.484,2.484,0,0,1,2.565-.827,3.5,3.5,0,0,1,1.679,2.148l2.513,6.071c1.253-.734.917-2.669,1.7-3.894,1.045-1.645,3.768-1.255,5.01.247s1.415,3.589,1.536,5.534a11.373,11.373,0,0,1,5.822-5.083,10.96,10.96,0,0,1,2.834,8.645c.445-2.042,3.472-2.525,5.1-1.21s2.082,3.592,2.132,5.683a1.729,1.729,0,0,1-.29,1.214,1.807,1.807,0,0,1-1.339.419c-9.478.317-21.465,2.752-30.752,1-3.16-.6-6.542-2-5.86-5.961C192.078,404.611,198.43,405.891,198.134,406.643Z" transform="translate(-37.58 153.491)" fill="#70aa55"/>
    <path id="Path_131" data-name="Path 131" d="M198.134,406.643c.249-1.974-.345-3.944-.632-5.913s-.187-4.191,1.166-5.65a2.484,2.484,0,0,1,2.565-.827,3.5,3.5,0,0,1,1.679,2.148l2.513,6.071c1.253-.734.917-2.669,1.7-3.894,1.045-1.645,3.768-1.255,5.01.247s1.415,3.589,1.536,5.534a11.373,11.373,0,0,1,5.822-5.083,10.96,10.96,0,0,1,2.834,8.645c.445-2.042,3.472-2.525,5.1-1.21s2.082,3.592,2.132,5.683a1.729,1.729,0,0,1-.29,1.214,1.807,1.807,0,0,1-1.339.419c-9.478.317-21.465,2.752-30.752,1-3.16-.6-6.542-2-5.86-5.961C192.078,404.611,198.43,405.891,198.134,406.643Z" transform="translate(281.842 163.179)" fill="#70aa55"/>
    <path id="Path_129" data-name="Path 129" d="M176.435,390.8a4.339,4.339,0,0,1,5.04.995c-.025-1.774,2.11-2.981,3.837-2.569a6.333,6.333,0,0,1,3.8,3.488,2.6,2.6,0,0,0,1.1,1.328,2.049,2.049,0,0,0,1.578-.159c2.706-1.167,5.412-4.063,8-2.662,1.467.792,2.148,2.777,3.764,3.185a5.552,5.552,0,0,0,2.713-.343,7.48,7.48,0,0,1,4.853.169,4.256,4.256,0,0,1,2.656,3.826c-2.417,1.3-5.3,1.28-8.05,1.21q-12.654-.323-25.3-1.054C176.636,397.995,170.081,393.952,176.435,390.8Z" transform="translate(258.731 110.769)" fill="#70aa55"/>
    <path id="Path_130" data-name="Path 130" d="M176.435,390.8a4.339,4.339,0,0,1,5.04.995c-.025-1.774,2.11-2.981,3.837-2.569a6.333,6.333,0,0,1,3.8,3.488,2.6,2.6,0,0,0,1.1,1.328,2.049,2.049,0,0,0,1.578-.159c2.706-1.167,5.412-4.063,8-2.662,1.467.792,2.148,2.777,3.764,3.185a5.552,5.552,0,0,0,2.713-.343,7.48,7.48,0,0,1,4.853.169,4.256,4.256,0,0,1,2.656,3.826c-2.417,1.3-5.3,1.28-8.05,1.21q-12.654-.323-25.3-1.054C176.636,397.995,170.081,393.952,176.435,390.8Z" transform="translate(327.422 138.601)" fill="#70aa55"/>
    <g id="Group_163" data-name="Group 163" transform="translate(192.319 362.426)">
      <path id="Path_520" data-name="Path 520" d="M333.676,341.622c-5.152-.406-13.194-.875-15.542,1.815s7.145,1.573,8.728,2.986-5,4.684-1.346,4.228,9.248-5.492,9.248-5.492Z" transform="translate(-254.846 -248.094)" fill="#d8ddff"/>
      <g id="Group_161" data-name="Group 161" transform="translate(76.442)">
        <path id="Path_522" data-name="Path 522" d="M380.3,378.641a238.013,238.013,0,0,1,32.644-1.847,113.291,113.291,0,0,1,17.366,1.435,47.04,47.04,0,0,1,5.051,1.194,28.094,28.094,0,0,1,3.009,1.1,18.038,18.038,0,0,1,3.826,2.188,12.976,12.976,0,0,1,4.531,6.075,11.921,11.921,0,0,1,.625,4.646,1.661,1.661,0,0,1-.029.295l-.026.166-.055.329-.11.659c-.292,1.9-.657,3.137-1,4.565-1.419,5.421-2.95,10.439-4.591,15.516q-2.435,7.576-5.055,15.042-5.208,14.962-11.146,29.665l-5.772-1.521c1.354-10.453,2.854-20.873,4.435-31.236,1.507-10.316,3.266-20.822,4.413-30.7a30.246,30.246,0,0,0,.218-3.2l.007-.316.005-.158,0-.079s.009-.113-.01.053a6.782,6.782,0,0,0,.333,2.717,6.89,6.89,0,0,0,2.066,3.1c.446.362.472.381.338.4-.1.009-.415-.027-.747-.058-.716-.065-1.673-.12-2.695-.134a120.2,120.2,0,0,0-14.052.861c-9.826,1.1-20.118,2.617-29.957,4.149Z" transform="translate(-286.489 -222.738)" fill="#6565ff"/>
        <path id="Path_523" data-name="Path 523" d="M364.972,379.566a214.779,214.779,0,0,1,31.545-2.5c2.7,0,5.427.084,8.237.255a66.688,66.688,0,0,1,8.887,1.068,34.823,34.823,0,0,1,5.338,1.446,20.38,20.38,0,0,1,3.476,1.629,14.041,14.041,0,0,1,4.535,4.162,12.259,12.259,0,0,1,1.783,4.049,11.731,11.731,0,0,1,.3,2.2q.015.527,0,1.051l-.026.477-.019.13-.312,2.086-.668,3.873c-1.824,10.095-3.855,19.992-6.047,29.917q-3.257,14.869-7.1,29.646l-5.923-.748q-.075-15.255.357-30.44c.233-10.112.64-20.251.958-30.226l.075-3.658,0-1.686v-.1l-.026.24a4.894,4.894,0,0,0-.012.576,7.22,7.22,0,0,0,.159,1.273,6.861,6.861,0,0,0,1,2.343,7.445,7.445,0,0,0,1.644,1.765c.2.178.2.19-.019.192-.357-.014-1.193-.072-2.072-.075a98.762,98.762,0,0,0-13.13,1.058c-9.351,1.281-19.208,3.042-28.585,4.782Z" transform="translate(-297.468 -222.523)" fill="#6565ff"/>
        <path id="Path_524" data-name="Path 524" d="M400.417,344.016c-5.458,3.063-10.781,5.884-16.366,8.675-2.793,1.386-5.609,2.737-8.68,4.049l-2.415.981c-.889.328-1.855.691-2.618.923-1.61.525-3.211,1.05-4.8,1.418a94.205,94.205,0,0,1-18.779,2.631,137.12,137.12,0,0,1-18.372-.343,2.993,2.993,0,0,1-.173-5.946l.131-.017a130.145,130.145,0,0,0,16.839-3.576,82.035,82.035,0,0,0,15.494-5.929c1.2-.583,2.29-1.267,3.383-1.924a7.625,7.625,0,0,0,1.349-1.024l1.409-1.24c1.96-1.767,4.008-3.754,6.023-5.781,4.02-4.051,8.093-8.359,11.9-12.592a12.765,12.765,0,1,1,15.8,19.63Z" transform="translate(-325.643 -263.266)" fill="#ea2a4d"/>
        <path id="Path_525" data-name="Path 525" d="M391,423.545l-.834,5.473a1.459,1.459,0,0,0,1.437,1.655H402.2l-5.407-6.51Z" transform="translate(-279.428 -189.293)" fill="#06005e"/>
        <path id="Path_526" data-name="Path 526" d="M403.462,423.545l-.832,5.461a1.45,1.45,0,0,0,1.433,1.667h17.45l-12.265-6.51Z" transform="translate(-270.503 -189.293)" fill="#06005e"/>
        <path id="Path_528" data-name="Path 528" d="M373.246,322.4c1.327,14.5,22.6,10.261,20.413-1.542a160.752,160.752,0,0,1-2.461-21.313c-.444-4.449-5.372-6.524-9.215-6.035C370.137,295.011,372.468,313.889,373.246,322.4Z" transform="translate(-292.052 -282.322)" fill="#c1c8ea"/>
        <g id="Group_213" data-name="Group 213" transform="matrix(0.643, -0.766, 0.766, 0.643, 119.384, 59.903)">
          <path id="Path_540" data-name="Path 540" d="M2.6,21.655l7.184,5.7a.853.853,0,0,0,1.227-.175L23.844,9.037a.854.854,0,0,0-.161-1.157L14.16.195a.853.853,0,0,0-1.235.175L.162,18.619a.853.853,0,0,0,.156,1.147Z" transform="translate(0 0)" fill="#332777"/>
          <path id="Path_541" data-name="Path 541" d="M2.392,19.913,9,25.155a.784.784,0,0,0,1.128-.161l11.8-16.685a.786.786,0,0,0-.149-1.065L13.02.179A.784.784,0,0,0,11.885.34L.149,17.12a.785.785,0,0,0,.143,1.055Z" transform="translate(0.966 1.109)" fill="#1d184c"/>
        </g>
        <path id="Path_529" data-name="Path 529" d="M366.237,330.239c8.99-7.215,9-18.358,12.435-29.751a13.566,13.566,0,0,1,8.906,10.415c1.155,6.486,4,15.7,10.908,21.913a48.2,48.2,0,0,1-12.275,1.559A50.131,50.131,0,0,1,366.237,330.239Z" transform="translate(-296.562 -277.282)" fill="#d8ddff"/>
        <path id="Path_530" data-name="Path 530" d="M402.679,295.095c-1.7-15.346-12.48-2.007-24.213,1.3a39.544,39.544,0,0,0,13.985-8.841l-.362-.376c-5.237,5.02-11.381,8.46-16.958,9.621,4.826-1.729,9.044-5.6,12.835-9.11l.383-.353-.354-.381-.383.353c-4.444,4.12-9.476,8.757-15.331,9.716-13.42-1.137-.856,15.065,2.593,23.306,3.471,8.29,9.373,1.564,14.524-5.361C389.4,314.97,403.865,305.8,402.679,295.095Z" transform="translate(-296.572 -286.957)" fill="#06005e"/>
        <path id="Path_531" data-name="Path 531" d="M377.555,307.484c-.451,3.535,4.938,3.691,5.038.753a38.483,38.483,0,0,1,.539-5.222c.129-1.086-.956-1.852-1.916-1.947C378.262,300.777,377.821,305.411,377.555,307.484Z" transform="translate(-288.473 -276.876)" fill="#c1c8ea"/>
        <path id="Path_527" data-name="Path 527" d="M412.733,336.942c1.9-3.907,4.71-10.043,2.829-12.511s-3.6,5.178-5.42,6.068-3.012-5-3.649-2.055,2.537,8.5,2.537,8.5Z" transform="translate(-267.785 -260.51)" fill="#d8ddff"/>
        <g id="Group_160" data-name="Group 160" transform="translate(49.134 52.957)">
          <path id="Path_532" data-name="Path 532" d="M452.972,350.949c-.632-3.175-1.375-6.169-2.259-9.278a2.992,2.992,0,0,0-5.86,1.072l.012.127c.486,5.663.391,11.993-1.061,16.711-.088.257-.184.506-.285.744-.156-.127-.378-.28-.673-.511a32.55,32.55,0,0,1-2.607-2.223,101.835,101.835,0,0,1-11.04-12.667c-1.425-1.876-2.835-3.823-4.217-5.787-2.161-6.267-6.46-11.3-13.827-15.668a23.728,23.728,0,0,1-4.1-3.056,48.192,48.192,0,0,1-12.275,1.559,50.13,50.13,0,0,1-19.973-4.137,17.6,17.6,0,0,1-1.7,1.247c-7.4,4.927-15.8,9.23-18.164,25.883-1.078,7.38-.953,17.234.959,30.644q2.173,15.25,3.436,27.027c1.02,9.335,1.68,17.006,2.106,22.952l55.116-3.221c-.7-17.7,6.316-42.2,8.657-56.092,2,1.338,4.064,2.655,6.3,3.9a40.7,40.7,0,0,0,5.177,2.44,15.368,15.368,0,0,0,8.16,1.074,10.424,10.424,0,0,0,5.154-2.446,10.791,10.791,0,0,0,2.746-3.845,16.928,16.928,0,0,0,1.245-6.346A46.22,46.22,0,0,0,452.972,350.949Z" transform="translate(-354.269 -317.835)" fill="#ff4769"/>
          <path id="Path_533" data-name="Path 533" d="M415.693,398H362.486s-7.545-7.265-3.709-19.214h59.749C417.185,387.913,415.693,398,415.693,398Z" transform="translate(-351.819 -274.253)" fill="#6565ff"/>
        </g>
      </g>
      <g id="Group_162" data-name="Group 162" transform="translate(0 92.982)">
        <path id="Path_534" data-name="Path 534" d="M340.294,458.825a3.122,3.122,0,0,1-3.12-3.12V437.1c0-14.223-.675-28.764-2-43.226a3.122,3.122,0,0,1,6.217-.573c1.347,14.65,2.03,29.387,2.03,43.8v18.606A3.122,3.122,0,0,1,340.294,458.825Z" transform="translate(-242.386 -305.925)" fill="#06005e"/>
        <path id="Path_535" data-name="Path 535" d="M502.272,408.789H294.846l-11.273-65.8H491Z" transform="translate(-279.338 -339.872)" fill="#06005e"/>
        <path id="Path_536" data-name="Path 536" d="M499.805,408.789H292.378l-11.273-65.8H488.532Z" transform="translate(-281.106 -339.872)" fill="#2e2e99"/>
        <rect id="Rectangle_41" data-name="Rectangle 41" width="269.598" height="7.863" transform="translate(10.011 83.721)" fill="#2e2e99"/>
        <path id="Path_537" data-name="Path 537" d="M466.625,389.983H412.446v7.879h34.012c1.117,13.259,1.711,26.556,1.711,39.585v18.606a3.121,3.121,0,0,0,6.242,0V437.446c0-13.031-.587-26.326-1.691-39.585h13.9Z" transform="translate(-187.017 -306.272)" fill="#06005e"/>
        <path id="Path_538" data-name="Path 538" d="M309.686,494.083a3.12,3.12,0,0,1-3.12-3.118V472.354a463.82,463.82,0,0,0-6.642-78.1l-8.469-49.434a3.12,3.12,0,0,1,6.152-1.051l8.47,49.434a470.153,470.153,0,0,1,6.732,79.152v18.611A3.121,3.121,0,0,1,309.686,494.083Z" transform="translate(-273.724 -341.173)" fill="#06005e"/>
        <path id="Path_539" data-name="Path 539" d="M406.615,494.082a3.12,3.12,0,0,1-3.12-3.118V472.353a463.994,463.994,0,0,0-6.642-78.1l-8.47-49.434a3.12,3.12,0,0,1,6.151-1.051L403,393.2a470.149,470.149,0,0,1,6.732,79.152v18.612A3.12,3.12,0,0,1,406.615,494.082Z" transform="translate(-204.289 -341.172)" fill="#06005e"/>
      </g>
    </g>
    <g id="Group_100" data-name="Group 100" transform="translate(109.785 446.152)">
      <g id="Group_99-3" data-name="Group 99" transform="translate(0 0)">
        <path id="Path_124-3" data-name="Path 124" d="M231.989,148.509c-.378-4.474-2.893-8.733-2.346-13.189,1.07-8.72,13.04-13.431,13.067-22.216.02-6.747-7.016-11.15-9.948-17.226-3.345-6.929-1.125-15.681-4.906-22.38-3.622-6.416-11.525-8.9-18.781-10.2-4.393-.786-9.4-1.192-12.853,1.628-4.62,3.77-3.879,10.843-5.216,16.654-1.715,7.455-7.235,13.325-11.7,19.54s-8.114,14.164-5.448,21.335c1.852,4.978,6.376,8.469,8.931,13.126,2.628,4.789,3,10.451,4.506,15.7,1.638,5.7,4.868,11.188,9.939,14.275C207.357,171.718,233.164,162.383,231.989,148.509Z" transform="translate(-172.955 -62.722)" fill="#70aa55"/>
        <g id="Group_96-3" data-name="Group 96" transform="translate(35.481 20.465)">
          <path id="Path_125-3" data-name="Path 125" d="M195.534,215.98a.894.894,0,0,1-.9-.892l-.3-139.126a.894.894,0,0,1,.893-.9h0a.893.893,0,0,1,.894.892l.3,139.126a.893.893,0,0,1-.893.9Z" transform="translate(-194.341 -75.067)" fill="#115b33"/>
        </g>
        <g id="Group_97-3" data-name="Group 97" transform="translate(17.89 34.468)">
          <path id="Path_126-3" data-name="Path 126" d="M201.993,104.094,184.061,89.267a.895.895,0,0,1,1.141-1.378l16.655,13.773,17.314-17.876a.894.894,0,0,1,1.286,1.242Z" transform="translate(-183.738 -83.514)" fill="#115b33"/>
        </g>
        <g id="Group_98-3" data-name="Group 98" transform="translate(16.698 56.514)">
          <path id="Path_127-3" data-name="Path 127" d="M202.5,122.19l-19.157-16.055a.894.894,0,1,1,1.15-1.369L202.3,119.7,222,97.118a.894.894,0,0,1,1.349,1.174Z" transform="translate(-183.019 -96.813)" fill="#115b33"/>
        </g>
      </g>
    </g>
    <g id="Group_56" data-name="Group 56" transform="translate(339.13 298.097)">
      <g id="Group_45" data-name="Group 45" transform="translate(0.015 0)">
        <g id="Group_43" data-name="Group 43" transform="translate(0 0)">
          <path id="Path_86" data-name="Path 86" d="M0,0,61.389.046,61.422,44.8.033,44.753Z" transform="translate(12.354 0) rotate(16.008)" fill="#e3e3ff"/>
        </g>
        <g id="Group_44" data-name="Group 44" transform="translate(4.224 4.048)">
          <path id="Path_87" data-name="Path 87" d="M0,0,54.633.041l.028,37.981L.028,37.981Z" transform="matrix(0.961, 0.276, -0.276, 0.961, 10.485, 0)" fill="#fff"/>
        </g>
      </g>
      <g id="Group_46" data-name="Group 46" transform="translate(4.243 29.356)">
        <path id="Path_78" data-name="Path 78" d="M631.87,665.084,579.24,649.846,576,661.035,628.566,676.2Z" transform="translate(-576 -649.846)" fill="#b2b2ff"/>
      </g>
      <g id="Group_49" data-name="Group 49" transform="translate(6.139 21.109)">
        <g id="Group_47" data-name="Group 47" transform="translate(0 0)">
          <path id="Path_79" data-name="Path 79" d="M617.26,593.837l-26.178,5.349-2.174,7.6a167.434,167.434,0,0,0,17.487,5.309c11.893,3.092,16.886,3.239,14.977.589-.985-1.368,2.334-.774,5.776.121l-5.189-10.133Z" transform="translate(-588.908 -593.837)" fill="#69696e"/>
        </g>
        <g id="Group_48" data-name="Group 48" transform="translate(33.051 8.246)">
          <path id="Path_80" data-name="Path 80" d="M818.258,649.837l-4.258.589,5.189,10.133c3.225.838,6.558,1.941,6.558,1.941Z" transform="translate(-814 -649.837)" fill="#515155"/>
        </g>
      </g>
      <g id="Group_50" data-name="Group 50" transform="translate(43.448 17.739)">
        <path id="Path_81" data-name="Path 81" d="M852.691,572.256s-9.691-2.945-9.691,0,6.02,1.62,9.691,5.89,4.845,3.534,8.076,3.681,1.762-2.8.881-3.387,1.175-.589,2.5-1.031S862.529,575.5,852.691,572.256Z" transform="translate(-843 -570.948)" fill="#cecef2"/>
      </g>
      <g id="Group_51" data-name="Group 51" transform="translate(12.725 11.757)">
        <path id="Path_82" data-name="Path 82" d="M654.94,534.52s-10.719-4.859-12.628-4.123.524,3.091-5.171,2.208-3.786.442,2.675,2.651,18.5,4.123,15.124,2.062S657.437,535.7,654.94,534.52Z" transform="translate(-633.761 -530.321)" fill="#cecef2"/>
      </g>
      <g id="Group_52" data-name="Group 52" transform="translate(30.125 11.685)">
        <path id="Path_83" data-name="Path 83" d="M755.244,530.18s.6-1.086,5.658.6,11.406,4.142,6,3.4-3.115,2.4-9.134-.019S750.309,529.818,755.244,530.18Z" transform="translate(-752.266 -529.837)" fill="#fff"/>
      </g>
      <g id="Group_53" data-name="Group 53" transform="translate(40.11 27.441)">
        <path id="Path_84" data-name="Path 84" d="M823.244,637.18s.6-1.086,5.658.6,11.406,4.142,6,3.4-3.115,2.4-9.134-.019S818.309,636.818,823.244,637.18Z" transform="translate(-820.267 -636.836)" fill="#e3e3ff"/>
      </g>
      <g id="Group_55" data-name="Group 55" transform="translate(3.808 16.986)" opacity="0.1">
        <g id="Group_54" data-name="Group 54">
          <path id="Path_85" data-name="Path 85" d="M640.591,565.84l-.015,0s-17.913,34.523-67.537,27.119l55.247,15.895Z" transform="translate(-573.039 -565.837)"/>
        </g>
      </g>
    </g>
    <g id="Group_73" data-name="Group 73" transform="matrix(0.643, -0.766, 0.766, 0.643, 256.75, 310.089)">
      <g id="Group_45-2" data-name="Group 45" transform="translate(-0.011 0.005)">
        <g id="Group_43-2" data-name="Group 43" transform="translate(0 0)">
          <path id="Path_86-2" data-name="Path 86" d="M0,0,61.318.082l.06,44.729L.06,44.729Z" transform="translate(12.357 0) rotate(16.008)" fill="#e3e3ff"/>
        </g>
        <g id="Group_44-2" data-name="Group 44" transform="translate(4.222 4.047)">
          <path id="Path_87-2" data-name="Path 87" d="M0,0,54.57.073l.051,37.961L.051,37.961Z" transform="matrix(0.961, 0.276, -0.276, 0.961, 10.489, 0)" fill="#fff"/>
        </g>
      </g>
      <g id="Group_46-2" data-name="Group 46" transform="translate(4.247 29.352)">
        <path id="Path_78-2" data-name="Path 78" d="M55.8,15.254,3.237,0,0,11.186l52.5,15.18Z" transform="translate(-0.005 -0.001)" fill="#b2b2ff"/>
      </g>
      <g id="Group_49-2" data-name="Group 49" transform="translate(6.137 21.116)">
        <g id="Group_47-2" data-name="Group 47" transform="translate(0 0)">
          <path id="Path_79-2" data-name="Path 79" d="M28.312.012,2.174,5.35l-2.169,7.6a167.144,167.144,0,0,0,17.463,5.314c11.877,3.1,16.863,3.244,14.956.594-.985-1.368,2.331-.773,5.768.122L33.008,8.845Z" transform="translate(-0.005 -0.012)" fill="#69696e"/>
        </g>
        <g id="Group_48-2" data-name="Group 48" transform="translate(33.002 8.247)">
          <path id="Path_80-2" data-name="Path 80" d="M4.252,0,0,.589,5.185,10.721c3.221.839,6.549,1.943,6.549,1.943Z" transform="translate(0 -0.002)" fill="#515155"/>
        </g>
      </g>
      <g id="Group_50-2" data-name="Group 50" transform="translate(43.388 17.75)">
        <path id="Path_81-2" data-name="Path 81" d="M9.677,1.312S0-1.635,0,1.309,6.012,2.93,9.679,7.2s4.84,3.535,8.066,3.683,1.758-2.8.878-3.385,1.173-.589,2.492-1.03S19.5,4.554,9.677,1.312Z" transform="translate(-0.001 -0.001)" fill="#cecef2"/>
      </g>
      <g id="Group_51-2" data-name="Group 51" transform="translate(12.707 11.762)">
        <path id="Path_82-2" data-name="Path 82" d="M21.15,4.205S10.445-.656,8.539.079,9.064,3.17,3.377,2.285-.4,2.726,6.048,4.936,24.524,9.064,21.151,7,23.643,5.384,21.15,4.205Z" transform="translate(-0.001 -0.004)" fill="#cecef2"/>
      </g>
      <g id="Group_52-2" data-name="Group 52" transform="translate(30.082 11.695)">
        <path id="Path_83-2" data-name="Path 83" d="M2.973.345s.6-1.086,5.65.605,11.391,4.145,6,3.4S11.51,6.744,5.5,4.328-1.955-.019,2.973.345Z" transform="translate(0 -0.002)" fill="#fff"/>
      </g>
      <g id="Group_53-2" data-name="Group 53" transform="translate(40.058 27.449)">
        <path id="Path_84-2" data-name="Path 84" d="M2.973.345s.6-1.086,5.65.605,11.391,4.145,6,3.4S11.51,6.744,5.5,4.328-1.955-.019,2.973.345Z" transform="translate(0 -0.002)" fill="#e3e3ff"/>
      </g>
      <g id="Group_55-2" data-name="Group 55" transform="translate(3.814 17.007)" opacity="0.1">
        <g id="Group_54-2" data-name="Group 54" transform="translate(0 0)">
          <path id="Path_85-2" data-name="Path 85" d="M67.457.03l-.014,0S49.567,34.535.011,27.117L55.184,43.026Z" transform="translate(-0.011 -0.027)"/>
        </g>
      </g>
    </g>
    <g id="Group_72" data-name="Group 72" transform="translate(303.943 292.673) rotate(-30)">
      <g id="Group_45-3" data-name="Group 45" transform="translate(0.004 0.005)">
        <g id="Group_43-3" data-name="Group 43">
          <path id="Path_86-3" data-name="Path 86" d="M0,0,61.362.07,61.413,44.8.051,44.732Z" transform="translate(12.355 0) rotate(16.008)" fill="#e3e3ff"/>
        </g>
        <g id="Group_44-3" data-name="Group 44" transform="translate(4.224 4.047)">
          <path id="Path_87-3" data-name="Path 87" d="M0,0,54.609.062l.043,37.963L.043,37.963Z" transform="matrix(0.961, 0.276, -0.276, 0.961, 10.486, 0)" fill="#fff"/>
        </g>
      </g>
      <g id="Group_46-3" data-name="Group 46" transform="translate(4.253 29.352)">
        <path id="Path_78-3" data-name="Path 78" d="M55.839,15.254,3.239,0,0,11.186l52.537,15.18Z" transform="translate(-0.005 -0.001)" fill="#b2b2ff"/>
      </g>
      <g id="Group_49-3" data-name="Group 49" transform="translate(6.144 21.116)">
        <g id="Group_47-3" data-name="Group 47" transform="translate(0 0)">
          <path id="Path_79-3" data-name="Path 79" d="M28.335.012,2.176,5.35l-2.17,7.6a167.37,167.37,0,0,0,17.477,5.314c11.887,3.1,16.876,3.244,14.967.594-.985-1.368,2.332-.773,5.773.122L33.033,8.845Z" transform="translate(-0.005 -0.012)" fill="#69696e"/>
        </g>
        <g id="Group_48-3" data-name="Group 48" transform="translate(33.028 8.247)">
          <path id="Path_80-3" data-name="Path 80" d="M4.255,0,0,.589,5.189,10.721c3.223.839,6.554,1.943,6.554,1.943Z" transform="translate(0 -0.002)" fill="#515155"/>
        </g>
      </g>
      <g id="Group_50-3" data-name="Group 50" transform="translate(43.424 17.75)">
        <path id="Path_81-3" data-name="Path 81" d="M9.685,1.312S0-1.635,0,1.309,6.017,2.93,9.687,7.2s4.844,3.535,8.072,3.683,1.76-2.8.879-3.385,1.174-.589,2.494-1.03S19.517,4.554,9.685,1.312Z" transform="translate(-0.001 -0.001)" fill="#cecef2"/>
      </g>
      <g id="Group_51-3" data-name="Group 51" transform="translate(12.719 11.762)">
        <path id="Path_82-3" data-name="Path 82" d="M21.167,4.205S10.453-.656,8.546.079,9.071,3.17,3.379,2.285-.4,2.726,6.053,4.936,24.543,9.064,21.168,7,23.662,5.384,21.167,4.205Z" transform="translate(-0.001 -0.004)" fill="#cecef2"/>
      </g>
      <g id="Group_52-3" data-name="Group 52" transform="translate(30.108 11.695)">
        <path id="Path_83-3" data-name="Path 83" d="M2.976.345S3.577-.741,8.63.95s11.4,4.145,6,3.4S11.519,6.744,5.5,4.328-1.956-.019,2.976.345Z" transform="translate(0 -0.002)" fill="#fff"/>
      </g>
      <g id="Group_53-3" data-name="Group 53" transform="translate(40.091 27.449)">
        <path id="Path_84-3" data-name="Path 84" d="M2.976.345S3.577-.741,8.63.95s11.4,4.145,6,3.4S11.519,6.744,5.5,4.328-1.956-.019,2.976.345Z" transform="translate(0 -0.002)" fill="#e3e3ff"/>
      </g>
      <g id="Group_55-3" data-name="Group 55" transform="translate(3.819 17.007)" opacity="0.1">
        <g id="Group_54-3" data-name="Group 54" transform="translate(0 0)">
          <path id="Path_85-3" data-name="Path 85" d="M67.509.03l-.014,0S49.605,34.535.011,27.117L55.227,43.026Z" transform="translate(-0.011 -0.027)"/>
        </g>
      </g>
    </g>
  </g>
</svg>
