<svg xmlns="http://www.w3.org/2000/svg" width="203.379" height="79.735" viewBox="0 0 203.379 79.735">
  <path id="Path_10244" data-name="Path 10244" d="M523.9,393.823c-1.482-10.025-6.872-19.671-16.82-23.254-5.587-2.012-11.678-2.011-17.533-1.807-7.7.269-45.4.648-53.106.784-15.222.269-30.4-.156-45.611-.623-11.37-.349-46.43-1.392-55.934,6.146-8.686,6.889-11.822,21.294-13.369,31.612-1.637,10.914.992,23.478,11.937,28.485,6.03,2.758,12.985,2.76,19.475,2.476,8-.351,35.818-1.552,43.556-3.589a21.428,21.428,0,0,0,6.045,10.546c2.126,2.044,5.856,5.342,8.746,3a1,1,0,0,0,.262-.991c-1.417-4.66-2.826-9.908.964-13.839a.574.574,0,1,1,1.033.5c15.785.948,61.582,1.318,77.394,1.066,9.156-.146,21.673.828,28.486-6.7,3.251-3.59,3.807-8.33,4.26-12.953C524.366,407.774,524.925,400.724,523.9,393.823Zm-1.9,11.5c-.228,5.839.06,13.59-2.921,18.779-5.885,10.247-24.314,7.856-34.064,7.922-13.827.093-57.66-.257-71.468-.981a.925.925,0,0,0-.926.514.985.985,0,0,0-1.519-.2,9.623,9.623,0,0,0-3,5.777,14.523,14.523,0,0,0,.035,4.276c.148,1.055,1.163,3.209.954,4.117q.557.944-.631.484a1.344,1.344,0,0,1-1.173-.287,11.825,11.825,0,0,1-2.342-1.639,21.2,21.2,0,0,1-2.855-2.8,23.983,23.983,0,0,1-4.473-8.618.689.689,0,0,0-1.346.138c-11.278,1.991-43.79,3.984-55.194,2.2-13.4-2.1-18.939-13.586-17.58-26.232a87.742,87.742,0,0,1,4.012-16.818c1.794-5.677,4.107-11.437,8.942-15.2,9.549-7.426,44.939-5.916,56.318-5.488,11.9.448,23.79.816,35.7.757,11.7-.058,53.4-.959,65.092-.962,12.436,0,22.547,4.787,26.628,17.178C522,393.723,522.226,399.6,522,405.323Z" transform="translate(-321.085 -368.67)" fill="#020536"/>
</svg>
