<svg xmlns="http://www.w3.org/2000/svg" width="51.23" height="42.315" viewBox="0 0 51.23 42.315">
  <path id="Path_10496" data-name="Path 10496" d="M273.448,186.523l.44.134c.154.032.318.048.477.067a2.368,2.368,0,0,0,.37.011l.316,0a10.646,10.646,0,0,0,1.267-.062,9,9,0,0,0,1.281-.188l.642-.137.64-.207a8.57,8.57,0,0,0,1.253-.532,7.458,7.458,0,0,0,2.175-1.747,8.966,8.966,0,0,0,1.953-4.957,17.178,17.178,0,0,0-.281-4.99,26.334,26.334,0,0,0-1.366-4.676,22.053,22.053,0,0,0-2.268-4.381l-.394-.528c-.148-.17-.3-.364-.447-.512l-.854-.861c-.549-.59-1.194-1.1-1.8-1.64a20.549,20.549,0,0,0-4.154-2.673,16.145,16.145,0,0,0-4.821-1.439,14.572,14.572,0,0,0-5.049.277,19.591,19.591,0,0,0-8.627,4.691,30.351,30.351,0,0,0-6.022,7.538,29.57,29.57,0,0,0-3.447,9.011,22.745,22.745,0,0,0-.124,9.756,12.989,12.989,0,0,0,2.1,4.656,12.843,12.843,0,0,0,3.781,3.453,21.7,21.7,0,0,0,9.4,2.709,46.17,46.17,0,0,0,9.522-.327,73.776,73.776,0,0,0,9.254-1.837q2.276-.6,4.517-1.321l1.9-.636,1.7-.61s1.692-.741,3.3-1.563a26.111,26.111,0,0,0,2.992-1.673,6.647,6.647,0,0,0,2.279-1.942c.077-.354-.651-.181-2.838.62-1.306.439-2.882.961-4.139,1.352l-2.188.667c-.557.212-1.117.415-1.68.613l-.422.148-1.117.378c-.741.245-1.484.477-2.23.7a77.47,77.47,0,0,1-9.081,2.151,51.7,51.7,0,0,1-9.211.808,24.071,24.071,0,0,1-8.815-1.547,11.974,11.974,0,0,1-3.61-2.263,9.752,9.752,0,0,1-2.352-3.437,16.744,16.744,0,0,1-.692-8.675c.1-.749.252-1.5.4-2.243l.266-1.091.323-1.081a29.625,29.625,0,0,1,7.037-11.523,18.358,18.358,0,0,1,7.418-4.7,12.106,12.106,0,0,1,8.419.386,16.035,16.035,0,0,1,3.79,2.217l.447.332.422.37.847.739.8.8c.262.266.554.546.736.778a16.5,16.5,0,0,1,2.122,3.809,24.2,24.2,0,0,1,1.351,4.289,15.91,15.91,0,0,1,.362,4.352,9.472,9.472,0,0,1-.382,2.021,6.17,6.17,0,0,1-.887,1.7,5.247,5.247,0,0,1-1.417,1.2,6.605,6.605,0,0,1-1.858.669l-.5.1-.526.055a7.6,7.6,0,0,1-1.07.057c-.167,0-.393.012-.509,0a.367.367,0,0,0-.1-.01c-.036-.011-.076-.029-.116-.037a1.906,1.906,0,0,1-.592-.376h0a8.083,8.083,0,0,1-1.624-2.245,21.182,21.182,0,0,1-1.219-2.821,30.359,30.359,0,0,1-.928-3.155,23.318,23.318,0,0,0,.747-3.619,6.618,6.618,0,0,0-.046-2.037,2.664,2.664,0,0,0-.255-.716,1.9,1.9,0,0,0-.306-.434,1.563,1.563,0,0,0-.524-.4,1.832,1.832,0,0,0-.657-.2,2.565,2.565,0,0,0-.565.026c-.14.034-.281.073-.418.119-.117.047-.214.1-.319.148l-.078.039c.548-.742-.792,1.031-.654.862l-.006.032-.025.132-.047.263-.053.5v.02l-.025-.017a6.918,6.918,0,0,0-.732-.363,7.221,7.221,0,0,0-.8-.245l-.421-.068-.21-.029-.107,0-.508-.006c-.184.007-.364.037-.546.058a6.645,6.645,0,0,0-3.52,1.883,11.551,11.551,0,0,0-2.168,2.961,12.831,12.831,0,0,0-1.446,7.032,9.144,9.144,0,0,0,.134.929c.056.3.127.567.189.851.137.559.3,1.122.49,1.686a11.042,11.042,0,0,0,.756,1.71,4.67,4.67,0,0,0,1.494,1.664,3.145,3.145,0,0,0,1.32.475,3.28,3.28,0,0,0,1.35-.163,5.16,5.16,0,0,0,1.83-1.149,13.788,13.788,0,0,0,2.234-2.828,32.782,32.782,0,0,0,2.448-4.929,23.176,23.176,0,0,0,1.312,3,10.418,10.418,0,0,0,2.217,2.989h0A4.459,4.459,0,0,0,273.448,186.523Zm-9.554-3.276a11.348,11.348,0,0,1-1.788,2.29,2.707,2.707,0,0,1-.9.6c-.25.068-.281.057-.456-.039a2.215,2.215,0,0,1-.639-.768,8.428,8.428,0,0,1-.557-1.275c-.16-.464-.3-.949-.419-1.446-.055-.246-.124-.512-.165-.743a6.864,6.864,0,0,1-.1-.683,10.279,10.279,0,0,1,1.169-5.579,8.972,8.972,0,0,1,1.664-2.288,4.1,4.1,0,0,1,2.122-1.189c.088-.007.176-.029.265-.031l.237,0h.05l.1.017.2.03c.13.035.26.076.39.119.125.071.26.109.385.194a5.061,5.061,0,0,1,1.424,1.354.806.806,0,0,0,.164.073q.121.757.28,1.5c-.226.744-.471,1.485-.736,2.211A32.565,32.565,0,0,1,263.893,183.247Z" transform="translate(-244.132 -157.094)" fill="#020536"/>
</svg>
