<svg xmlns="http://www.w3.org/2000/svg" width="41.265" height="29.471" viewBox="0 0 41.265 29.471">
  <path id="Path_10495" data-name="Path 10495" d="M193.393,255.718a.175.175,0,0,0,.127.07l3.424.488,25.221,3.594s5.832.48,5.6.4c2.352.084,3.911-.159.236-1.132-2.158-.628-5.27-1.288-5.27-1.288l-25.49-3.64-1.408-.2c.41-.289.806-.583,1.191-.87,1.383-1.015,2.825-2.092,4.229-3.154l1.326-1s4.471-3.8,4.248-3.688c.443-.414.832-.8,1.112-1.125.26.213.536.437.813.659,1.121.907,2.249,1.758,2.172,1.659a10.312,10.312,0,0,0,1.823,1.076.838.838,0,0,0,.256.364,1.692,1.692,0,0,0,.854.339.141.141,0,0,0,.129-.013c.9-.493,1.977-.887,3.06-1.343.369-.154.764-.325,1.137-.514l.2-.094c.691.776,1.317,1.523,1.954,2.361l3.323,4.2,1.028,1.3s3.9,4.363,3.787,4.143c1.373,1.4,2.5,2.248,1.683.626a8.006,8.006,0,0,0,.717-2.065c.621-2.159,1.269-5.272,1.269-5.272l.267-1.909,1.161-8.314.478-3.426a.589.589,0,0,0-.061-.173,1.8,1.8,0,0,0-.509-.569c.4-.161-.03-.474-2.049-1.008-2.158-.629-5.269-1.288-5.269-1.288L200.893,231.3l-3.425-.489a.553.553,0,0,0-.173.06,1.369,1.369,0,0,0-.721.852,1.163,1.163,0,0,0-1.157.452.177.177,0,0,0-.07.127l-.476,3.426-1.286,9.245-.228,1.639s-.461,5.835-.382,5.6c-.014.429-.017.831-.007,1.181l-.011.018a1.374,1.374,0,0,0-.045,1.279A1.24,1.24,0,0,0,193.393,255.718Zm36.951-6.322-.227,1.64s-.46,5.835-.382,5.6c-.019.6-.017,1.141.011,1.563-.1-.166-.205-.346-.327-.542-1.132-1.94-2.935-4.559-2.935-4.559l-1.2-1.511-3.311-4.2c-.352-.451-.713-.921-1.1-1.383-.181-.216-.363-.426-.544-.633l1.038-.5,4.274-2.052,1.492-.729,2.516-1.46c.865-.512,1.7-1.025,2.088-1.278l-.239,1.724ZM225.59,236.93s5.833.48,5.6.4c.377.013.729.017,1.046.012a1.745,1.745,0,0,0-.188.186.172.172,0,0,0-.069.127l-.044.314c-.141.053-.281.106-.441.17-2.1.765-5.03,1.971-5.03,1.971l-1.726.844L220.472,243l-2.137,1.019-1.079.517c-.331.168-.662.311-1.02.46a34.854,34.854,0,0,0-3.268,1.443.61.61,0,0,0-.118.163,2.283,2.283,0,0,0-.1.26c-.224-.3-.554-.684-1.019-1.186-1.464-1.686-3.609-4.011-3.609-4.011l-1.393-1.324c-2.211-2.114-4.415-4.258-6.7-6.335-.318-.285-.639-.569-.959-.853l1.528.218Zm-30.214,10.25.267-1.91,1.292-9.244.246-1.759q.728.636,1.449,1.284c2.253,2.041,4.446,4.17,6.668,6.292l1.2,1.143s.354.3.855.713c-.309.152-.687.356-1.163.633-1.966,1.081-4.621,2.812-4.621,2.812l-1.538,1.156c-1.413,1.066-2.8,2.1-4.264,3.171-.585.439-1.158.86-1.732,1.23.023-.085.044-.158.068-.249C194.727,250.293,195.376,247.18,195.376,247.18Z" transform="translate(-192.777 -230.815)" fill="#020536"/>
</svg>
