<svg xmlns="http://www.w3.org/2000/svg" width="147.742" height="277.649" viewBox="0 0 147.742 277.649">
  <g id="Group_4438" data-name="Group 4438" transform="translate(-312 -4962.406)">
    <g id="Group_4394" data-name="Group 4394" transform="translate(312 5016)">
      <g id="Group_4368" data-name="Group 4368" transform="translate(21.879)">
        <path id="Path_10246" data-name="Path 10246" d="M108.663,574.671a1.243,1.243,0,0,0,1.107-1.809c-9.164-17.979,11.264-30.813,21.082-36.979,4.005-2.515,5.354-3.362,5.306-4.657-.114-1.96-.175-3.476-.2-4.651l.208.6c1.708,4.952,2.378,7.034,4.124,6.82,1.4-.119,1.677-1.8,1.8-2.525.611-3.7,1.125-6.539,1.54-8.488,0,.018,0,.035.008.047.878,4.6,1.972,10.338,5.421,11,6.345,1.165,19.649,12.707,23.461,24.191,1.883,5.677,1.177,10.348-2.1,13.88a1.246,1.246,0,0,0,1.825,1.7c3.89-4.193,4.8-9.85,2.643-16.363-3.965-11.945-17.488-24.409-25.368-25.855-1.777-.34-2.894-6.2-3.43-9.012-.628-3.284-.916-4.792-2.356-4.792H143.7c-1.418.017-1.944.555-3.885,12.165-.451-1.126-.941-2.546-1.294-3.573-1.494-4.331-2.053-5.932-3.606-5.643-1.343.266-1.776,1.181-1.261,10.274a40.452,40.452,0,0,1-4.125,2.776c-9.628,6.047-32.175,20.214-21.974,40.217A1.243,1.243,0,0,0,108.663,574.671Z" transform="translate(-104.96 -517.775)" fill="#020536"/>
      </g>
      <g id="Group_4369" data-name="Group 4369" transform="translate(85.558 49.848)">
        <path id="Path_10247" data-name="Path 10247" d="M102.831,588.439a4.726,4.726,0,0,0,1.342-.2c4.468-1.33,7.746-9.133,8.127-14.137.24-3.132-.584-5.308-2.317-6.13-2.388-1.128-5.8.492-10.461,4.942a1.246,1.246,0,0,0,1.722,1.8c5.408-5.169,7.343-4.664,7.674-4.489.7.33,1.047,1.743.9,3.683-.353,4.628-3.355,11.048-6.354,11.943-.387.112-1.551.459-3.051-1.492a1.245,1.245,0,1,0-1.974,1.518C99.964,587.864,101.53,588.439,102.831,588.439Z" transform="translate(-98.179 -567.623)" fill="#020536"/>
      </g>
      <g id="Group_4370" data-name="Group 4370" transform="translate(25.212 55.169)">
        <path id="Path_10248" data-name="Path 10248" d="M142.657,614.983a26.561,26.561,0,0,0,12.5-3.056c11.154-5.932,17.379-19.329,17.527-37.722a1.245,1.245,0,0,0-1.236-1.254,1.209,1.209,0,0,0-1.256,1.234c-.14,17.438-5.895,30.061-16.2,35.544-8.155,4.334-18.481,3.529-26.971-2.092-10.377-6.88-15.837-19.3-14.6-33.237a1.245,1.245,0,1,0-2.481-.217c-1.316,14.856,4.556,28.139,15.71,35.529A30.9,30.9,0,0,0,142.657,614.983Z" transform="translate(-109.753 -572.944)" fill="#020536"/>
      </g>
      <g id="Group_4371" data-name="Group 4371" transform="translate(39.569 51.703)">
        <path id="Path_10249" data-name="Path 10249" d="M157.084,575.153a1.247,1.247,0,0,0,.946-2.057,10.51,10.51,0,0,0-7.845-3.618,6.883,6.883,0,0,0-5.386,2.606,1.245,1.245,0,1,0,1.96,1.537,4.4,4.4,0,0,1,3.481-1.65,7.512,7.512,0,0,1,5.9,2.75A1.242,1.242,0,0,0,157.084,575.153Z" transform="translate(-144.533 -569.478)" fill="#020536"/>
      </g>
      <g id="Group_4372" data-name="Group 4372" transform="translate(58.729 32.847)">
        <path id="Path_10250" data-name="Path 10250" d="M137.923,562.791a1.246,1.246,0,0,0,.647-2.311c-2.5-1.511-3.8-5.363-4.742-8.178l-.284-.839a1.246,1.246,0,0,0-2.357.812l.279.822c1.07,3.178,2.535,7.533,5.813,9.516A1.236,1.236,0,0,0,137.923,562.791Z" transform="translate(-131.12 -550.622)" fill="#020536"/>
      </g>
      <g id="Group_4373" data-name="Group 4373" transform="translate(26.731 34.768)">
        <path id="Path_10251" data-name="Path 10251" d="M149.421,573.713a1.24,1.24,0,0,0,.652-.184c1.646-1.016,3.076-1.879,4.337-2.637,8.247-4.974,9.515-5.737,16.552-16.418a1.246,1.246,0,0,0-2.08-1.373c-6.726,10.213-7.755,10.833-15.759,15.658-1.268.763-2.7,1.631-4.357,2.651a1.244,1.244,0,0,0,.655,2.3Z" transform="translate(-148.174 -552.543)" fill="#020536"/>
      </g>
      <g id="Group_4374" data-name="Group 4374" transform="translate(52.788 62.085)">
        <path id="Path_10252" data-name="Path 10252" d="M141.183,586.362h.052a1.243,1.243,0,0,0,1.194-1.294c-.044-1.109.661-1.746,1.586-2.463a5.238,5.238,0,0,0,.8-.7,1.234,1.234,0,0,0-.13-1.739,1.251,1.251,0,0,0-1.757.115,3.906,3.906,0,0,1-.433.354,5.353,5.353,0,0,0-2.551,4.531A1.244,1.244,0,0,0,141.183,586.362Z" transform="translate(-139.937 -579.86)" fill="#020536"/>
      </g>
      <g id="Group_4375" data-name="Group 4375" transform="translate(39.761 73.091)">
        <path id="Path_10253" data-name="Path 10253" d="M142.3,602.787c4.289,0,10.183-1.763,15.611-9.378a1.246,1.246,0,0,0-2.03-1.445c-4.172,5.855-9.034,8.6-14.425,8.3-6.89-.44-12.749-6.005-14.217-8.744a1.245,1.245,0,1,0-2.195,1.175c2.016,3.766,8.576,9.566,16.254,10.054C141.617,602.774,141.952,602.787,142.3,602.787Z" transform="translate(-124.892 -590.866)" fill="#020536"/>
      </g>
      <g id="Group_4376" data-name="Group 4376" transform="translate(13.82 50.829)">
        <path id="Path_10254" data-name="Path 10254" d="M178.686,588.778c1.3,0,2.9-.61,4.415-2.872a1.245,1.245,0,1,0-2.07-1.385c-1.365,2.036-2.4,1.794-2.747,1.719-2.293-.521-4.98-5.235-5.637-9.883-.363-2.567.023-4.5,1.01-5.049.532-.294,2.684-.862,8.374,3.937a1.247,1.247,0,0,0,1.6-1.908c-5.011-4.221-8.67-5.6-11.185-4.208-2,1.1-2.806,3.8-2.271,7.576.719,5.089,3.809,11.11,7.549,11.965A4.405,4.405,0,0,0,178.686,588.778Z" transform="translate(-170.019 -568.604)" fill="#020536"/>
      </g>
      <g id="Group_4377" data-name="Group 4377" transform="translate(60.168 52.856)">
        <path id="Path_10255" data-name="Path 10255" d="M136.485,576.3a1.246,1.246,0,0,0,.946-2.057,10.914,10.914,0,0,0-7.889-3.614,6.7,6.7,0,0,0-5.261,2.62,1.247,1.247,0,0,0,1.987,1.506,4.218,4.218,0,0,1,3.348-1.634,7.506,7.506,0,0,1,5.924,2.746A1.241,1.241,0,0,0,136.485,576.3Z" transform="translate(-124.029 -570.631)" fill="#020536"/>
      </g>
      <g id="Group_4378" data-name="Group 4378" transform="translate(66.204 32.275)">
        <path id="Path_10256" data-name="Path 10256" d="M130.447,569.116a1.245,1.245,0,0,0,.745-2.245c-2.753-2.043-9.1-13.041-9.784-15.87a1.245,1.245,0,1,0-2.42.587c.819,3.385,7.465,14.867,10.718,17.283A1.244,1.244,0,0,0,130.447,569.116Z" transform="translate(-118.953 -550.05)" fill="#020536"/>
      </g>
      <g id="Group_4379" data-name="Group 4379" transform="translate(80.287 43.967)">
        <path id="Path_10257" data-name="Path 10257" d="M116.367,573.331a1.243,1.243,0,0,0,.932-2.07,22.5,22.5,0,0,1-4.241-6.954l-.83-1.842a1.245,1.245,0,1,0-2.262,1.043l.814,1.808a24.779,24.779,0,0,0,4.654,7.6A1.243,1.243,0,0,0,116.367,573.331Z" transform="translate(-109.851 -561.742)" fill="#020536"/>
      </g>
      <g id="Group_4380" data-name="Group 4380" transform="translate(26.571 86.311)">
        <path id="Path_10258" data-name="Path 10258" d="M123.78,675.315c1.513,0,3.217-.141,5.108-.3,2.69-.228,6.039-.508,9.973-.508,3.169.013,6.014.062,8.566.108,16.443.287,21.968.387,23.333-12.625,1.241-11.461,1.106-35.843-7.29-54.486a1.245,1.245,0,1,0-2.27,1.023c8.174,18.155,8.3,41.983,7.083,53.2-1.127,10.748-4.121,10.688-20.813,10.4-2.562-.044-5.418-.093-8.6-.106-4.045,0-7.45.284-10.186.515-6.758.565-8.961.6-10.225-2.43-3.407-8.447.88-31.324,4.326-49.7,1.024-5.466,1.992-10.631,2.653-14.877a1.246,1.246,0,0,0-2.463-.382c-.653,4.209-1.617,9.354-2.639,14.8-3.5,18.7-7.867,41.973-4.183,51.106C117.583,674.487,120.131,675.315,123.78,675.315Z" transform="translate(-114.749 -604.086)" fill="#020536"/>
      </g>
      <g id="Group_4381" data-name="Group 4381" transform="translate(38.227 155.393)">
        <path id="Path_10259" data-name="Path 10259" d="M155.362,737.839a1.246,1.246,0,0,0,1.242-1.182l3.067-62.18a1.246,1.246,0,0,0-1.183-1.307,1.279,1.279,0,0,0-1.306,1.182l-3.067,62.18a1.246,1.246,0,0,0,1.184,1.307Z" transform="translate(-154.114 -673.169)" fill="#020536"/>
      </g>
      <g id="Group_4382" data-name="Group 4382" transform="translate(18.011 213.482)">
        <path id="Path_10260" data-name="Path 10260" d="M170.317,741.83c4.029,0,7.282-.889,8.7-2.374a2.9,2.9,0,0,0,.866-2.152c0-3.426-6-5.509-11.584-5.975-5.142-.34-8.982.542-10.62,2.255a2.951,2.951,0,0,0-.883,2.2c0,3.43,6,5.513,11.584,5.978C169.058,741.81,169.7,741.83,170.317,741.83Zm-4.037-8.077c.593,0,1.207.019,1.836.062,6,.5,9.279,2.6,9.279,3.545a.514.514,0,0,1-.176.372c-.88.922-4.128,1.876-8.649,1.545-6-.5-9.281-2.6-9.281-3.544a.505.505,0,0,1,.192-.426C160.222,734.531,162.612,733.753,166.28,733.753Z" transform="translate(-156.796 -731.257)" fill="#020536"/>
      </g>
      <g id="Group_4383" data-name="Group 4383" transform="translate(61.605 154.916)">
        <path id="Path_10261" data-name="Path 10261" d="M134.185,736.4a1.244,1.244,0,0,0,1.245-1.227l.864-61.224a1.246,1.246,0,0,0-1.228-1.261h-.018a1.247,1.247,0,0,0-1.247,1.228l-.862,61.224a1.244,1.244,0,0,0,1.228,1.26Z" transform="translate(-132.939 -672.691)" fill="#020536"/>
      </g>
      <g id="Group_4384" data-name="Group 4384" transform="translate(61.119 213.928)">
        <path id="Path_10262" data-name="Path 10262" d="M125.869,740.912h0l.485-.007c4.935,0,10.112-1.568,10.413-4.568a2.7,2.7,0,0,0-.758-2.126c-1.393-1.548-4.678-2.508-8.575-2.508l-.459.006c-4.793.093-10.1,1.562-10.413,4.565a2.784,2.784,0,0,0,.778,2.189C118.728,739.994,121.916,740.912,125.869,740.912Zm1.565-6.718c4.6,0,6.814,1.446,6.854,1.889-.069.7-2.862,2.334-7.958,2.334l-.461,0c-3.578,0-5.973-.845-6.682-1.631-.08-.888,2.8-2.492,7.838-2.591Z" transform="translate(-116.549 -731.703)" fill="#020536"/>
      </g>
      <g id="Group_4385" data-name="Group 4385" transform="translate(78.18 107.39)">
        <path id="Path_10263" data-name="Path 10263" d="M92.412,644.328h.041l26.061-.862a1.244,1.244,0,0,0,1.2-1.284,1.161,1.161,0,0,0-1.286-1.205l-25.642.849L69.562,625.4a1.245,1.245,0,1,0-1.439,2.033L91.693,644.1A1.248,1.248,0,0,0,92.412,644.328Z" transform="translate(-67.597 -625.165)" fill="#020536"/>
      </g>
      <g id="Group_4386" data-name="Group 4386" transform="translate(127.616 118.244)">
        <path id="Path_10264" data-name="Path 10264" d="M58.587,645.427h0c.493,0,1-.017,1.517-.046,4.8-.377,10.021-2.2,10.176-5.3A2.619,2.619,0,0,0,69.5,638.1c-1.453-1.529-5.037-2.341-9.278-2.011-5,.389-10.059,2.324-10.059,5.264a2.694,2.694,0,0,0,.8,1.978C52.759,645.222,56.892,645.427,58.587,645.427Zm3.474-6.919c3.773,0,5.627,1.037,5.731,1.45-.036.7-2.752,2.537-7.86,2.938-.443.026-.9.039-1.345.039-3.136,0-5.216-.683-5.818-1.318-.091-.894,2.662-2.654,7.645-3.043C60.978,638.531,61.528,638.508,62.061,638.508Z" transform="translate(-50.157 -636.019)" fill="#020536"/>
      </g>
      <g id="Group_4387" data-name="Group 4387" transform="translate(123.281 114.578)">
        <path id="Path_10265" data-name="Path 10265" d="M71.427,642.987a2.65,2.65,0,0,0,1.989-.907,6.106,6.106,0,0,0,1.169-4.568c-.382-3.057-2.032-5.159-4.019-5.159a2.609,2.609,0,0,0-1.945.9,6.083,6.083,0,0,0-1.212,4.568C67.784,640.835,69.472,642.987,71.427,642.987Zm-.848-8.146c.41,0,1.284.98,1.528,2.934a3.835,3.835,0,0,1-.526,2.622l-.154.1c-.351,0-1.3-1-1.541-2.938C69.739,635.887,70.361,634.914,70.579,634.841Z" transform="translate(-67.376 -632.353)" fill="#020536"/>
      </g>
      <g id="Group_4388" data-name="Group 4388" transform="translate(8.815 102.22)">
        <path id="Path_10266" data-name="Path 10266" d="M165.8,679.4a1.245,1.245,0,0,0,1.244-1.209l.85-30.052,20.914-26.116a1.246,1.246,0,1,0-1.944-1.558L165.692,646.9a1.24,1.24,0,0,0-.273.744l-.861,30.47a1.244,1.244,0,0,0,1.21,1.28Z" transform="translate(-164.557 -619.995)" fill="#020536"/>
      </g>
      <g id="Group_4389" data-name="Group 4389" transform="translate(10.916 170.159)">
        <path id="Path_10267" data-name="Path 10267" d="M183.561,703.068c2.363,0,3.422-3.66,3.422-7.288-.092-3.417-1.079-7.489-3.559-7.846a2.532,2.532,0,0,0-2.009.787c-1.152,1.183-1.793,3.656-1.711,6.614,0,3.69,1.251,7.552,3.645,7.72C183.379,703.059,183.531,703.068,183.561,703.068Zm-.284-12.675a11.217,11.217,0,0,1,1.216,5.42,8.937,8.937,0,0,1-.992,4.677c-.465-.449-1.307-2.29-1.307-5.188C182.112,692.259,182.923,690.585,183.277,690.393Z" transform="translate(-179.697 -687.934)" fill="#020536"/>
      </g>
      <g id="Group_4390" data-name="Group 4390" transform="translate(0 159.022)">
        <path id="Path_10268" data-name="Path 10268" d="M185.9,690.344h0c.314,0,.632-.01.952-.027,6.065-.217,10.928-3.356,11.044-7.145a4.747,4.747,0,0,0-1.437-3.493c-1.748-1.8-4.981-2.882-8.645-2.882l-.691.013c-5.97.218-10.832,3.338-11.066,7.1a4.8,4.8,0,0,0,1.456,3.552C179.26,689.268,182.394,690.344,185.9,690.344Zm1.916-11.054c2.959,0,5.587.812,6.856,2.122a2.3,2.3,0,0,1,.738,1.68c-.066,2.1-3.641,4.558-8.668,4.737-.3.017-.571.023-.84.023h0c-2.8,0-5.331-.812-6.6-2.12a2.33,2.33,0,0,1-.758-1.7c.13-2.072,3.724-4.552,8.668-4.733Z" transform="translate(-176.056 -676.797)" fill="#020536"/>
      </g>
      <g id="Group_4391" data-name="Group 4391" transform="translate(51.833 102.315)">
        <path id="Path_10269" data-name="Path 10269" d="M143.1,620.09a3.116,3.116,0,1,0,2.969,3.063,3.085,3.085,0,0,0-2.969-3.063Z" transform="translate(-140.031 -620.09)" fill="#020536" fill-rule="evenodd"/>
      </g>
      <g id="Group_4392" data-name="Group 4392" transform="translate(51.833 120.423)">
        <path id="Path_10270" data-name="Path 10270" d="M143.1,638.2a3.067,3.067,0,1,0,2.969,3.063A3.025,3.025,0,0,0,143.1,638.2Z" transform="translate(-140.031 -638.198)" fill="#020536" fill-rule="evenodd"/>
      </g>
      <g id="Group_4393" data-name="Group 4393" transform="translate(51.833 135.369)">
        <path id="Path_10271" data-name="Path 10271" d="M143.1,653.144a3.066,3.066,0,1,0,2.969,3.067,3.026,3.026,0,0,0-2.969-3.067Z" transform="translate(-140.031 -653.144)" fill="#020536" fill-rule="evenodd"/>
      </g>
    </g>
    <g id="Group_4437" data-name="Group 4437">
      <g id="Group_4398" data-name="Group 4398" transform="translate(153.223 4682.907)">
        <path id="Path_10484" data-name="Path 10484" d="M282.3,303.25a12.994,12.994,0,0,0,3.058-1.518,8.222,8.222,0,0,0,2.458-2.586,8.41,8.41,0,0,0,1.08-3.4,14.539,14.539,0,0,0-.14-3.407,14.017,14.017,0,0,0-2.6-6.215,14.938,14.938,0,0,0-2.349-2.444,16.625,16.625,0,0,0-2.81-1.835,23.273,23.273,0,0,0-12.827-2.226,25.208,25.208,0,0,0-6.386,1.477,18.948,18.948,0,0,0-5.722,3.347,12.718,12.718,0,0,0-3.884,5.55,9.919,9.919,0,0,0,.274,6.881,12.811,12.811,0,0,0,4.242,5.286,16.017,16.017,0,0,0,2.9,1.707c.257.11.511.229.771.33l.392.147.092.034h0l-.581,1.006a14.2,14.2,0,0,0-.851,1.659.624.624,0,0,0,.008.2c.2.75.6.939.944.954a1.44,1.44,0,0,0,.577-.117,9.4,9.4,0,0,0,1.467-.476c1.074-.4,2.291-1,3.237-1.345.473-.181.884-.293,1.176-.374l.467-.109c.29-.081.584-.154.9-.214.154-.034.313-.062.475-.089l.24-.041.776-.118c2.03-.277,4.134-.436,6.246-.707A30.8,30.8,0,0,0,282.3,303.25Zm-12.968.018-.764.117-.514.089c-.348.072-.687.13-1.05.232a9.949,9.949,0,0,0-.938.348,13.871,13.871,0,0,0-1.874.984c-.942.6-1.8,1.178-2.129,1.413l.013-.023.436-.751.111-.2.162-.3c.14-.253.265-.507.382-.762l.309-.68.155-.345.078-.173.019-.043a.23.23,0,0,0-.042-.016l-.088-.032-1.411-.5c-.116-.042-.248-.08-.371-.12l-.3-.114-.34-.127c-.227-.083-.443-.189-.666-.282a13.964,13.964,0,0,1-2.484-1.445,10.8,10.8,0,0,1-3.56-4.292,7.722,7.722,0,0,1-.379-5.341,10.311,10.311,0,0,1,3.053-4.635,16.426,16.426,0,0,1,4.926-3.048,22,22,0,0,1,5.712-1.465,23.272,23.272,0,0,1,5.914.007,21.876,21.876,0,0,1,2.892.569,18.524,18.524,0,0,1,2.746,1,13.827,13.827,0,0,1,4.626,3.351,11.635,11.635,0,0,1,2.554,5.013,10.957,10.957,0,0,1,.248,1.413l.084.716.026.706a7.489,7.489,0,0,1-.427,2.66,6.656,6.656,0,0,1-3.742,3.65,22.143,22.143,0,0,1-5.686,1.513c-2,.3-4.039.477-6.112.708C270.378,303.131,269.856,303.194,269.331,303.268Z" fill="#020536"/>
        <path id="Path_10489" data-name="Path 10489" d="M259.862,288.374a.17.17,0,0,0,.136.051l3.464-.019c2.765-.02,5.523-.043,8.278-.029l1.649.013,2.88-.129c1.425-.061,2.82-.1,2.7-.126,2.331-.138,3.884-.514.122-1.149-2.219-.42-5.4-.67-5.4-.67l-1.936-.018c-2.772-.016-5.541,0-8.3.023l-3.454.018a.555.555,0,0,0-.162.084C258.739,287.324,259.4,288.08,259.862,288.374Z" fill="#020536"/>
        <path id="Path_10490" data-name="Path 10490" d="M277.908,291.543c2.327-.267,3.848-.733.061-1.153-2.234-.3-5.42-.42-5.42-.42l-1.929.054-7.406.2q-1.723.038-3.442.047a.545.545,0,0,0-.162.085c-1.088.9-.431,1.658.036,1.951a.172.172,0,0,0,.136.05c1.161-.005,2.319-.023,3.476-.048l7.423-.205,1.653-.048,2.879-.251C276.637,291.678,278.03,291.565,277.908,291.543Z" fill="#020536"/>
        <path id="Path_10491" data-name="Path 10491" d="M271.3,294.743a21.637,21.637,0,0,0-2.557-.536l-4.624-.034-3.193-.057-1.052-.04-.4-.026a.263.263,0,0,0-.071.078,1.7,1.7,0,0,0-.146.315c-.047.1-.034.212-.094.3a2.2,2.2,0,0,0-.2.518.613.613,0,0,0-.013.254c.028.085.064.163.089.231a1.755,1.755,0,0,0,.184.328c.031.053.042.054.069.057.121.033,2.443.11,4.739.126l4.574.029s2.773-.341,2.657-.388C272.373,295.649,273.088,295.188,271.3,294.743Z" fill="#020536"/>
      </g>
      <g id="Group_4436" data-name="Group 4436">
        <g id="Group_4404" data-name="Group 4404">
          <g id="Group_4435" data-name="Group 4435">
            <g id="Group_4434" data-name="Group 4434">
              <g id="Group_4433" data-name="Group 4433">
                <g id="Group_4432" data-name="Group 4432">
                  <g id="Group_4431" data-name="Group 4431">
                    <g id="Group_4430" data-name="Group 4430">
                      <g id="Group_4429" data-name="Group 4429">
                        <g id="Group_4428" data-name="Group 4428">
                          <g id="Group_4427" data-name="Group 4427">
                            <g id="Group_4426" data-name="Group 4426">
                              <g id="Group_4425" data-name="Group 4425">
                                <g id="Group_4424" data-name="Group 4424">
                                  <g id="Group_4423" data-name="Group 4423">
                                    <g id="Group_4422" data-name="Group 4422">
                                      <g id="Group_4421" data-name="Group 4421">
                                        <g id="Group_4420" data-name="Group 4420">
                                          <g id="Group_4419" data-name="Group 4419">
                                            <g id="Group_4418" data-name="Group 4418">
                                              <g id="Group_4417" data-name="Group 4417">
                                                <g id="Group_4416" data-name="Group 4416">
                                                  <g id="Group_4415" data-name="Group 4415">
                                                    <g id="Group_4414" data-name="Group 4414">
                                                      <g id="Group_4413" data-name="Group 4413">
                                                        <g id="Group_4412" data-name="Group 4412">
                                                          <g id="Group_4411" data-name="Group 4411">
                                                            <g id="Group_4410" data-name="Group 4410">
                                                              <g id="Group_4409" data-name="Group 4409">
                                                                <g id="Group_4408" data-name="Group 4408">
                                                                  <g id="Group_4407" data-name="Group 4407">
                                                                    <g id="Group_4406" data-name="Group 4406">
                                                                      <g id="Group_4405" data-name="Group 4405">
                                                                        <g id="Group_4399" data-name="Group 4399" transform="translate(156.223 4687.237)">
                                                                          <path id="Path_10483" data-name="Path 10483" d="M239.564,339.115a20.837,20.837,0,0,0,2.177.226l.242.007.037.131c.359,1.271.65,2.615.995,3.975a19.823,19.823,0,0,0,1.346,3.936.743.743,0,0,0,.181.142c.8.38,1.243.176,1.51-.108a1.461,1.461,0,0,0,.139-.191,11.893,11.893,0,0,0,1.561-1.485c.888-.917,1.885-2.068,2.713-2.841l.581-.515.474-.365c.269-.2.436-.294.436-.294a7.579,7.579,0,0,1,.822-.548l.441-.222a1.771,1.771,0,0,1,.225-.105l.116-.044.306-.119a2.654,2.654,0,0,1,.428-.142,24.111,24.111,0,0,1,3.88-.617c1.389-.181,2.778-.4,4.161-.687a28.97,28.97,0,0,0,8.115-2.8,13.538,13.538,0,0,0,3.55-2.769,9.364,9.364,0,0,0,2.163-4.125,11.171,11.171,0,0,0,.055-4.578A19.484,19.484,0,0,0,272.641,317a19.523,19.523,0,0,0-3.054-3.153,22.4,22.4,0,0,0-7.654-4.046,30.944,30.944,0,0,0-16.957-.188A28.643,28.643,0,0,0,237.086,313a24.921,24.921,0,0,0-3.448,2.642,22.443,22.443,0,0,0-2.884,3.268,14.285,14.285,0,0,0-2.877,8.366,11.181,11.181,0,0,0,3.659,8.176A15.272,15.272,0,0,0,239.564,339.115ZM232.375,320.7a18.018,18.018,0,0,1,2.448-2.921c.448-.464.945-.863,1.422-1.287.514-.382,1-.8,1.552-1.136a25.751,25.751,0,0,1,7.014-3.254,30.143,30.143,0,0,1,7.7-1.2,29.69,29.69,0,0,1,3.9.153,27.327,27.327,0,0,1,3.816.71,21.881,21.881,0,0,1,3.633,1.289c.593.247,1.145.571,1.711.868.276.159.541.337.813.5a7.5,7.5,0,0,1,.789.537,16.855,16.855,0,0,1,5,5.621,14.549,14.549,0,0,1,1.9,7.134,7.026,7.026,0,0,1-1,3.3,8.911,8.911,0,0,1-2.465,2.569,21.3,21.3,0,0,1-7.033,2.976c-1.271.322-2.569.575-3.877.785q-.981.159-1.971.284l-2.03.238a13.266,13.266,0,0,0-2.174.469,4.847,4.847,0,0,0-.539.189l-.322.124-.149.059c-.2.08-.386.188-.58.281a10.194,10.194,0,0,0-1.11.662l-.244.209a7.882,7.882,0,0,0-.617.565,14.16,14.16,0,0,0-1.544,1.857,27.609,27.609,0,0,0-1.661,2.634c-.183.322-.351.627-.5.91a20.942,20.942,0,0,1-.944-2.951c-.327-1.286-.615-2.614-.992-3.968l-.085-.3-.147-.483-.305-.966c-.016-.036-.019-.088-.045-.112l-.125,0-.252-.009-.505-.018-.885-.026a16.831,16.831,0,0,1-1.9-.184,13.009,13.009,0,0,1-6.736-2.921,8.845,8.845,0,0,1-3.085-6.263A11.639,11.639,0,0,1,232.375,320.7Z" transform="translate(0)" fill="#020536"/>
                                                                          <path id="Path_10486" data-name="Path 10486" d="M237.407,319.175l.008.007.017.014.012.012a.925.925,0,0,0,.007.4.406.406,0,0,0,.06.139c.015.02.034.047.127.051a.579.579,0,0,0,.261-.089c.02.032.042.064.073.111a.334.334,0,0,0,.081.093,1.193,1.193,0,0,0,.411.2.159.159,0,0,0,.146.007l.374-.131.379-.068.923-.165c.625-.079,1.243-.182,1.877-.233a88.87,88.87,0,0,1,9.631-.258l1.871.019s1.657-.079,3.285-.2a28.813,28.813,0,0,0,3.084-.319,6.428,6.428,0,0,0,2.609-.747c.2-.259-.466-.417-2.587-.559L254,316.935l-2.177-.023a90.567,90.567,0,0,0-9.892.263c-.666.053-1.335.162-2,.247l-1,.177-.251.045c-.082.018-.147.02-.33.067l-.549.192a.735.735,0,0,0-.159.163,3.117,3.117,0,0,0-.281.531c-.034.087-.068.175-.1.277a.741.741,0,0,0-.026.08l0,.028v.007h0Zm.341.333h0l0,0Z" transform="translate(1.212 1.089)" fill="#020536"/>
                                                                          <path id="Path_10487" data-name="Path 10487" d="M237.665,323.609a.193.193,0,0,0,.154.058l3.922-.034c3.872-.053,7.732-.15,11.581-.175l1.862-.006,3.25-.179c1.609-.082,3.185-.136,3.048-.165,2.632-.172,4.387-.606.13-1.3-2.51-.46-6.118-.706-6.118-.706l-2.188.006c-3.879.023-7.744.118-11.6.168l-3.9.032a.681.681,0,0,0-.184.1C236.4,322.423,237.14,323.277,237.665,323.609Z" transform="translate(1.182 1.636)" fill="#020536"/>
                                                                          <path id="Path_10488" data-name="Path 10488" d="M244.9,325.61a7.081,7.081,0,0,0-1.552-.562l-2.752.119c-.683.03-1.362.053-1.875.062l-.878.01a.394.394,0,0,0-.044.1,3.559,3.559,0,0,0,.016,2.2c.019.058.024.058.038.058l.908-.011c.528-.011,1.219-.036,1.9-.067l2.7-.121a14.048,14.048,0,0,0,1.538-.486C245.535,326.627,245.974,326.1,244.9,325.61Z" transform="translate(1.27 2.15)" fill="#020536"/>
                                                                        </g>
                                                                      </g>
                                                                    </g>
                                                                  </g>
                                                                </g>
                                                              </g>
                                                            </g>
                                                          </g>
                                                        </g>
                                                      </g>
                                                    </g>
                                                  </g>
                                                </g>
                                              </g>
                                            </g>
                                          </g>
                                        </g>
                                      </g>
                                    </g>
                                  </g>
                                </g>
                              </g>
                            </g>
                          </g>
                        </g>
                      </g>
                    </g>
                  </g>
                </g>
              </g>
            </g>
          </g>
        </g>
        <g id="Group_4397" data-name="Group 4397" transform="translate(167.223 4677.907)">
          <path id="Path_10485" data-name="Path 10485" d="M228.542,311.825a.09.09,0,0,0,.05-.107,1.149,1.149,0,0,0,.372-1.214.17.17,0,0,0-.06-.132l-2.446-2.446-.106-.106h0l.341-.432c.52-.654,1.07-1.317,1.594-2.035a12.038,12.038,0,0,0,2.313-4.988,10.073,10.073,0,0,0,.142-2.831,9.014,9.014,0,0,0-.721-2.763,9.426,9.426,0,0,0-1.5-2.4,10.544,10.544,0,0,0-2.06-1.891,13.191,13.191,0,0,0-5.019-2.146,18.2,18.2,0,0,0-2.661-.428l-1.356-.041c-.451-.023-.9.049-1.355.071a15.708,15.708,0,0,0-5.241,1.377,15.31,15.31,0,0,0-4.428,3.16,14.066,14.066,0,0,0-2.972,4.556l-.263.63c-.089.21-.136.433-.205.649-.121.437-.272.87-.363,1.311a23.693,23.693,0,0,0-.388,2.676,11.006,11.006,0,0,0,.967,5.476,9.533,9.533,0,0,0,3.849,4.1,12.59,12.59,0,0,0,5.268,1.594,15.377,15.377,0,0,0,5.4-.515,20.233,20.233,0,0,1,2.272-.637c.307-.061.613-.13.922-.172,0,0,.333-.079.835-.165a15.389,15.389,0,0,1,1.854-.184c1.355-.056,2.722.114,2.608.066A7.246,7.246,0,0,0,228.542,311.825Zm-5.705-1.8a14.123,14.123,0,0,0-1.987.009c-.357.054-.714.111-1.066.185-.177.033-.352.073-.525.116L219,310.4l-.13.031-.593.163a17.175,17.175,0,0,1-2.377.627,13.135,13.135,0,0,1-2.389.214,11.361,11.361,0,0,1-4.606-.943,7.806,7.806,0,0,1-3.443-2.9,8.122,8.122,0,0,1-1.2-4.37,12.248,12.248,0,0,1,.232-2.387l.1-.6a3.141,3.141,0,0,1,.136-.588l.337-1.153a13.326,13.326,0,0,1,2.4-4.105c.276-.287.519-.606.819-.868l.9-.788.981-.684c.325-.232.7-.392,1.039-.593a14.089,14.089,0,0,1,4.563-1.413,15.644,15.644,0,0,1,4.81.223,12.084,12.084,0,0,1,4.416,1.726,10.038,10.038,0,0,1,1.761,1.51,8.768,8.768,0,0,1,1.269,1.891,7.955,7.955,0,0,1,.629,2.158,7.859,7.859,0,0,1-.077,2.268,9.682,9.682,0,0,1-1.922,4.237c-.481.664-1.019,1.317-1.565,2l-.432.55c-.269.341-.516.686-.775,1.03l-.193.258c-.022.043-.086.088-.074.128l.113.114.45.458.807.807,1.268,1.269A15.341,15.341,0,0,0,222.837,310.028Z" fill="#020536"/>
          <path id="Path_10492" data-name="Path 10492" d="M218.439,293.661c-1.018.482-2.217,1.128-3.158,1.666s-1.622.965-1.622.965c-.527.379-1.054.761-1.572,1.155-1.212.911-2.4,1.859-3.551,2.86-.89.769-1.748,1.58-2.58,2.42a.576.576,0,0,0-.056.179c-.133,1.421.9,1.452,1.414,1.344a.167.167,0,0,0,.129-.059c.79-.8,1.609-1.573,2.464-2.313,1.1-.963,2.253-1.883,3.431-2.77.431-.331.875-.649,1.314-.972,0,0,1.119-.916,2.243-1.792s2.233-1.727,2.118-1.68C220.827,293.175,221.845,291.96,218.439,293.661Z" fill="#020536"/>
          <path id="Path_10493" data-name="Path 10493" d="M217.64,297.762c-1.955,1.1-4.6,2.894-4.6,2.894l-1.52,1.2-.414.326c-.9.732-1.8,1.467-2.692,2.272a.594.594,0,0,0-.069.176c-.114.731.114,1.088.413,1.269a1.446,1.446,0,0,0,.933.144.165.165,0,0,0,.132-.049c.82-.744,1.706-1.472,2.593-2.19l.4-.326,1.29-1.023,2.163-1.914c1.072-.948,2.121-1.881,2.01-1.824C219.99,297.087,220.89,295.8,217.64,297.762Z" fill="#020536"/>
          <path id="Path_10494" data-name="Path 10494" d="M215.663,303.475a9.19,9.19,0,0,0-1.512.33l-.71.432c-.43.261-1.011.613-1.6,1a18.082,18.082,0,0,0-1.59,1.157c-.427.349-.7.619-.715.634a.275.275,0,0,0,.023.1,2.947,2.947,0,0,0,1.364,1.4c.047.025.05.022.06.014s.229-.228.587-.522a15.745,15.745,0,0,1,1.388-1.015c.53-.351,1.085-.689,1.506-.946l.705-.43.589-.577a3.154,3.154,0,0,0,.521-.591C216.7,303.869,216.753,303.271,215.663,303.475Z" fill="#020536"/>
        </g>
      </g>
    </g>
  </g>
</svg>
