<svg xmlns="http://www.w3.org/2000/svg" width="148.488" height="95.688" viewBox="0 0 148.488 95.688">
  <g id="Group_4402" data-name="Group 4402" transform="matrix(0.985, -0.174, 0.174, 0.985, -529.463, -162.094)">
    <path id="Path_10503" data-name="Path 10503" d="M607.67,325.449a.831.831,0,0,0,0,1.661c17.156.464,22.991-18.938,15.441-32-9.521-16.473-33.241-21.327-50.656-18.744-9.628,1.428-18.468,6.829-23.059,14.612a.793.793,0,0,0-.083-.032c-18.535-3.106-47.178-3.148-57.634,16.256-3.851,7.148-2.095,14.977,3.64,20.509,7.256,7,17.75,9.022,27.425,7.537,1.076,5.032-3.085,8.122-6.713,10.622a.839.839,0,0,0,.42,1.548,21.721,21.721,0,0,0,21.318-12.06c8.522-.591,17.371-1.678,23.245-8.555a.831.831,0,0,0,.109-.951c9.7,4.3,22.283,4.1,32.42,3.187a22.154,22.154,0,0,0,17.565,11.616.834.834,0,0,0,.717-1.249,27.217,27.217,0,0,1-4.988-12.455c-.138-1.045-1.8-1.058-1.661,0a28.791,28.791,0,0,0,4.208,11.795A20.515,20.515,0,0,1,594.4,327.063c-.374-.806-1.413-.353-1.5.375-14.368,1.28-33.331,1.857-41.79-12.365-9.6-16.147,2.812-33.434,19.4-36.707,14.231-2.809,31.085-.084,42.869,8.621,6.482,4.788,11.642,12.223,11.657,20.576C625.055,317.366,617.687,325.72,607.67,325.449Zm-60.561-15.465A23.7,23.7,0,0,0,560.161,325.4a.754.754,0,0,0-.32.226c-5.65,6.614-14.1,7.523-22.264,8.083a.685.685,0,0,0-1,.327,20.121,20.121,0,0,1-17.653,11.765c3.623-2.813,6.623-6.341,5.357-11.317a.732.732,0,0,0-.449-.526.851.851,0,0,0-.889-.408c-9.384,1.6-20.444-.389-27.133-7.724-8.27-9.07-3.718-20.118,5.328-26.463,13.643-9.571,31.655-9.473,47.431-6.866A23.763,23.763,0,0,0,547.109,309.984Z" fill="#020536" stroke="#020536" stroke-width="1"/>
    <path id="Path_10504" data-name="Path 10504" d="M539.336,320.809a160.392,160.392,0,0,0-17.743-.482c-5.782.186-12.96,2.108-18.562.488a.831.831,0,0,0-.441,1.6c5.228,1.512,10.915-.045,16.273-.316a158.6,158.6,0,0,1,20.473.37C540.4,322.553,540.4,320.892,539.336,320.809Z" fill="#020536" stroke="#020536" stroke-width="1"/>
    <path id="Path_10505" data-name="Path 10505" d="M533.352,308.99l-27.2,1.631c-1.062.064-1.07,1.724,0,1.661l27.2-1.631C534.414,310.587,534.422,308.926,533.352,308.99Z" fill="#020536" stroke="#020536" stroke-width="1"/>
    <path id="Path_10506" data-name="Path 10506" d="M609,311.024a502.26,502.26,0,0,0-50.728-.456c-1.064.044-1.07,1.705,0,1.661a502.26,502.26,0,0,1,50.728.455C610.066,312.747,610.061,311.087,609,311.024Z" fill="#020536" stroke="#020536" stroke-width="1"/>
    <path id="Path_10507" data-name="Path 10507" d="M610.052,297.044q-24.512-.011-49.017.594a.831.831,0,0,0,0,1.66q23.631-.582,47.269-.584a.869.869,0,0,0,1.128.361l1.039-.484C611.244,298.231,610.829,297.044,610.052,297.044Z" fill="#020536" stroke="#020536" stroke-width="1"/>
  </g>
</svg>
