<svg xmlns="http://www.w3.org/2000/svg" width="64.705" height="63.163" viewBox="0 0 64.705 63.163">
  <path id="Path_10497" data-name="Path 10497" d="M221.2,84.9a.585.585,0,0,0,.547.021c9.627-4.482,13.659-17.191,12.094-27.126-1.852-11.756-11.1-18.268-22.25-20.189-11.393-1.962-23.887.736-32.548,8.657-8.429,7.709-11.309,19.863-5.438,29.972,6.5,11.2,19.943,15.549,32.005,11.488l.009,0c4.529,7.5,12.359,10.266,20.712,11.409a.6.6,0,0,0,.456-1.081A14.116,14.116,0,0,1,221.2,84.9Zm-14.716,1.974a.543.543,0,0,0-.71-.229.5.5,0,0,0-.477-.062c-13.165,4.432-28.792-1.936-32.85-15.889-4.224-14.524,7.567-27.021,20.657-30.915,11.582-3.446,28.409-2.033,35.838,8.749,7.3,10.6,4.591,29.56-7.747,35.349-.249-.416-.963-.491-1.058.1a15.276,15.276,0,0,0,4.417,13.685C217.233,96.39,210.463,93.669,206.484,86.872Z" transform="translate(-169.996 -36.475)" fill="#020536" stroke="#020536" stroke-width="1"/>
</svg>
