<svg xmlns="http://www.w3.org/2000/svg" width="112.328" height="87.06" viewBox="0 0 112.328 87.06">
  <g id="Group_4440" data-name="Group 4440" transform="matrix(0.966, 0.259, -0.259, 0.966, -426.452, -282.083)">
    <g id="Group_4439" data-name="Group 4439" transform="translate(0 0)">
      <path id="Path_10498" data-name="Path 10498" d="M584.3,168.239c-.722-2.73-1.64-8.148-4.7-9.354a.582.582,0,0,0-.631-.787c-7.816,1.382-14.791,5.061-21.8,8.625-3.416,1.738-6.822,3.5-10.142,5.417-4.555,2.631-8.082,5.115-13.612,5.173-9.141.094-28.393-2.275-30.874,10.441-2.1,10.761,8.428,14.435,17.564,15.457.007.017.013.034.02.051a.579.579,0,0,0,1.042.057c1.15.1,2.264.167,3.321.2l0,.01c-.641,5.466-1.927,12.307-.835,17.759.5,2.5,1.942,3.417,4.5,3.117,2.5-.293,3.867-1.361,3.934-3.912.145-5.453-1.415-11.557-2.288-16.913a.462.462,0,0,0-.017-.045c15.18.092,30.021,2.993,42.881,11.474a4.34,4.34,0,0,0,.564.366c.112.076.228.144.34.22a.459.459,0,0,0,.371.078,4.322,4.322,0,0,0,2.368.034c4.364-1.071,6.474-6.954,7.455-10.721a84.586,84.586,0,0,0,2.4-18.363A63.9,63.9,0,0,0,584.3,168.239Zm-80.839,20.727c.653-7.884,9.44-9.9,16.484-10.519-1.87,2.323-2.421,6.826-2.63,9.45a33.136,33.136,0,0,0,2.471,14.465C512.394,201.668,502.72,197.95,503.465,188.966Zm26.9,25.8c.17,1.317.345,2.636.482,3.957q.117.882.164,1.769-1.369,4.6-4.142,1.169c-2.57-1.708-2.232-1.868-2.207-4.5q.022-2.278.129-4.555c.142-3.032.42-6.051.773-9.065.535.007,1.056.008,1.547,0,.568-.008,1.135,0,1.7-.005a.542.542,0,0,0-.053.329C529.357,207.492,529.9,211.124,530.369,214.767Zm10.269-11.859c-6.568-.689-13.1-.1-19.67-.459a34.228,34.228,0,0,1-2.646-11.711,25.927,25.927,0,0,1,.44-5.515,23.585,23.585,0,0,1,.707-2.748,6.718,6.718,0,0,0,1.063-3.785.536.536,0,0,0,.926.021l.075-.127a.521.521,0,0,0,.064-.261c.776-.049,1.518-.083,2.211-.111,5.816-.231,11.96,1.234,17.394-1.388,12.1-5.839,23.151-14.513,36.521-17.367-7.552,8.058-9.766,20.888-10.533,31.519a43.911,43.911,0,0,0,2.181,18.4,26.3,26.3,0,0,0,1.328,3.115A73.472,73.472,0,0,0,540.638,202.908Zm29.308-22.365c5.815-.355,5.909,13.6-1.779,12.459a71.987,71.987,0,0,1,.949-8.908c.194-1.181.4-2.377.634-3.579A.52.52,0,0,0,569.946,180.544Zm15.143,6.08a98.247,98.247,0,0,1-1.455,13.685,43.771,43.771,0,0,1-1.31,5.829,20.332,20.332,0,0,1-1.631,3.962l-.762,1.255q-2.035,4.661-5.581,1.63c-3.078-1.306-3.165-1.73-4.186-4.624-.34-.964-.618-1.947-.865-2.939a40.5,40.5,0,0,1-1.1-7.445c-.075-1.3-.09-2.6-.065-3.9,8.819,1.07,9.316-15.057,1.819-14.615,1.436-7.1,3.736-14.3,8.782-19.529a.547.547,0,0,0,.114-.177c3.423.69,4.9,10.446,5.384,13.232A66.71,66.71,0,0,1,585.09,186.624Z" transform="translate(0)" fill="#020536" stroke="#020536" stroke-width="1"/>
      <path id="Path_10499" data-name="Path 10499" d="M637.02,183.035c-.312-.62-1.243-.075-.932.544a26.065,26.065,0,0,1,1.994,18.556.54.54,0,0,0,1.04.286A27.28,27.28,0,0,0,637.02,183.035Z" transform="translate(-46.869 -8.646)" fill="#020536" stroke="#020536" stroke-width="1"/>
      <path id="Path_10500" data-name="Path 10500" d="M647.966,175.832c-.328-.612-1.259-.068-.931.545a41.574,41.574,0,0,1,1.8,35.571c-.262.642.781.922,1.04.287A42.584,42.584,0,0,0,647.966,175.832Z" transform="translate(-50.703 -6.124)" fill="#020536" stroke="#020536" stroke-width="1"/>
    </g>
  </g>
</svg>
