<svg xmlns="http://www.w3.org/2000/svg" width="483.567" height="93.3" viewBox="0 0 483.567 93.3">
  <path id="Path_10171" data-name="Path 10171" d="M509,75.549l-.024.007c-.011-.027-.037-.045-.052-.07a.321.321,0,0,0-.258-.31c-10.8-2.116-21.81-3.114-32.62-5.2q-16.674-3.213-33.256-6.949c-21.181-4.747-41.9-12.42-63.32-16-.53-.088-.767.675-.227.823,10.616,2.916,21.458,4.988,32.077,7.939,10.706,2.976,21.274,6.1,32.142,8.454q16.153,3.5,32.442,6.255c8.469,1.434,16.9,3.278,25.414,4.516-15.194-.429-30.455-.13-45.642-.47q-12.974-.291-25.943-.711c-5.964-.185-12.349-1.021-18.436-.6a.194.194,0,0,0-.127-.054c-4.13-.105-8.359-.072-12.491.029a124.888,124.888,0,0,0-8.793-11.78c-3.588-4.557-6.989-9.359-10.873-13.664a.348.348,0,0,0-.544.42c3.148,4.862,6.967,9.36,10.509,13.945a125.294,125.294,0,0,0,9.148,11.2.3.3,0,0,0-.435.248c.1,11.278,1.8,22.654,3.39,33.828-4.007-3.078-6.513-7.485-9.634-11.457a89.29,89.29,0,0,0-11.276-11.913C373.7,78.344,365.807,72.3,356.75,72.973c.043-.489.088-.977.1-1.479.207-11.271-8.422-19.621-17.074-25.458a.573.573,0,0,0-.736.032c-.026-.123-.044-.247-.07-.369a.462.462,0,0,0-.9.122l.009.12C319.965,50.978,302.005,56.634,284,62.03c-8.88,2.662-17.831,5.443-27.178,5.669-9.008.217-17.882-1.695-26.448-4.335-16.686-5.142-32.48-12.5-49.612-16.253a175.419,175.419,0,0,0-50.184-3.616c-8.027.59-17.916.873-25.311,4.312-4.873,2.266-8.38,7.694-4.833,12.615a.253.253,0,0,0,.285.1,30.886,30.886,0,0,1,1.888,4.791,58.071,58.071,0,0,0-19.543-6.17c-2.863-.36-11.664-2.42-12.778,1.685-.7,2.568,2.176,7.349,2.994,9.758a42.284,42.284,0,0,1,1.382,5.1c-6.3-4.976-14.611-5.336-22.406-4.967-8.384.4-17.3,1.2-24.115,6.576a.5.5,0,0,0-.2.4.725.725,0,0,0-.712.934c1.323,4.75,5.426,7.632,8.969,10.778q3.551,3.153,7.106,6.3c.8.708,3.206,2.1,3.552,3.151.679,2.067-.151,1.593-.926,3.084-1.3,2.5-3.582,4.781-5.129,7.172q-2.4,3.7-4.446,7.616c-2.341,4.466-4.571,9.024-4.116,14.184a.505.505,0,0,0,.044.156c-.194.094-.391.182-.584.279-.47.236-.058.906.407.7a53.29,53.29,0,0,1,43.543-.532c5.877,2.606,16.738,7.726,19.965-1.368a.52.52,0,0,0-.273-.646,4.687,4.687,0,0,0-.094-.993,41.749,41.749,0,0,0,0-7.865,48.7,48.7,0,0,0,13.466,6.581c5.18,1.542,21.417,3.914,18.53-6.454a.579.579,0,0,0-.47-.445c.008-5.738.251-11.49.046-17.214,7.812.261,15.622.647,23.408,1.339,17.858,1.585,34.842,5.713,52.177,10.03,29.247,7.283,59.383,8.624,88.928,2.129a174.44,174.44,0,0,0,47.289-17.87.766.766,0,0,0,.263-.234.592.592,0,0,0,.179-.2c.229-.424.435-.856.629-1.293,7.7-5.852,15.662-13.195,16.959-23.1,11.018.565,20.1,8.337,27.484,15.93,5.811,5.975,9.974,15.075,17.253,19.433a.465.465,0,0,0,.437.27c.013.007.025.016.038.024a.606.606,0,0,0,.57.029c.216.141.586,0,.471-.3-.386-1.017,9.935-6.5,11.3-7.287,4.612,5.586,9.37,11.07,13.933,16.664a.478.478,0,0,0,.615.149.334.334,0,0,0,.384.049c13.254-7.491,25.788-16.331,38.928-24.05,12.871-7.561,26.307-12.758,40.453-17.4a.586.586,0,0,0,.417-.573c.126-.042.254-.074.379-.116C510.059,76.472,509.743,75.295,509,75.549ZM94.167,130.326c-4.151,6.614-12.3,2.4-17.8-.037a51.966,51.966,0,0,0-43.165.345c.194-10.8,9.552-22.594,16.137-30.512a.764.764,0,0,0,0-1.062l-10.6-9.5c-3.621-3.246-8.363-6.4-9.968-11.184a.507.507,0,0,0,.153-.065c6.957-4.922,15.019-5.895,23.337-6.236,8.018-.328,15.9.244,22.653,4.962a42.593,42.593,0,0,1,.606,7.765c-.125,9.554-2.321,19.112-4.791,28.3a.333.333,0,0,0,.531.346l0,.025-.011.051c-.876,3.937,1.824,7.427,5.3,9.1a20.784,20.784,0,0,0,6.908,1.647,41.531,41.531,0,0,1,5.275.5C91.207,125.361,94.618,127.652,94.167,130.326Zm-17.786-9.505c-2.255-1.1-3.841-3.062-4.062-6.81a3.906,3.906,0,0,1,3.6-3.322c0,.014-.013.023-.017.037C75.072,113.857,75.545,117.656,76.381,120.821Zm.594-10.184a12.471,12.471,0,0,1,3.1.524c.124,3.634.469,7.275.807,10.9a17.565,17.565,0,0,1-3.725-.9c-.177-1.662-.33-3.337-.353-5.007-.024-1.764.278-3.516.234-5.269A.553.553,0,0,0,76.975,110.637Zm8.852,11.992c-1.384-.168-2.8-.29-4.163-.464-.048-3.529-.093-7.076-.333-10.6a23.754,23.754,0,0,1,4.21,2.017c.037.022.071.047.108.069a.638.638,0,0,0-.053.26C85.592,116.82,85.66,119.728,85.827,122.629Zm4.963,1.081a18.968,18.968,0,0,0-4.174-.979c.161-2.761.225-5.529.23-8.3,1.192.813,2.342,1.687,3.485,2.569a.489.489,0,0,0-.238.417A43.608,43.608,0,0,0,90.79,123.71Zm3.372,2.427a6.97,6.97,0,0,0-2.277-1.937c-.108-.057-.22-.106-.33-.159a53.888,53.888,0,0,0-.364-6.374c.693.536,1.388,1.069,2.093,1.588.235.173.476.337.713.507C93.949,121.873,94.056,124.006,94.162,126.137Zm17.317.336a43.1,43.1,0,0,1-10.565-4.04c-5.729-3.07-10.346-7.766-16.028-10.871-3.356-1.834-8.386-3.721-11.794-.951a5.444,5.444,0,0,0-1.319,1.58c4.347-12.125,7.31-26.9,3.738-39.47-.849-2.986-3.32-6.966-3.389-10.061-.057-2.527.977-2.448,3.265-2.474q2.568-.029,5.126.179a57.753,57.753,0,0,1,22.612,6.874c3.211,13.569-2.427,27.711-.105,41.715a.342.342,0,0,0,.026.163c.023.137.04.275.065.412a.2.2,0,0,0,.159.16,8.667,8.667,0,0,0,2.93,7.56c5.6,4.548,14.9-1.018,19.815,4.417q.051.627.1,1.253C125.775,129.25,114.627,127.205,111.479,126.473Zm1.5-8.75a12.564,12.564,0,0,1-2.782-.332c-.274-.068-.529-.152-.781-.24-.509-4.1-.406-8.134-.647-12.237a.518.518,0,0,0-.246-.436,16.113,16.113,0,0,1,4.263-1.25.53.53,0,0,0-.044.186C112.51,108.159,112.857,112.973,112.978,117.723Zm-4.28-.864c-4.045-1.856-4.644-6.418-2.916-10.511a.242.242,0,0,0,.006-.026,9.566,9.566,0,0,1,1.9-1.412v0A36.8,36.8,0,0,0,108.7,116.859Zm5.008-13.445a.478.478,0,0,0-.129-.311c.979-.123,1.979-.193,2.978-.226a124.273,124.273,0,0,0,.88,14.689c-1.318.04-2.647.154-3.966.159C113.59,112.974,113.938,108.16,113.706,103.414Zm9,14.758a13.972,13.972,0,0,0-3.628-.606c-.327-.015-.657-.017-.987-.015a123.8,123.8,0,0,0-.37-14.7c1.67-.012,3.316.053,4.837.112a.454.454,0,0,0-.376.449A112.409,112.409,0,0,0,122.706,118.172Zm3.179,1.844a7.638,7.638,0,0,0-2.483-1.586.184.184,0,0,0,0-.025c.067-4.911.324-10.113-.259-14.99a.5.5,0,0,0-.365-.441c.421.016.835.031,1.234.043.57.017,1.14.04,1.71.059A97.828,97.828,0,0,0,125.885,120.016ZM339.369,96.1,338.333,97a.679.679,0,0,0-.5.392h0a182.93,182.93,0,0,1-94.46,21.547c-17.28-.71-33.8-4.446-50.492-8.719a272.853,272.853,0,0,0-51.376-8.133c-8.942-.547-18.6-1.75-27.519-.617-4.237.538-8.382,1.971-10.3,5.717.621-12.895,4.261-27.529,1.043-40.26a.629.629,0,0,0-.122-.476,31.414,31.414,0,0,0-3.514-8.315.69.69,0,0,0-.946-.253c-.916-5.522,5.395-9.021,10.183-10.114A120.5,120.5,0,0,1,123.3,45.726,173.123,173.123,0,0,1,147.021,44.6a170.624,170.624,0,0,1,48.309,8.116c14.717,4.73,28.771,11.6,43.928,14.924,15.475,3.4,29.322.785,44.261-3.7,18.221-5.471,36.547-10.71,54.656-16.541.527,7.893,1.27,15.752,1.54,23.667C339.78,72.984,340.239,90.035,339.369,96.1ZM355.284,73.05c-.979,9.459-8.025,16.2-14.907,22.181,2.225-6.677,1.17-14.523.994-21.346-.227-8.828-.421-17.826-2.088-26.529C347.864,53.215,356.454,61.75,355.284,73.05Zm49.643,33.312a20.82,20.82,0,0,0-1.936,1.219c1.5-4.677,3.026-9.344,4.475-14.036,1.95,2.561,3.969,5.076,6.018,7.572C410.591,102.794,407.719,104.523,404.927,106.362Zm63.32-13.178c-13.208,7.758-26.983,15.492-39.138,24.858a.646.646,0,0,0-.115-.224c-6.756-8.532-13.574-17.345-21.217-25.12,17.009-1.87,33.934-4.9,50.847-7.473l25.582-3.884c5.053-.767,10.27-1.305,15.381-2.214A175.168,175.168,0,0,0,468.247,93.184Zm17.6-13.331-26.57,4.017c-17.287,2.614-34.734,4.765-51.9,8.1a.715.715,0,0,0-.375-.042c-.231-.1-.533.125-.464.365a.51.51,0,0,0-.034.061c-1.505,4.591-2.921,9.21-4.362,13.821-1.421-10.705-2.228-21.5-3.82-32.17.021.006.032.022.055.025a37.142,37.142,0,0,0,8.093.251.236.236,0,0,0,.234.141c7.928-.686,16.084.253,24.024.521q12.969.439,25.943.709c16.631.368,33.455,1.168,50.094.576C499.989,78.181,492.781,78.8,485.846,79.853Z" transform="translate(-26.693 -42.527)" fill="#020536" stroke="#020536" stroke-width="1"/>
</svg>
