<svg xmlns="http://www.w3.org/2000/svg" width="151.031" height="75.854" viewBox="0 0 151.031 75.854">
  <g id="Group_4401" data-name="Group 4401" transform="translate(150.503 0.514) rotate(90)">
    <path id="Path_10501" data-name="Path 10501" d="M217.476,310.218c-.624-.324-.05-1.283.616-.984,9.953,4.466,19.906,8.933,29.764,13.6q7.181,3.4,14.282,6.972c5.214,2.632,10.285,5.551,16.1,6.568a.491.491,0,0,1,.391.671.586.586,0,0,1,.046,1.131q-10.036,2.621-19.867,5.915a.607.607,0,0,1,.068.219q.788,7.346.875,14.727a.586.586,0,0,1-1.083.293c-.018-.035-.032-.071-.049-.106a.516.516,0,0,1-.367.02,13.082,13.082,0,0,1-3.613-1.751c-.741,5.08-1.514,10.154-2.367,15.216-.087.517-.635.51-.941.229a.515.515,0,0,1-.672-.238c-10.863-19.685-21.11-39.722-31.583-59.616a.575.575,0,0,1-.036-.121c-.641-.592-1.286-1.179-1.922-1.777A.572.572,0,0,1,217.476,310.218Zm38.365,39c-.008.059-.018.117-.025.176q1.2,3.516,2.71,6.9-.169-5.706-.754-11.385a.576.576,0,0,1-.139-.072q-12.279-9.007-23.885-18.845c7.425,7.16,15.012,14.164,21.808,21.941a.642.642,0,0,1,.361.405l.014.015A.6.6,0,0,1,255.841,349.219Zm2.186,8.715c-.93-1.992-1.8-4.007-2.566-6.065-.2,1.445-.421,2.887-.629,4.331A11.668,11.668,0,0,0,258.027,357.934Zm-6.722,13.52c.823-4.918,1.575-9.845,2.3-14.778a.49.49,0,0,1,.1-.669c.314-2.16.638-4.318.933-6.481-.019-.055-.04-.11-.059-.165a.491.491,0,0,1,.165-.575l0-.02c-10.353-11.85-22.542-21.9-33.185-33.465C231.4,334.052,241.086,352.905,251.3,371.454Zm-29.039-57.093a434.621,434.621,0,0,0,35.627,29.225.565.565,0,0,1,.4-.544q9.389-3.152,18.959-5.682c-9.939-1.953-19.256-8.406-28.292-12.715-9.812-4.679-19.726-9.142-29.643-13.593Q220.77,312.727,222.266,314.361Z" transform="translate(-216.942 -309.177)" fill="#020536" stroke="#020536" stroke-width="1"/>
    <path id="Path_10502" data-name="Path 10502" d="M199.727,475.459c16.937,8.9,37.771-5.394,39.569-23.528.034-.346.054-.7.074-1.049a14.052,14.052,0,0,1-4.725-.035c-5.351-.959-14.6-8.516-8.563-14.2,5.614-5.279,12.154,1.514,13.677,6.868a24.2,24.2,0,0,1,.906,5.841,18.307,18.307,0,0,0,10.71-9.145c3.68-7.169,3.426-16.541.8-24.007a23.228,23.228,0,0,0-7.391-10.631c-.812,4.548-3.293,8.482-8.671,7.944-5.14-.514-9.911-8.535-4.443-11.81,3.913-2.345,8.567-.813,12.431,1.911a23.91,23.91,0,0,0-1.453-9.191A30.162,30.162,0,0,0,227.4,377.278c-.669-.336-.081-1.34.587-1.005a31.234,31.234,0,0,1,16.559,20.56,22.866,22.866,0,0,1,.422,7.434,25.331,25.331,0,0,1,5.581,5.952c5.246,8.115,6.347,20.122,2.552,29.017-2.274,5.33-6.875,9.962-12.44,11.383-.371,19.246-23.669,35.231-41.526,25.846C198.477,476.116,199.064,475.111,199.727,475.459Zm32.531-72.744c-4.991,3.638.505,8.775,4.008,9.177,4.127.473,6.7-2.358,7.565-6.267.05-.228.076-.462.114-.693C241.209,403.02,235.549,400.316,232.258,402.715Zm5.082,37.857c-1.734-3.04-4.725-5.188-8.222-4.058-5.971,1.93-2.534,9.162,1.085,11.436a12.452,12.452,0,0,0,9.207,1.72A18.083,18.083,0,0,0,237.34,440.572Z" transform="translate(-180.528 -329.23)" fill="#020536" stroke="#020536" stroke-width="1"/>
  </g>
</svg>
