<svg xmlns="http://www.w3.org/2000/svg" width="92" height="72" viewBox="0 0 92 72">
  <g id="Group_3254" data-name="Group 3254" transform="translate(-324.313 -95.638)">
    <path id="Path_6977" data-name="Path 6977" d="M393.464,118.286c-.013.01-.022.022-.034.032l-.343.268a30.986,30.986,0,0,1-2.213,2.8c.194-.031.387-.073.579-.117A6.775,6.775,0,0,0,393.464,118.286Z" transform="translate(-0.387 0.086)" fill="#e9edf7"/>
    <path id="Path_6978" data-name="Path 6978" d="M415.361,119.158c-.682-2.936-2.529-4.852-5.557-5.09a14.474,14.474,0,0,1-2.158-.354c-1.546.25-3.369.714-4.674.335a.912.912,0,0,1-.591-1.189c-.155-.011-.31-.027-.465-.042-.072.2-.147.389-.229.576-.392.9-1.715.391-1.728-.472-.017-1.178.032-2.35.058-3.524l-.011.014c-.507-1.9-.268-3.738-1.365-5.21l.062.063c-.088-.764.079-1.6-.463-2.246-1.117-1.333-1.966-2.91-3.456-3.908l-1.313-.543a2.948,2.948,0,0,0-2.2-.777.88.88,0,0,0-.655-.343,38.327,38.327,0,0,0-14.4-.229c-5.788,1.1-9.795,4.437-12.866,9.2-1.873,2.9-1.791,2.924-5.166,2.379-4.773-.77-9.307-.592-12.739,3.562a.718.718,0,0,1-.146.127c-3.589,2.5-4.559,6.133-4.253,10.253.076,1.009-.3,1.28-1.132,1.35-1.095.091-2.193.168-3.28.318a15.438,15.438,0,0,0-5.379,1.515,18.367,18.367,0,0,0-6.43,5.923c-.074.308-.142.62-.2.941a16.187,16.187,0,0,0,.233,6.751l.007.016.009.051q.136.581.3,1.169a1.373,1.373,0,0,0,.472.545c0-.017-.014-.031-.018-.049l.062.082a.506.506,0,0,1-.044-.033c.29.951,1.123,1.5,1.661,2.266a21.805,21.805,0,0,0,6.434,4.13c.353.122.517.293.55.5a8.032,8.032,0,0,1,2.3-.027,10.2,10.2,0,0,1,1.068-1.385c-.366.016-.742.063-1.117.1-2.663.283-4.744-.859-6.573-2.7a12.459,12.459,0,0,1-2.795-5.253l.051.052a19.36,19.36,0,0,1,.59-5.559,4.717,4.717,0,0,1,.546-1.864,10.316,10.316,0,0,0,1.2-2.023l-.037.022.054-.07c0,.017-.012.032-.017.048a3.574,3.574,0,0,0,.605-.384,11.717,11.717,0,0,1,5.351-3,21.508,21.508,0,0,0,4.5-1.118,1.085,1.085,0,0,1,1.425.369c.849.945,1.719,1.9,2.584,2.846a12.923,12.923,0,0,0,4.489,3.327c1.412.593,1.8.36,2.655-.985.224-.35.958-.536-.019-.867-.216-.073-.333-.531-.436-.832-.226-.658-.461-1.352.724-1.081a.455.455,0,0,0,.575-.377.616.616,0,0,0-.326-.648,15.571,15.571,0,0,0-4.583-2.49c-1.414-.388-2.866-.624-3.831-1.912-.05-.066-.247-.02-.375-.026.881-.285.575-1.041.577-1.62a9.031,9.031,0,0,1,.889-4.077,2.135,2.135,0,0,0,.31-1.278c.3-.02.442-.257.581-.461,1.119-1.648,2.375-3.1,4.479-3.451a.5.5,0,0,0,.43-.234c.743-1.265.742-1.3,1.315-1.44a19.612,19.612,0,0,1,3.218-.652c2.06-.139,4.15-.245,6.017.953.274.177.606.383.52.74-.123.511-.646.292-1.015.431.711.137,1.266.563,2,.715l.026,0c.1-.079.2-.157.3-.236.453-.38.929-.784,1.421-1.168l.2-.209q.564-.583,1.146-1.139a1.54,1.54,0,0,1,.335-.687c.535-.641.847-2.53,2.172-2.97a2.019,2.019,0,0,1,.964-.1,12.082,12.082,0,0,1,5.565-4.6,22.04,22.04,0,0,1,4.827-1.562,8.091,8.091,0,0,1,3.342-.431,21.079,21.079,0,0,1,3.075.055.881.881,0,0,1-.087-.4,8.852,8.852,0,0,1,3.629.417c1.385.5,2.755,1.052,4.132,1.582-.022-.02-.043-.042-.065-.061l.075.065-.01,0c.852.771,1.425,1.85,2.529,2.344l.162.521a5.019,5.019,0,0,1,1.45,2.344c.082.3.152.6.212.9l.453,1.089a10.81,10.81,0,0,1,.668,1.6,4.342,4.342,0,0,1-.6,3.727c-.213.293-.381.4-.6.324-.013.084-.025.171-.039.255a40.156,40.156,0,0,1-1.538,6.327c0,.063-.009.127-.012.19,2.3-1.368,4.55-2.933,6.915-3.573.277-.075.558-.135.84-.185,2.63-.965,5.579-1.068,7.607.781a.824.824,0,0,1,.146,1.039,7.545,7.545,0,0,1,2.9,6.433,14.859,14.859,0,0,1-7.847,12.825c-.438.249-.89.483-1.346.708a5.6,5.6,0,0,1-2.228.971,21.829,21.829,0,0,1-4.646,1.2c.14.335-.2.518-.464.65a2.717,2.717,0,0,1-.737.231c-1.636.286-1.637.282-1.959,1.93a25.9,25.9,0,0,0,11.463-1.24c1.4-.52,1.671-.391,2.6.772a5.232,5.232,0,0,1,1.037,3.1,12.19,12.19,0,0,1-.5,3.859,10.227,10.227,0,0,0-.574,3c.009-.006.016-.014.026-.02l-.026.082c0-.021,0-.041,0-.062a1.91,1.91,0,0,0-.79,1.645l-.71.978c-.628.292-.835.979-1.305,1.417-.742.692-1.7,1.354-2.588.823a1.355,1.355,0,0,0-1.375-.027,9.664,9.664,0,0,1-3.246.477,47.928,47.928,0,0,0-5.229-.083,12.052,12.052,0,0,1-7.388-1.83l-.085-.051a4.459,4.459,0,0,1-1.152.754,3.193,3.193,0,0,0,.946,1.577,2.8,2.8,0,0,1,.728,3.06c-.144.472-.224.964-.328,1.448.008,0,.013-.01.021-.014l-.036.087c.006-.024.01-.049.015-.073-.708.386-.658,1.127-.8,1.779l-.011.029c-.707.549-1.381,1.148-2.13,1.632-.572.369-1.233.737-1.832.031a9.838,9.838,0,0,1-7.523.793,22.934,22.934,0,0,1-6.324-2.9,6.17,6.17,0,0,1-2.884-3.518c-.1-.41-.19-.959-.807-.932-.587.026-.641.577-.81.973a1.432,1.432,0,0,0,.16,1.483c2.424,3.268,5.111,6.139,9.58,6.1,3.3-.028,6.587.18,9.879.31,4.063.161,6.338-1.737,6.9-5.74.135-.977.434-1.12,1.35-1.015a22.89,22.89,0,0,0,9.589-.825,13.764,13.764,0,0,1,3.595-.66,8.682,8.682,0,0,0,6.306-2.6,11.743,11.743,0,0,0,3.014-11.013,8.483,8.483,0,0,0-2.9-4.7,11.929,11.929,0,0,0-1.112-.782c-.708-.483-.736-.956-.077-1.545a13.653,13.653,0,0,0,3.132-4.431,3.231,3.231,0,0,1,.735-1.134c1.9-1.546,2.366-3.649,2.36-5.951a11.287,11.287,0,0,1,.014-3.088A6.018,6.018,0,0,0,415.361,119.158Z" transform="translate(0)" fill="#e9edf7"/>
    <path id="Path_6979" data-name="Path 6979" d="M352.255,109.8l0,.107h4.879c0-.035,0-.071,0-.107Z" transform="translate(-0.163 0.054)" fill="#e9edf7" fill-rule="evenodd"/>
    <path id="Path_6980" data-name="Path 6980" d="M385.532,158.782c.039.094.077.184.113.272a1.433,1.433,0,0,0,.105-.328,1.407,1.407,0,0,0-.06-.345C385.462,158.446,385.575,158.647,385.532,158.782Z" transform="translate(-0.356 0.238)" fill="#e9edf7" fill-rule="evenodd"/>
    <path id="Path_6981" data-name="Path 6981" d="M392.161,98.6c-.389-.281-.57-.617-.2-1a3.312,3.312,0,0,1-2.654-.647c.673-.485,1.348-.066,1.937-.2a.912.912,0,0,0-.626-.311,38.327,38.327,0,0,0-14.4-.229c-5.788,1.1-9.795,4.437-12.866,9.2-1.873,2.9-1.791,2.924-5.166,2.379-4.773-.77-9.307-.592-12.739,3.562a.718.718,0,0,1-.146.127c-3.589,2.5-4.559,6.133-4.253,10.253.076,1.009-.3,1.28-1.132,1.35-1.095.091-2.193.168-3.28.318a15.438,15.438,0,0,0-5.379,1.515,18.367,18.367,0,0,0-6.43,5.923c-.074.308-.142.62-.2.941-.064.356-.11.7-.149,1.045.032-.061.053-.123.089-.185.152-.258.228-.6.609-.637.034.058.105.125.093.169-.971,3.4.068,6.361,1.956,9.139a.318.318,0,0,1,.028.155.829.829,0,0,1,.64.914c-.037.251-.372.255-.622.17a21.921,21.921,0,0,0,6.469,4.159c.353.122.517.293.55.5a8.032,8.032,0,0,1,2.3-.027,10.2,10.2,0,0,1,1.068-1.385c-.366.016-.742.063-1.117.1-2.663.283-4.744-.859-6.573-2.7a12.459,12.459,0,0,1-2.795-5.253V139.2a3.955,3.955,0,0,1-1.488-2.587c-.6-3.474.92-6.216,3.2-8.588.674-.7.541.209.638.547a4.257,4.257,0,0,0,.642-.407,11.717,11.717,0,0,1,5.351-3,21.508,21.508,0,0,0,4.5-1.118,1.085,1.085,0,0,1,1.425.369c.849.945,1.719,1.9,2.584,2.846a12.923,12.923,0,0,0,4.489,3.327c1.412.593,1.8.36,2.655-.985.224-.35.958-.536-.019-.867-.216-.073-.333-.531-.436-.832-.226-.658-.461-1.352.724-1.081a.455.455,0,0,0,.575-.377.616.616,0,0,0-.326-.648,15.571,15.571,0,0,0-4.583-2.49c-1.414-.388-2.866-.624-3.831-1.912-.05-.066-.247-.02-.375-.026a.429.429,0,0,0-.124-.077c-.142.283-.283.567-.432.864-1.039-2.285-.042-5.966,2.469-9.134.387.495-.262.906-.108,1.363.276-.033.42-.256.553-.453,1.119-1.648,2.375-3.1,4.479-3.451a.5.5,0,0,0,.43-.234c.743-1.265.742-1.3,1.315-1.44a19.612,19.612,0,0,1,3.218-.652c2.06-.139,4.15-.245,6.017.953.274.177.606.383.52.74-.123.511-.646.292-1.015.431.711.137,1.266.563,2,.715l.026,0c.1-.079.2-.157.3-.236.453-.38.929-.784,1.421-1.168l.2-.209q.234-.241.47-.477c-.109-.245.007-.618.286-1.232a13.842,13.842,0,0,1,3.255-4.3c1.544-1.444,2.932-3.13,5-3.9.222-.082.432-.324.713-.076-.053.6-.624.742-.972,1.074-.138.132-.278.261-.417.391a17.974,17.974,0,0,1,1.846-.983,22.04,22.04,0,0,1,4.827-1.562,8.091,8.091,0,0,1,3.342-.431,21.079,21.079,0,0,1,3.075.055.881.881,0,0,1-.087-.4,8.852,8.852,0,0,1,3.629.417c1.389.506,2.762,1.055,4.142,1.586C393.118,98.973,392.558,98.889,392.161,98.6Zm-41.887,30.846c-.024.56-.36.776-.895.746a2.961,2.961,0,0,1-1.621-.511,9.292,9.292,0,0,1-2.7-2.383c.472-.148.692.109.934.275,1.058.725,2.077,1.507,3.494,1.288C349.812,128.811,350.3,128.886,350.274,129.447Zm-3.3-4.849a.841.841,0,0,1,.839.31.533.533,0,0,1,.053.176c-.118.221-.315.185-.492.128-.234-.073-.518-.1-.6-.392C346.756,124.765,346.891,124.608,346.97,124.6Zm-2.166.433c.011.01.024.02.034.03a29.261,29.261,0,0,1,4.4,1.812c.637.242.611.311.855,1.586a14.529,14.529,0,0,1-5.061-2.212c-.391-.254-.944-.653-.172-1.162-.008-.009-.017-.014-.026-.023l-.041-.01.007-.02c-.338-.3-.941-.311-1.024-.916C345.08,124.146,345.09,124.147,344.8,125.03Zm18.885-17.312a2.792,2.792,0,0,1,1-2.131A3.732,3.732,0,0,1,363.69,107.718Zm13.55-10.267c1.315-1.179,1.635-1.247,3.97-.726Z" transform="translate(-0.001)" fill="#e9edf7"/>
    <path id="Path_6982" data-name="Path 6982" d="M415.637,119.157a15.053,15.053,0,0,1-.139,4.249c-.353,1.3.033,2.923-.21,4.413a10.492,10.492,0,0,1-.916,2.565c-.145.33-.439.4-.691.083-.539,3.381-3.1,4.751-6.021,6.281a2.808,2.808,0,0,1,.43-1.195c-.43.3-.872.583-1.341.849-.438.249-.89.483-1.346.708a5.6,5.6,0,0,1-2.228.971,21.83,21.83,0,0,1-4.646,1.2c.14.335-.2.518-.464.65a2.717,2.717,0,0,1-.737.231c-1.636.286-1.637.282-1.959,1.93a25.9,25.9,0,0,0,11.463-1.24c1.4-.52,1.671-.391,2.6.772a5.232,5.232,0,0,1,1.037,3.1,12.19,12.19,0,0,1-.5,3.859,9.92,9.92,0,0,0-.574,3.063,18.877,18.877,0,0,0,1.32-9.288,5.771,5.771,0,0,1,2.255,3.331,13.656,13.656,0,0,1,.162,6.017c-.074.495-.184,1.051-.761,1.278l.02-.044a7.609,7.609,0,0,1-4.958,2.96c-.2-.752.547-1.1.461-1.692-.628.292-.835.979-1.305,1.417-.742.692-1.7,1.354-2.588.823a1.355,1.355,0,0,0-1.375-.027,9.665,9.665,0,0,1-3.246.477,47.924,47.924,0,0,0-5.229-.083,12.052,12.052,0,0,1-7.388-1.83l-.085-.051a4.46,4.46,0,0,1-1.152.754,3.193,3.193,0,0,0,.946,1.577,2.8,2.8,0,0,1,.728,3.06c-.151.5-.231,1.014-.343,1.522a4.838,4.838,0,0,0,.8-2.156c.061-.526.439-.584.844-.328a2.045,2.045,0,0,1,1.1,1.714,4.328,4.328,0,0,1-.954,3.087,7.257,7.257,0,0,1-6.334,2.66,9.68,9.68,0,0,0,3.755-3.241c-.707.549-1.381,1.148-2.13,1.632-.57.367-1.227.733-1.833.032a9.839,9.839,0,0,1-7.522.792,22.935,22.935,0,0,1-6.324-2.9,6.17,6.17,0,0,1-2.884-3.518c-.1-.41-.19-.959-.807-.932-.587.026-.641.577-.81.973a1.432,1.432,0,0,0,.16,1.483c2.424,3.268,5.111,6.139,9.58,6.1,3.3-.028,6.587.18,9.879.31,4.063.161,6.338-1.737,6.9-5.74.135-.977.434-1.12,1.35-1.015a22.89,22.89,0,0,0,9.589-.825,13.764,13.764,0,0,1,3.595-.66,8.682,8.682,0,0,0,6.306-2.6,11.743,11.743,0,0,0,3.014-11.013,8.483,8.483,0,0,0-2.9-4.7,11.929,11.929,0,0,0-1.112-.782c-.708-.483-.736-.956-.077-1.545a13.654,13.654,0,0,0,3.132-4.431,3.231,3.231,0,0,1,.735-1.134c1.9-1.546,2.366-3.649,2.36-5.951a11.287,11.287,0,0,1,.014-3.088A5.994,5.994,0,0,0,415.637,119.157Zm-18.765,22.3a30.257,30.257,0,0,1,6.683-2.324,1.338,1.338,0,0,1,1.446.31C402.825,142.314,399.814,141.748,396.871,141.455Zm-28.337,22.758a3.3,3.3,0,0,1,1.888.766C369.685,165.032,369.685,165.032,368.534,164.213Zm20.19-5.737c-.352.326-.566-.062-.719-.289s-.387-.532-.112-.856c.381-.054.558.215.742.461C388.792,158,388.927,158.29,388.724,158.477Zm11.729.528a1.484,1.484,0,0,1-1.013.823,22.973,22.973,0,0,1-6.673.624,3.572,3.572,0,0,1-3.715-3.342,5.4,5.4,0,0,1,3.262.252,21.973,21.973,0,0,0,6.183,1.329c1.607-1.514,3.6-1.252,5.548-1.308C403.217,158.837,401.842,158.936,400.453,159Zm4.066-.21a2.325,2.325,0,0,1,1.491-1.745c1.629-.685,3.321-1.22,4.986-1.815l.217.422C409.625,157.885,407.328,158.645,404.52,158.795Zm1.978-20.614a3.894,3.894,0,0,1,2.082-1.048C407.8,138.3,407.8,138.3,406.5,138.181Zm2.122.791,2.72-3.038A5.871,5.871,0,0,1,408.62,138.972Z" transform="translate(-0.229 0.089)" fill="#e9edf7"/>
    <path id="Path_6983" data-name="Path 6983" d="M393.464,118.286c-.013.01-.022.022-.034.032l-.343.268a30.986,30.986,0,0,1-2.213,2.8c.194-.031.387-.073.579-.117A6.775,6.775,0,0,0,393.464,118.286Z" transform="translate(-0.387 0.086)" fill="#e9edf7"/>
    <path id="Path_6984" data-name="Path 6984" d="M386.966,161.686a4.838,4.838,0,0,0,.8-2.156c.061-.526.439-.584.844-.328a2.045,2.045,0,0,1,1.1,1.714,4.328,4.328,0,0,1-.954,3.087,7.257,7.257,0,0,1-6.334,2.66,9.68,9.68,0,0,0,3.755-3.241l.011-.029c.2-.63.743-1.1.819-1.793Z" transform="translate(-0.338 0.241)" fill="#e9edf7" fill-rule="evenodd"/>
    <path id="Path_6985" data-name="Path 6985" d="M399.389,106.459a20.544,20.544,0,0,0-.353-2.265l.062.063c-.7-.911-1.785-1.54-1.759-2.972.011-.6-.751-1-1.246-1.4a1.859,1.859,0,0,1-.915-1.783l-1.313-.543-1.422-.054c-.494.418-.309.785.111,1.088.387.28.926.37,1.1.906a4.766,4.766,0,0,1,2.535,2.381q.082.261.162.521a4.908,4.908,0,0,1,1.271,1.831c.244.163.244.529.264.878.044.179.09.355.126.535l.456,1.1C398.866,106.931,399.442,107.549,399.389,106.459Z" transform="translate(-0.395 0.007)" fill="#e9edf7"/>
    <path id="Path_6986" data-name="Path 6986" d="M327.178,137.818v1.257a3.955,3.955,0,0,1-1.488-2.587c-.6-3.474.92-6.216,3.2-8.588.674-.7.541.209.638.547l.054-.07a2.226,2.226,0,0,0-1.217,2.071,4.717,4.717,0,0,0-.546,1.864,6.757,6.757,0,0,0-.59,5.559Z" transform="translate(-0.007 0.122)" fill="#e9edf7" fill-rule="evenodd"/>
    <path id="Path_6987" data-name="Path 6987" d="M325.263,132.037c.012-.043-.06-.11-.093-.169-.382.037-.457.379-.609.637-.037.061-.058.123-.089.185a16.443,16.443,0,0,0,.382,5.706l.007.016c.172.626.766,1.056.814,1.741.665.217.734,1.235,1.575,1.214-.009-.064,0-.143-.03-.191C325.33,138.4,324.291,135.439,325.263,132.037Z" transform="translate(0 0.138)" fill="#e9edf7"/>
    <path id="Path_6988" data-name="Path 6988" d="M343,121.294a.43.43,0,0,0-.124-.077,9.055,9.055,0,0,1,1.94-6.856l-.04-.042a2.135,2.135,0,0,1-.31,1.278,9.032,9.032,0,0,0-.889,4.077C343.575,120.253,343.882,121.009,343,121.294Z" transform="translate(-0.108 0.071)" fill="#e9edf7" fill-rule="evenodd"/>
    <path id="Path_6989" data-name="Path 6989" d="M352.255,109.8h4.879c0,.036,0,.072,0,.107h-4.879Z" transform="translate(-0.163 0.054)" fill="#e9edf7" fill-rule="evenodd"/>
    <path id="Path_6990" data-name="Path 6990" d="M327.236,137.853a6.757,6.757,0,0,1,.59-5.559A19.36,19.36,0,0,0,327.236,137.853Z" transform="translate(-0.015 0.139)" fill="#e9edf7" fill-rule="evenodd"/>
    <path id="Path_6991" data-name="Path 6991" d="M393.6,99.469a4.742,4.742,0,0,1,2.594,2.405C395.064,101.367,394.493,100.243,393.6,99.469Z" transform="translate(-0.403 0.015)" fill="#e9edf7" fill-rule="evenodd"/>
    <path id="Path_6992" data-name="Path 6992" d="M325.627,140.1c.721.174.763,1.259,1.628,1.238l-.074-.063q.079.592.157,1.183C326.793,141.65,325.907,141.1,325.627,140.1Z" transform="translate(-0.008 0.169)" fill="#e9edf7" fill-rule="evenodd"/>
    <path id="Path_6993" data-name="Path 6993" d="M382.212,165.064c.434-.378.867-.757,1.313-1.147-.5.846-.5.846-1.356,1.109Z" transform="translate(-0.337 0.259)" fill="#e9edf7" fill-rule="evenodd"/>
    <path id="Path_6994" data-name="Path 6994" d="M328.38,130.445a2.226,2.226,0,0,1,1.217-2.071A9.6,9.6,0,0,1,328.38,130.445Z" transform="translate(-0.024 0.124)" fill="#e9edf7" fill-rule="evenodd"/>
    <path id="Path_6995" data-name="Path 6995" d="M393.862,97.563l-1.422-.054.068.06c-.084-.457-.768-.322-.8-.829l-.048.046A2.948,2.948,0,0,1,393.862,97.563Z" transform="translate(-0.392 0.004)" fill="#e9edf7" fill-rule="evenodd"/>
    <path id="Path_6996" data-name="Path 6996" d="M327.348,142.45q-.079-.592-.157-1.183c.457.148.784.451.712.942-.037.251-.372.255-.622.17Z" transform="translate(-0.017 0.173)" fill="#e9edf7" fill-rule="evenodd"/>
    <path id="Path_6997" data-name="Path 6997" d="M325.684,140.186c-.016-.72-.645-1.153-.822-1.8l.009.05q.137.592.3,1.192A1.366,1.366,0,0,0,325.684,140.186Z" transform="translate(-0.003 0.162)" fill="#e9edf7" fill-rule="evenodd"/>
    <path id="Path_6998" data-name="Path 6998" d="M385.532,158.782c.043-.135-.07-.335.159-.4a1.407,1.407,0,0,1,.06.345,1.433,1.433,0,0,1-.105.328C385.609,158.965,385.571,158.876,385.532,158.782Z" transform="translate(-0.356 0.238)" fill="#e9edf7" fill-rule="evenodd"/>
    <path id="Path_6999" data-name="Path 6999" d="M387.024,161.589c-.077.69-.616,1.162-.819,1.793C386.347,162.723,386.291,161.972,387.024,161.589Z" transform="translate(-0.36 0.25)" fill="#e9edf7" fill-rule="evenodd"/>
    <path id="Path_7000" data-name="Path 7000" d="M373.413,99.462c-2.07.767-3.458,2.452-5,3.9a13.842,13.842,0,0,0-3.255,4.3c-.279.613-.4.987-.286,1.233q.331-.334.67-.657a1.522,1.522,0,0,1,.341-.693c.535-.641.847-2.53,2.172-2.97a2.036,2.036,0,0,1,.959-.1l.014-.015a10.659,10.659,0,0,1,3.71-3.6c.138-.131.278-.26.417-.391.348-.332.92-.474.972-1.074C373.845,99.137,373.634,99.379,373.413,99.462Z" transform="translate(-0.236 0.014)" fill="#e9edf7"/>
    <path id="Path_7001" data-name="Path 7001" d="M344.924,124.944c1.6.312,2.94,1.25,4.435,1.817.637.242.611.311.855,1.586a14.529,14.529,0,0,1-5.061-2.212c-.391-.254-.944-.653-.172-1.162Z" transform="translate(-0.118 0.111)" fill="#e9edf7" fill-rule="evenodd"/>
    <path id="Path_7002" data-name="Path 7002" d="M344.812,114.366a9.055,9.055,0,0,0-1.94,6.856l-.432.864c-1.039-2.285-.042-5.966,2.469-9.134C345.31,113.466,344.589,113.89,344.812,114.366Z" transform="translate(-0.103 0.066)" fill="#e9edf7" fill-rule="evenodd"/>
    <path id="Path_7003" data-name="Path 7003" d="M345.175,127.179c.472-.148.692.109.934.275,1.058.725,2.077,1.507,3.494,1.288.33-.05.818.024.792.585s-.36.776-.895.746a2.961,2.961,0,0,1-1.621-.511A9.292,9.292,0,0,1,345.175,127.179Z" transform="translate(-0.121 0.12)" fill="#e9edf7" fill-rule="evenodd"/>
    <path id="Path_7004" data-name="Path 7004" d="M381.518,96.722l-3.97.726C378.863,96.268,379.183,96.2,381.518,96.722Z" transform="translate(-0.31 0.003)" fill="#e9edf7" fill-rule="evenodd"/>
    <path id="Path_7005" data-name="Path 7005" d="M391.7,96.74c.032.507.717.372.8.829a3.282,3.282,0,0,1-2.814-.616C390.384,96.447,391.091,96.931,391.7,96.74Z" transform="translate(-0.38 0.004)" fill="#e9edf7" fill-rule="evenodd"/>
    <path id="Path_7006" data-name="Path 7006" d="M363.919,107.68a2.792,2.792,0,0,1,1-2.131A3.732,3.732,0,0,1,363.919,107.68Z" transform="translate(-0.23 0.038)" fill="#e9edf7" fill-rule="evenodd"/>
    <path id="Path_7007" data-name="Path 7007" d="M344.977,124.976c-.321-.362-1-.329-1.084-.97,1.31.032,1.31.032,1.022.94Z" transform="translate(-0.114 0.108)" fill="#e9edf7" fill-rule="evenodd"/>
    <path id="Path_7008" data-name="Path 7008" d="M347.993,124.973c-.118.222-.315.186-.492.129-.234-.073-.518-.1-.6-.392-.015-.054.12-.212.2-.222a.841.841,0,0,1,.839.31A.535.535,0,0,1,347.993,124.973Z" transform="translate(-0.131 0.11)" fill="#e9edf7" fill-rule="evenodd"/>
    <path id="Path_7009" data-name="Path 7009" d="M400.6,158.862a1.484,1.484,0,0,1-1.013.823,22.973,22.973,0,0,1-6.673.624,3.572,3.572,0,0,1-3.715-3.342,5.4,5.4,0,0,1,3.262.252,21.973,21.973,0,0,0,6.183,1.329l-.024-.058a5.628,5.628,0,0,0,2.036.42Z" transform="translate(-0.377 0.232)" fill="#e9edf7" fill-rule="evenodd"/>
    <path id="Path_7010" data-name="Path 7010" d="M368.563,164.043a3.3,3.3,0,0,1,1.888.766C369.714,164.861,369.714,164.861,368.563,164.043Z" transform="translate(-0.257 0.26)" fill="#e9edf7" fill-rule="evenodd"/>
    <path id="Path_7011" data-name="Path 7011" d="M388.034,157.187c.381-.054.558.215.742.461.157.211.292.5.089.685-.352.326-.566-.062-.719-.289S387.76,157.511,388.034,157.187Z" transform="translate(-0.37 0.234)" fill="#e9edf7" fill-rule="evenodd"/>
    <path id="Path_7012" data-name="Path 7012" d="M396.64,99.769c-3.014-2.973-7.587-3.694-11.618-3.542a26.218,26.218,0,0,0-4.01.475,6.366,6.366,0,0,0-4.373,1.216,34.13,34.13,0,0,0-4.832,2.163c-3.087,1.682-6.884,4.367-8.091,7.874-.1.292.269.373.423.168A26.955,26.955,0,0,1,384.13,97.379a16.151,16.151,0,0,1,10.51,2.489c4.774,3.349,4.1,8.516,2.975,13.473-.111.617-.26,1.384-.453,2.225.118.53.994.331,1.19-.268C400.112,109.931,400.984,104.054,396.64,99.769Z" transform="translate(-0.229 0.002)" fill="#e9edf7"/>
    <path id="Path_7013" data-name="Path 7013" d="M407.263,138.285c-.232-.013-.486.384-.217.51,3.733,1.742,6.725,3.7,7.543,8.1.764,4.106-1.692,7.508-5.206,9.175a20.632,20.632,0,0,1-9.4,1.506c-4.4-.138-8.28-1.744-12.5-2.642-.523-.111-.951.783-.454,1.069,4.221,2.428,10.034,3.084,14.836,2.937a18.131,18.131,0,0,0,10.315-3.168C418.842,150.829,415.736,138.784,407.263,138.285Z" transform="translate(-0.364 0.162)" fill="#e9edf7"/>
    <path id="Path_7014" data-name="Path 7014" d="M385.951,156.545c-.067,0-.146.086-.106.153,1.346,2.264,1.276,3.894-.082,6.191-1.583,2.678-5.06,3.167-7.841,2.949a17.477,17.477,0,0,1-12.9-7.765c-.231-.378-.67-.2-.906.117a3.455,3.455,0,0,0-.362-.168c.033-.1.07-.2.1-.306.268-.87-.86-.888-1.184-.253-1.773,3.481-3.169,6.173-7.234,7.2a14.669,14.669,0,0,1-6.634-.064c1.521-.183,3-.432,4.345-.666.225-.039.418-.529.1-.524-2.462.038-4.922.318-7.375.358-.294-.1-.586-.206-.871-.313a16.473,16.473,0,0,1-7.861-5.838c-2.287-3.441-.247-7.587,1.632-10.652.16-.259.182-.8-.193-.9-3.953-1.058-8.392-1.661-11.517-4.553-2.528-2.341-1.476-6.307-.138-8.942,2.575-5.07,9.355-11.287,15.473-9.182.368.127.76-.473.383-.693-.118-.07-.239-.127-.359-.189a.55.55,0,0,0,.007-.115,12.52,12.52,0,0,1,6.207-11.69,15.7,15.7,0,0,1,6.3-2.025c2.394-.292,4.609.538,6.947.48.134,0,.326-.21.185-.331-1.735-1.478-4.795-1.405-6.927-1.255a16.574,16.574,0,0,0-7.243,2.359,13.8,13.8,0,0,0-6.7,12.1c-5.943-1.645-12.8,5.642-15.282,10.148-1.489,2.7-2.235,6-.887,8.894,1.965,4.22,8.057,5.09,12.162,6.18a20.471,20.471,0,0,0-1.656,3.356c-3.252,3.59-1.961,10.105,2.052,12.545a13.235,13.235,0,0,0,6.4,1.688l.208.09a18.429,18.429,0,0,0,12.486.9,10.632,10.632,0,0,0,6.218-5.687,1.1,1.1,0,0,0,.348-.2.515.515,0,0,0,.544-.174,1.347,1.347,0,0,0,.294-.791c2.96,5.809,11.361,9.344,17.578,7.95a8.211,8.211,0,0,0,5.738-4.817C388.068,160.392,388.687,156.687,385.951,156.545ZM340.624,163.3c-4.947-1.122-6.909-5.724-5.778-10.069a8.944,8.944,0,0,0,.334,3.964c.871,2.709,3.3,4.728,5.868,6.19C340.906,163.36,340.765,163.335,340.624,163.3Z" transform="translate(0 0.045)" fill="#e9edf7"/>
  </g>
</svg>
