<svg xmlns="http://www.w3.org/2000/svg" width="64.301" height="63.938" viewBox="0 0 64.301 63.938">
  <g id="store-new-badges" transform="matrix(0.921, 0.391, -0.391, 0.921, 20.638, -3.923)">
    <path id="Path_1600" data-name="Path 1600" d="M48.927,30.733l-3.619-5.742a2.057,2.057,0,0,1-.27-1.531l1.437-6.633a2.055,2.055,0,0,0-1.381-2.392l-6.463-2.073a2.056,2.056,0,0,1-1.19-1l-3.163-6a2.055,2.055,0,0,0-2.6-.945L25.4,6.981a2.059,2.059,0,0,1-1.554,0L17.562,4.415a2.056,2.056,0,0,0-2.6.945l-3.163,6a2.056,2.056,0,0,1-1.19,1L4.15,14.435a2.055,2.055,0,0,0-1.381,2.392L4.2,23.46a2.055,2.055,0,0,1-.27,1.531L.317,30.733a2.055,2.055,0,0,0,.48,2.72l5.364,4.158a2.056,2.056,0,0,1,.777,1.346l.919,6.724a2.055,2.055,0,0,0,2.115,1.775l6.782-.263a2.058,2.058,0,0,1,1.461.531l5.026,4.56a2.056,2.056,0,0,0,2.762,0l5.026-4.56a2.053,2.053,0,0,1,1.461-.531l6.781.263a2.055,2.055,0,0,0,2.116-1.775l.919-6.724a2.057,2.057,0,0,1,.777-1.346l5.364-4.158A2.055,2.055,0,0,0,48.927,30.733Zm-30,6.008-5.989-4.183L15.4,38.263l-1.641.708L9.984,30.223l1.718-.742,6.1,4.3-2.522-5.842,1.641-.709L20.7,35.976Zm3.64-1.571-3.775-8.748,6.487-2.8.638,1.48L21.2,27.139l.837,1.939,4.392-1.9.636,1.474-4.392,1.9L23.7,32.933l4.887-2.109L29.22,32.3Zm14.787-6.382L32.79,23l1.086,7.29-1.915.827L26.1,23.269l1.807-.781,3.912,5.44-.994-6.7,2.1-.907,4.17,5.449L35.8,19.082l1.778-.768,1.651,9.665Z" transform="translate(0)" fill="#ff4769"/>
  </g>
</svg>
