<svg xmlns="http://www.w3.org/2000/svg" width="465" height="423" viewBox="0 0 465 423">
  <g id="Group_4403" data-name="Group 4403" transform="translate(-85 -1065)">
    <g id="Group_3182" data-name="Group 3182" transform="translate(-206.745 1242.765)">
      <path id="Path_6747" data-name="Path 6747" d="M586.745,53.973a.385.385,0,0,0-.2-.328c.007-.1.021-.2.026-.3.021-.415-.991-1.635-1.212-2.033-.307-.555-1.652-3.514-2.326-3.619-28.868-4.5-57.97-8.971-86.764-13.94-24.529-4.234-49.66-10.1-74.467-12.519-.234-.023-.419.146-.556.42-9.352,18.73-12.647,41.566-17.793,61.743-2.772,10.867-16.87,57.571-17.147,62.819-.191.131-28.975,14.752-36.147,18.174-14.251,6.8-29.227,12.877-42.976,20.631-.717.4-.333,3.366-.323,4.232a20.414,20.414,0,0,0,.212,3.355,1.912,1.912,0,0,0,.608.878c13.72,4.855,28.59,7.2,42.724,10.622q22.021,5.329,43.951,11.012c28.836,7.42,57.9,14.371,86.1,24a1.836,1.836,0,0,0,1.876-.409c10.736-7.71,22.373-13.945,33.241-21.494,11.3-7.85,34.975-23.824,35.1-23.92.535-.415.254-4.163.212-5.507.537.024,1.086-.016,1.611-.041.381-.018.777-.054,1.159-.1,1.366-.154,1.571-.641,1.572-.646,2.306-3.871,6.516-22.4,9.41-33.329,2.988-11.283,5.668-22.641,8.252-34.023s5.074-22.789,7.452-34.221c2.077-9.993,5.359-20.565,6.118-30.791A1.2,1.2,0,0,0,586.745,53.973Zm-2.694-2.7c.076.208.142.414.233.62a4.352,4.352,0,0,0,.8,1.439c-.063.289-.123.56-.186.844-.192.159-.378.323-.554.462-.368.289-.729.589-1.084.9C583.524,54.111,583.8,52.692,584.051,51.269Zm-3.3,21.61a5.668,5.668,0,0,0-1.367,1.251q1.084-4.757,2.08-9.521l.68-.516c.228-.174.459-.341.679-.519C582.077,66.923,581.4,69.957,580.749,72.879ZM578.671,82.3a14.592,14.592,0,0,0-1.582,1.66q.946-3.947,1.858-7.9c.309-.255.617-.509.913-.78.137-.125.291-.258.443-.393C579.755,77.354,579.218,79.783,578.671,82.3Zm-.992,4.578q-.836,3.891-1.671,7.779-.722,1.085-1.441,2.171c-.32.482.444.918.768.451.053-.078.107-.156.16-.232q-.914,4.258-1.839,8.513a12.227,12.227,0,0,0-1.76,2.231c-.241.3-.515.578-.792.86,1.753-7.366,3.583-14.744,5.367-22.134l1.294-1.29c.11-.11.228-.222.343-.333Q577.893,85.868,577.678,86.873Zm5.407-24.5a4.816,4.816,0,0,0-1.341.863q.64-3.09,1.23-6.182.761-.433,1.492-.917C583.976,58.36,583.52,60.42,583.086,62.376ZM480.546,237.307c-27.848-10.872-57.721-17.087-86.612-24.525q-21.4-5.512-42.876-10.75c-13.763-3.337-27.881-7.652-42-9.239a30.223,30.223,0,0,0-.27-3.725,14.593,14.593,0,0,0-.42-2.3l.089-.037c13.51,4.531,28.055,6.739,41.911,9.967q22.064,5.137,44.045,10.632c28.811,7.149,57.847,13.833,86.051,23.18a33.607,33.607,0,0,0,.131,4.094C480.614,235.44,480.442,236.428,480.546,237.307Zm.428-8.47C452.99,218.168,423,212.2,394,205q-21.451-5.324-42.967-10.381c-13.305-3.1-26.948-7.126-40.58-8.719,13.473-5.626,26.528-12.838,39.66-19.18q10.22-4.937,20.43-9.887c5.994-2.917,12.209-5.3,18.11-8.452,28.549,8.88,58.662,14.214,87.8,20.888q19.9,4.56,39.833,8.984c10.6,2.342,21.327,5.243,32.1,6.825-9.734,6.151-19.3,12.631-29.009,18.824C506.556,212.078,493.271,219.875,480.974,228.837Zm36.982-20.508a14.127,14.127,0,0,0-1.774,2.576q-2.228,1.467-4.46,2.933c.377-.892.722-1.789,1-2.694,3.213-2.046,6.414-4.094,9.611-6.109.692-.436,1.378-.879,2.07-1.316-.491.821-.937,1.684-1.354,2.57-1.607,1.111-3.227,2.2-4.852,3.279.118-.3.238-.6.326-.905A.343.343,0,0,0,517.956,208.329Zm-21.463,19.351c-1.673.965-3.389,1.934-5.083,2.951,1.346-2.6,2.886-5.126,3.961-7.822.1-.256-.284-.466-.459-.268-2.18,2.469-3.552,5.77-4.769,8.869a49.507,49.507,0,0,0-4.722,3.3c1.619-2.68,3.206-5.434,4.625-8.178.12-.232-.176-.485-.369-.286a27.978,27.978,0,0,0-6.039,10.006c-.362.337-.729.672-1.073,1.028a14.882,14.882,0,0,0-.071-2.917,42.785,42.785,0,0,0-.745-4.946c6.089-3.1,12.048-6.531,17.93-10.113-2.038,2.268-3.3,5.556-4.407,8.27-.134.329.419.563.574.243a49.253,49.253,0,0,1,2.5-4.552,34.735,34.735,0,0,0,2.717-4.424.342.342,0,0,0-.049-.352c3.3-2.023,6.574-4.085,9.837-6.158a29.355,29.355,0,0,0-1.337,2.972c-1.023.676-2.046,1.346-3.062,2.034a.293.293,0,0,0,.276.517c.764-.37,1.519-.764,2.272-1.158-.478,1.355-.907,2.709-1.327,4.01C504.021,223.143,500.312,225.474,496.493,227.681Zm17.218-11.115q-2.388,1.7-4.806,3.327c.643-1.4,1.341-2.8,2-4.221q2.08-1.149,4.113-2.385C514.551,214.38,514.125,215.493,513.711,216.565Zm7.007-5.034q-2.737,1.978-5.477,3.939c.375-.762.727-1.538,1.122-2.291.2-.372.4-.74.6-1.11q2.514-1.6,4.969-3.295C521.534,209.708,521.135,210.634,520.718,211.531Zm7.848-5.65q-3.028,2.171-6.044,4.349c.608-1,1.2-2.023,1.731-3.071q2.5-1.776,4.96-3.595a.655.655,0,0,0,.133-.148C529.067,204.233,528.8,205.054,528.566,205.881Zm-.294-3.335c-.963.719-1.949,1.4-2.925,2.1a14.666,14.666,0,0,0,.535-1.862q2.543-1.611,5.081-3.23a26.348,26.348,0,0,0-1.5,3.538A.756.756,0,0,0,528.272,202.546Zm1.369,2.565c.853-2.109,1.776-4.19,2.534-6.332,1.673-1.079,3.319-2.193,4.981-3.288a55.94,55.94,0,0,0-2.715,5.9.367.367,0,0,0,0,.311Q532.035,203.4,529.64,205.111Zm11.911-10.063c-.265.625-.54,1.243-.847,1.831a.47.47,0,0,0,.008.472q-2.633,1.8-5.246,3.626a29.982,29.982,0,0,0,2.7-6.143l0-.008c1.231-.816,2.476-1.611,3.7-2.441.365-.248.76-.5,1.146-.746q-.526,1.163-1.01,2.351c-.152.127-.307.248-.461.371A.428.428,0,0,0,541.551,195.048Zm.574,1.351c.317-.552.64-1.121.95-1.7.333-.148.663-.3.978-.47.57-.31,1.26-.621,1.325-1.327a.584.584,0,0,0-.4-.569,1.047,1.047,0,0,0-.8.068,12.51,12.51,0,0,0,.6-1.9,45.518,45.518,0,0,0,4.121-2.852c-.863,1.885-1.353,3.9-2.28,5.764Q544.362,194.888,542.125,196.4Zm6.036-3.989a13.586,13.586,0,0,0,.907-2.115c0,.5,0,1.014.037,1.5C548.788,192,548.476,192.208,548.161,192.41Zm1.05-4.972a.191.191,0,0,0-.031,0l.032-.024ZM515.8,174.821q-19.861-4.4-39.7-8.9c-28.611-6.486-57.191-14.334-86.172-18.915,4.258-9.041,5.837-20.333,8.337-30q4.072-15.744,8.113-31.494c5.354-20.79,11.1-41.467,16.529-62.228,9.546,2.162,19.336,3,28.952,4.816,14.986,2.837,29.969,5.676,44.988,8.33,28.561,5.047,85.3,14.194,85.327,14.2-7.586,21.4-10.962,44.575-15.949,66.662-2.6,11.524-5.2,23.052-7.885,34.557-2.348,10.053-5.92,20.414-7.387,30.67C539.426,179.355,527.464,177.4,515.8,174.821Zm52.477-45.1c-.415.466-.774,1-1.143,1.489q-.887,1.173-1.773,2.347,1-4.339,1.989-8.682a9.888,9.888,0,0,0,1.888-1.6,10.251,10.251,0,0,0,.7-.852Q569.114,126.069,568.274,129.716Zm-2.723,11.85a.25.25,0,0,0-.1.021,5.8,5.8,0,0,0-1.818,1.781l-.8,1.029q1.023-4.365,2.041-8.732a.44.44,0,0,0,.385-.161l2.343-2.8Q566.578,137.135,565.551,141.567Zm-6.206,25.446a6.407,6.407,0,0,0-1.059,1.437,12.273,12.273,0,0,1-1.123,1.35c.837-3.549,1.579-7.136,2.321-10.671l1.726-1.582c.241-.221.519-.422.732-.652C561.107,160.271,560.229,163.642,559.346,167.013Zm-6.8,19.424c-.567-.037-1.164-.105-1.745-.091-.011-.131-.027-.26-.042-.389a7.638,7.638,0,0,1,.889-.689c.47.376.916.811,1.388,1.2C552.868,186.457,552.7,186.447,552.542,186.437Zm2.229-.55a4.807,4.807,0,0,0-.525-.4.372.372,0,0,0,.162-.149c.254-.428.517-.848.756-1.282C555.032,184.664,554.893,185.274,554.771,185.887Zm.768-3.583a.219.219,0,0,0-.131.062,12.425,12.425,0,0,0-1.7,2.558.393.393,0,0,0-.055.178c-.086-.05-.171-.107-.254-.153-.246-.138-.5-.276-.756-.4.913-2.188,1.692-4.472,2.4-6.8a.492.492,0,0,0,.821.245c.294-.294.59-.587.884-.879Q556.117,179.707,555.538,182.3Zm.937-6.343-1.27,1.286c.622-2.073,1.178-4.185,1.7-6.317a.38.38,0,0,0,.4-.086,14.117,14.117,0,0,0,1.463-1.6c-.524,2.007-1.044,4.015-1.548,6.027A5.009,5.009,0,0,0,556.475,175.961Zm6.387-22.838c-.213.913-.445,1.825-.668,2.738a.335.335,0,0,0-.181-.133c-.726-.162-1.154.534-1.621,1l-.5.5c.4-1.861.8-3.705,1.228-5.511.417-1.758.819-3.519,1.233-5.279a.428.428,0,0,0,.254-.151q.945-1.136,1.894-2.269c.246-.3.475-.571.684-.857Q564.022,148.144,562.862,153.123Zm7.613-33.08c-.047.216-.1.432-.147.647a.376.376,0,0,0-.4-.161c-.745.138-1.188,1.312-1.6,1.872-.171.232-.372.433-.561.649q.785-3.429,1.572-6.857c.425-1.862.868-3.725,1.307-5.587a7.669,7.669,0,0,0,2.248-2.044c.044-.054.09-.109.137-.164C572.185,112.282,571.343,116.166,570.476,120.043Z" fill="#020536"/>
      <path id="Path_6748" data-name="Path 6748" d="M431.08,141.469c-1.581,1.656-2.565,4.091-3.683,6.075a.235.235,0,0,0,.406.238c1.254-1.9,2.962-3.89,3.714-6.057A.263.263,0,0,0,431.08,141.469Z" transform="translate(74.31 74.767)" fill="#020536"/>
      <path id="Path_6749" data-name="Path 6749" d="M525.533,107.116c4-15.395,9.4-30.825,12.387-46.538.346-1.812,1.6-7.133.708-7.4-11.175-3.356-23.577-4.33-35.082-6.275q-18.671-3.156-37.338-6.32-18.125-3.073-36.252-6.138c-11.282-1.9-23.1-4.91-34.628-5.561-.941-.054-3.441-.13-3.536-.13-.239,0-1.655,4.4-2.434,6.418-5.449,14.107-9.032,29.365-13.127,43.772-4.541,15.972-9.982,32.464-12.4,48.918-.152,1.03,3.235,1.246,4.877,1.585,10.721,2.213,21.8,5.047,32.365,7.409q18.486,4.132,36.982,8.225,17.943,3.986,35.887,7.983c11.75,2.615,23.962,6.494,35.94,7.624a3.127,3.127,0,0,0,2.067-1.228c2.852-8.348,4.494-17.235,6.7-25.78Q522.075,120.393,525.533,107.116Zm-15.7,51.2q-18.258-3.84-36.255-7.779-18.515-4.034-37.027-8.077-17.965-3.923-35.933-7.835c-11.327-2.456-22.837-5.77-34.548-7.978,5.307-15.933,8.237-31.862,12.634-48.083,4.42-16.3,10.207-31.633,13.58-48.177,12.854,2.1,24.451,3.864,36.218,5.918q17.706,3.09,35.418,6.147,18.123,3.139,36.245,6.288c12.3,2.136,24.212,5.577,36.687,6.237-5.16,17.956-9.241,35.869-14.076,53.59C518.293,125,513.551,141.666,509.837,158.311Z" transform="translate(35.167 4.677)" fill="#020536"/>
      <path id="Path_6750" data-name="Path 6750" d="M323.056,127.562a19.019,19.019,0,0,0-6.072-.644.378.378,0,0,0-.115.68,24.247,24.247,0,0,0,6.043,1.9c1.8.461,3.809,1.439,5.65.939a.608.608,0,0,0,.3-.994C327.409,128.036,324.981,127.943,323.056,127.562Z" transform="translate(6.135 65.714)" fill="#020536"/>
      <path id="Path_6751" data-name="Path 6751" d="M334.143,129.966c-2.117-.393-4.4-.873-6.516-.277a.377.377,0,0,0-.027.72c2,.847,4.271.933,6.369,1.478,1.668.433,3.476,1.557,5.181,1.046a.581.581,0,0,0,.373-.831C338.377,130.435,336.021,130.315,334.143,129.966Z" transform="translate(12.693 67.308)" fill="#020536"/>
      <path id="Path_6752" data-name="Path 6752" d="M405.6,131.454c-9.5-3.029-19.936-6.361-29.948-6.9a14.5,14.5,0,0,0-2.217,1.158,155.373,155.373,0,0,0-16.67,10.613.73.73,0,0,0,.273,1.223l16.793,4.294c3.948,1.011,8.667,3.061,12.746,3.1,3.336.031,5.671-2.828,8.239-4.583.317-.216.637-.423.955-.638l0,0c3.276-2.2,6.623-4.268,9.779-6.648.013-.01.016-.023.029-.034A.832.832,0,0,0,405.6,131.454Zm-33.4,8.479c-.36-.1-.721-.2-1.076-.29l-8.4-2.141c-2.133-.543-4.6-.574-1.984-2.266.868-.56,2.177-1.5,3.04-2.076.632-.423.992-.638,1.631-1.053,3.877,1.387,8.161,2.394,12.208,3.488a11.609,11.609,0,0,0-2.222,1.535A14.079,14.079,0,0,0,372.2,139.933Zm18.965,1.368c-5.428,3.066-11.964.668-17.862-1.054.861-.615,1.632-1.46,2.439-2.107a12,12,0,0,0,2.734-2.317c5.189,1.381,10.437,2.589,15.59,3.751C393.1,140.173,392.133,140.755,391.167,141.3Zm4.674-2.855a.724.724,0,0,0-.21-.1c-9.483-2.5-19.141-5.339-28.784-7.188,3.027-1.95,6.075-3.867,9-5.97,5.2,1.385,9.11,2.331,13.559,3.548,4.824,1.32,9.635,2.7,14.467,3.991C401.321,134.682,398.606,136.643,395.841,138.445Z" transform="translate(30.673 64.285)" fill="#020536"/>
      <path id="Path_6753" data-name="Path 6753" d="M505.889,137.582a.573.573,0,0,0-.168-.342.79.79,0,0,0-.41-.284c-2.807-1.63-8.324-2.43-11.849-3.3q-15.813-3.888-31.648-7.67c-24.858-5.967-49.728-11.9-74.676-17.479-5.777-1.293-11.88-3.124-17.892-3.731a21.158,21.158,0,0,0-3.387-.209c-.053.024-.105.05-.158.076-.011.008-.029.008-.039.018-5.438,2.578-10.787,5.345-16.06,8.244-4.051,2.229-8.832,4.309-12.366,7.428-.191.167-1.265.986-1.144,1.024.191.057.96.315,1.125.352,41.136,9.247,81.754,20.028,122.582,30.563,3.893,1,7.781,2.028,11.673,3.042,1.008.263,4.614.9,4.624.91.562.37,2.915-1.538,3.885-2.041,3.531-1.831,6.83-4.606,10.007-6.706a143.24,143.24,0,0,1,15.516-9.084A.688.688,0,0,0,505.889,137.582Zm-17.371-3.147c1.374.337,2.746.681,4.119,1.022-2.1,1.178-4.15,2.49-6.177,3.843-.907-.182-1.786-.365-2.584-.573-1.634-.425-3.269-.842-4.9-1.265a65.448,65.448,0,0,0,5.588-4Q486.54,133.949,488.518,134.435Zm-28.64,4.753q-4.145-1.085-8.294-2.162c.213-.135.428-.274.64-.409,1.692-1.071,3.424-2.128,5.147-3.205q4.053,1.037,8.1,2.08C463.61,136.741,461.753,138,459.878,139.188Zm7.5-3.21c2.675.688,5.354,1.368,8.029,2.059-1.862,1.27-3.714,2.549-5.588,3.742l-.034.021q-4.123-1.09-8.245-2.175l.186-.12C463.581,138.327,465.488,137.169,467.375,135.978Zm-17.3.519c-.052.031-.105.062-.157.094l-5.176-1.35c-.745-.193-1.49-.384-2.235-.579.108-.067.218-.136.326-.2,1.8-1.123,3.652-2.231,5.483-3.369,2.4.61,4.787,1.23,7.18,1.841C453.69,134.14,451.892,135.355,450.073,136.5Zm-9.246-2.269-7.1-1.84c1.852-1.192,3.753-2.365,5.63-3.57q3.529.893,7.061,1.784C444.555,131.832,442.7,133.066,440.828,134.228Zm-8.757-2.268q-3.428-.888-6.857-1.773c1.863-1.165,3.772-2.315,5.66-3.5q3.292.83,6.584,1.653C435.66,129.561,433.872,130.792,432.07,131.96Zm-8.539-2.2q-3.554-.915-7.112-1.823c1.873-1.145,3.783-2.278,5.668-3.45q3.433.859,6.862,1.723C427.143,127.4,425.344,128.608,423.531,129.755Zm-8.811-2.26q-3.406-.871-6.812-1.744c1.862-1.131,3.753-2.252,5.613-3.42,2.22.553,4.438,1.116,6.657,1.671C418.361,125.181,416.55,126.366,414.72,127.5Zm-8.528-2.175q-3.67-.932-7.342-1.851c1.857-1.132,3.748-2.252,5.609-3.416q2.606.659,5.207,1.311c.643.161,1.285.324,1.93.485C409.794,123.013,408,124.191,406.192,125.32Zm-9.055-2.282c-2.426-.608-4.848-1.225-7.276-1.83,1.871-1.14,3.777-2.269,5.653-3.442q3.52.9,7.035,1.8C400.748,120.736,398.951,121.912,397.137,123.038Zm-9-2.253c-2.511-.623-5.026-1.235-7.537-1.851,1.907-1.16,3.843-2.308,5.745-3.51q3.634.92,7.263,1.853C391.785,118.455,389.97,119.646,388.137,120.784Zm-9.27-2.276c-2.248-.552-4.494-1.113-6.744-1.658l-.071-.018c1.917-1.161,3.858-2.32,5.766-3.528q3.3.8,6.6,1.632C382.57,116.132,380.728,117.345,378.868,118.508Zm-8.535-2.109c-2.366-.6-4.775-1.259-7.206-1.866,1.834-1.111,3.691-2.218,5.519-3.369q3.612.81,7.221,1.674C374.019,114.029,372.185,115.24,370.333,116.4Zm-1.227.761c-.031.019-.06.039-.091.057-1.74,1.058-3.528,2.068-5.306,3.092-2.295-.563-4.64-1.21-7.007-1.822,1.692-1.024,3.361-2.075,5.015-3.094Q365.415,116.25,369.106,117.16Zm1.711.425q3.379.847,6.754,1.724c-1.749,1.059-3.539,2.073-5.323,3.1q-3.309-.815-6.616-1.629C367.382,119.727,369.108,118.638,370.818,117.585Zm8.442,2.166q3.7.964,7.386,1.939c-1.7,1.019-3.436,2.005-5.163,3q-3.653-.91-7.31-1.809C375.891,121.85,377.584,120.786,379.26,119.751Zm9.087,2.388q3.585.947,7.167,1.882c-1.66.99-3.347,1.952-5.028,2.925q-3.542-.891-7.082-1.771C385.073,124.176,386.718,123.148,388.347,122.139Zm8.885,2.326c1.3.337,2.61.678,3.916,1.011,1.123.286,2.245.579,3.368.865-1.639.981-3.308,1.934-4.973,2.9q-3.566-.908-7.133-1.81C394.038,126.454,395.642,125.45,397.233,124.465Zm9,2.317c2.261.576,4.518,1.163,6.778,1.741-1.639.97-3.3,1.917-4.952,2.878-2.2-.565-4.4-1.119-6.6-1.679C403.065,128.753,404.655,127.757,406.229,126.782Zm8.51,2.187q3.551.91,7.1,1.825c-1.618.98-3.258,1.94-4.9,2.9q-3.488-.9-6.978-1.8C411.579,130.936,413.167,129.945,414.74,128.968Zm8.817,2.265q3.432.883,6.862,1.763c-1.6.994-3.226,1.966-4.851,2.943q-3.35-.876-6.7-1.744C420.449,133.22,422.012,132.218,423.557,131.233Zm8.56,2.2q3.5.908,7.007,1.815c-1.658.988-3.337,1.956-5.008,2.943q-3.328-.881-6.658-1.754C429.034,135.454,430.585,134.435,432.117,133.433Zm8.738,2.269c2.448.638,4.9,1.288,7.345,1.929-1.658,1-3.331,1.981-5,2.978q-3.578-.956-7.158-1.911C437.672,137.724,439.272,136.706,440.855,135.7Zm9.076,2.383q4.114,1.075,8.226,2.159c-1.674,1.017-3.37,2.012-5.06,3.021q-3.988-1.08-7.983-2.143C446.744,140.137,448.348,139.106,449.931,138.085Zm9.936,2.608c2.736.72,5.475,1.429,8.21,2.154-1.7,1.041-3.426,2.067-5.144,3.1q-3.968-1.088-7.938-2.169C456.643,142.777,458.265,141.727,459.867,140.694Zm9.928,2.605c.6.157,1.2.311,1.792.47,1.889.5,3.777,1.012,5.664,1.518-1.75,1.053-3.51,2.1-5.259,3.163q-3.568-.99-7.137-1.974C466.528,145.445,468.17,144.363,469.794,143.3Zm6.253.154c-1.538-.409-3.08-.811-4.619-1.218.171-.112.343-.225.514-.334,1.76-1.132,3.571-2.239,5.37-3.374.566.148,1.133.289,1.7.436,1.907.495,3.812,1,5.718,1.5-1.719,1.16-3.434,2.321-5.167,3.415-.144.091-.294.177-.438.268C478.038,143.924,476.992,143.7,476.047,143.453Zm-1.571-12.462q4.346,1.063,8.691,2.132c-2.1,1.163-4.149,2.474-6.167,3.832q-3.98-1.027-7.962-2.054a61.261,61.261,0,0,0,5.43-3.9Zm-1.243-.3c-2.09,1.127-4.119,2.4-6.125,3.721q-4.034-1.032-8.066-2.055a65.577,65.577,0,0,0,5.375-3.817Q468.825,129.611,473.233,130.686Zm-10.2-2.488c-2.015,1.124-3.982,2.372-5.928,3.66q-2.092-.531-4.182-1.064-1.479-.377-2.959-.749a60.651,60.651,0,0,0,5.273-3.744Q459.133,127.246,463.031,128.2Zm-9.129-2.221c-2,1.1-3.954,2.315-5.886,3.574q-3.529-.9-7.061-1.788a62.687,62.687,0,0,0,5.087-3.689Q449.975,125.023,453.9,125.977Zm-9.132-2.211c-1.954,1.066-3.854,2.263-5.731,3.512q-3.263-.825-6.527-1.647a61.2,61.2,0,0,0,5.045-3.6Q441.164,122.9,444.769,123.766Zm-16.1-3.869q3.772.9,7.542,1.81c-1.92,1.056-3.8,2.226-5.651,3.436q-3.42-.859-6.841-1.715a57.972,57.972,0,0,0,4.929-3.506C428.66,119.915,428.662,119.905,428.672,119.9Zm-8.9-2.115q3.83.91,7.659,1.819c-1.909,1.033-3.772,2.172-5.617,3.352q-3.345-.837-6.692-1.671a54.948,54.948,0,0,0,4.5-3.227A.372.372,0,0,0,419.772,117.782Zm-1.017-.24c-1.884,1-3.722,2.115-5.542,3.27q-3.6-.891-7.195-1.771a57.216,57.216,0,0,0,4.756-3.39Q414.765,116.592,418.756,117.542Zm-9.257-2.19c-1.831,1-3.622,2.088-5.393,3.217q-3.571-.874-7.141-1.747c1.6-1.043,3.179-2.127,4.659-3.313Q405.563,114.428,409.5,115.352Zm-9.187-2.151c-1.789.981-3.541,2.052-5.275,3.158q-3.7-.9-7.411-1.78a56.017,56.017,0,0,0,4.565-3.264Q396.251,112.255,400.311,113.2Zm-9.4-2.18c-1.766.962-3.5,2.01-5.209,3.1-1.749-.417-3.5-.845-5.246-1.259-.472-.112-.95-.234-1.427-.352,1.538-1.009,3.048-2.052,4.468-3.2Q387.2,110.161,390.911,111.02Zm-8.706-2.007c-1.721.939-3.407,1.96-5.074,3.019-2.34-.6-4.712-1.226-7.1-1.78,1.463-.96,2.9-1.956,4.255-3.037Q378.243,108.114,382.2,109.014Zm-15.238-3.455q2.982.669,5.965,1.351c-1.652.91-3.269,1.895-4.872,2.914a53.246,53.246,0,0,0-7.242-1.046C362.741,107.829,366.91,105.717,366.967,105.558Zm-7.154,3.715q3.43.686,6.849,1.444c-1.758,1.136-3.509,2.287-5.273,3.394a59.99,59.99,0,0,0-8.315-1.416Q356.426,110.947,359.812,109.273Zm-9.54,4.893c.567-.3,1.138-.6,1.707-.9,2.667.54,5.327,1.121,7.985,1.724-1.7,1.03-3.439,2.018-5.173,3.016a62.4,62.4,0,0,0-8.436-1.559C347.669,115.65,348.973,114.863,350.273,114.166Zm-12.032,6.71c2.337-1.462,4.685-2.344,7.059-3.785q4.031.822,8.051,1.755c-1.931,1.132-3.833,2.308-5.64,3.6C344.474,121.694,341.585,121.407,338.241,120.875Zm10.5,1.825a59.8,59.8,0,0,0,6.592-3.4q3.566.842,7.125,1.734c-1.973,1.153-3.914,2.352-5.757,3.676C354.1,124.069,351.433,123.352,348.742,122.7Zm9.368,2.359c-.129-.031-.262-.067-.391-.1a59.676,59.676,0,0,0,6.663-3.434q3.248.83,6.493,1.685c-1.905,1.119-3.782,2.281-5.564,3.562C362.91,126.206,360.512,125.622,358.111,125.059Zm8.218,1.96a58.576,58.576,0,0,0,6.45-3.3q3.576.949,7.143,1.9c-1.8,1.066-3.572,2.166-5.251,3.389Q370.5,128,366.328,127.019Zm9.276,2.213a55.5,55.5,0,0,0,6.19-3.111q3.486.932,6.969,1.849c-1.716,1.022-3.412,2.078-5.02,3.244Q379.676,130.221,375.6,129.231Zm9.087,2.214a54.81,54.81,0,0,0,5.949-2.987c.84.221,1.681.443,2.521.66,1.524.393,3.046.793,4.57,1.187-1.668.99-3.308,2.016-4.876,3.136Q388.776,132.438,384.692,131.446Zm16.806,4.137q-3.791-.942-7.584-1.88a57.235,57.235,0,0,0,5.706-2.905q3.294.852,6.584,1.711c-1.6.965-3.19,1.956-4.693,3.055C401.5,135.568,401.506,135.576,401.5,135.582Zm.894.222a53.349,53.349,0,0,0,5.677-2.813q3.51.912,7.02,1.825c-1.574.952-3.121,1.942-4.611,3Q406.435,136.805,402.391,135.8Zm9.25,2.3A55.389,55.389,0,0,0,417,135.313c2.248.586,4.5,1.165,6.744,1.752-1.522.941-3.022,1.913-4.464,2.954Zm8.717,2.185a50.082,50.082,0,0,0,5.262-2.738l6.673,1.749c-1.5.917-2.975,1.861-4.383,2.889Q424.136,141.24,420.359,140.292Zm12.875,3.238-4.363-1.1a50.245,50.245,0,0,0,5.294-2.634q3.626.951,7.251,1.913c-1.443.9-2.868,1.819-4.229,2.821Q435.211,144.029,433.234,143.53Zm4.868,1.231a48,48,0,0,0,5.171-2.561l8.087,2.135c-1.416.871-2.805,1.771-4.148,2.732Q442.656,145.91,438.1,144.761Zm10.244,2.592a52.053,52.053,0,0,0,4.889-2.524q4.039,1.068,8.077,2.132c-1.375.855-2.725,1.742-4.032,2.678Q452.812,148.5,448.346,147.353Zm16.369,4.19q-3.125-.805-6.251-1.6a50.543,50.543,0,0,0,4.75-2.48l.286.075c2.345.623,4.716,1.2,7.088,1.781-1.361.855-2.7,1.731-3.988,2.675C465.932,151.843,465.294,151.694,464.715,151.543Zm11.755,3.321a44.126,44.126,0,0,0-8.893-2.649,48.1,48.1,0,0,0,4.9-2.433c2.721.662,5.432,1.343,8.114,2.075A29.165,29.165,0,0,0,476.47,154.864Zm5.16-3.73c-2.589-.727-5.181-1.442-7.772-2.164,1.737-1.033,3.444-2.127,5.128-3.219,1.382.372,2.765.735,4.145,1.111.9.245,2.776.443,4,.769C485.32,148.769,483.434,149.91,481.631,151.134Zm7.686-4.917c-.368.25-.751.495-1.133.74a23.875,23.875,0,0,0-7.276-2.446c.278-.178.558-.36.834-.537,1.59-1.012,3.216-2.015,4.837-3.029q2.189.574,4.378,1.147c.823.217,2.476.389,3.654.664Q491.942,144.447,489.317,146.218Zm6.416-4.167a24.369,24.369,0,0,0-7.208-2.338c1.9-1.226,3.753-2.516,5.5-3.91q3.117.776,6.236,1.549c.527.13,1.734.35,2.789.537C500.553,139.175,498.118,140.569,495.732,142.05Z" transform="translate(18.074 51.83)" fill="#020536"/>
      <path id="Path_6754" data-name="Path 6754" d="M480.618,56.939a.573.573,0,0,0-.356-.552c-10.978-4.729-24.212-5.892-35.853-8.408-6.6-1.428-13.2-2.888-19.81-4.257-5.155-1.069-10.79-2.961-16.093-2.832a.943.943,0,0,0-1.32.589c-3.888,11.174-6.38,22.989-9.422,34.42-2.81,10.564-6.744,21.425-8.037,32.3a.659.659,0,0,0,.058,1.113c4.666,2.4,10.5,3.016,15.579,4.185,6.8,1.565,13.63,3.04,20.448,4.544,11.673,2.573,24.278,7.1,36.273,7.409a.626.626,0,0,0,.919-.255c4.341-10.58,6.435-22.452,9.415-33.494,3-11.124,6.67-22.343,8.654-33.7A.989.989,0,0,0,480.618,56.939ZM469.9,92.229c-2.718,10.364-6.485,21.027-7.8,31.7-10.951-4.62-24.025-5.911-35.563-8.513-6.471-1.46-12.937-2.948-19.422-4.348-5.167-1.114-10.833-3.042-16.172-3.027,4.139-9.975,6.194-21.131,9.044-31.531,3.062-11.19,6.779-22.455,8.956-33.862,4.3,1.887,9.355,2.48,13.89,3.491,6.941,1.548,13.9,2.99,20.862,4.458,11.435,2.414,23.692,6.643,35.432,7.091C475.375,68.942,472.9,80.759,469.9,92.229Z" transform="translate(50.953 12.173)" fill="#24ca6c"/>
      <path id="Path_6755" data-name="Path 6755" d="M410.525,48.261a.916.916,0,0,0-1.618.347c-2.485,8.442-3.984,17.251-5.818,25.86-1.6,7.493-3.99,15.2-4.423,22.862a.675.675,0,0,0,.142,1.092c7.788,3.326,16.7,4.333,24.946,6.176,8.088,1.809,16.526,4.515,24.839,4.829a.915.915,0,0,0,1.616-.347c2.487-8.444,3.984-17.251,5.818-25.861,1.6-7.491,3.99-15.2,4.425-22.86a.676.676,0,0,0-.144-1.092c-7.788-3.326-16.7-4.333-24.946-6.177C427.276,51.281,418.838,48.575,410.525,48.261Zm19.265,6.471a5.32,5.32,0,0,1-5.7,2.842c-2.891-.376-5.083-2.784-6.156-5.357C421.836,53.223,425.842,53.971,429.79,54.732Zm18.654,53.081c-7.55-3.027-16.056-4.124-23.971-5.835-7.993-1.729-16.285-4.453-24.487-4.841a98.413,98.413,0,0,0,4.153-16.208c8.751.36,17.458.706,26.083,2.393,7.587,1.484,14.664,4.036,21.951,6.461C450.775,95.762,449.364,101.765,448.445,107.812ZM453.5,84.043q-.456,2.032-.932,4.065a109.077,109.077,0,0,0-48.1-8.828c.372-1.9.745-3.791,1.159-5.639.818-3.663,1.7-7.336,2.544-11.018a66.559,66.559,0,0,1,6.385,5.95c1.723,1.89,3.993,6.072,6.421,7.107,2.5,1.071,2.873-.055,5.372-1.64,1.556-.988,4.915-3.45,6.66-3.29,3.284.3,5.682,4.049,7.932,5.709.937.691.659,1.368,1.968,1.635.743.154.667-.187,1.4-.4a22.657,22.657,0,0,0,2.594-1.935,22.679,22.679,0,0,1,9.027-3.725C455.074,76.07,454.368,80.147,453.5,84.043Zm2.77-13.554a17.373,17.373,0,0,0-6.388,1.406c-1.9.826-3.783,2.868-5.924,3.128-2.692.328-3.012-2.127-5-4.041a7.644,7.644,0,0,0-3.373-2.321c-1.844-.4-3.9.608-5.517,1.3-1.692.725-5.2,3.94-6.805,4-3.156.112-6.529-5.418-8.488-7.362a22.085,22.085,0,0,0-6.434-4.732c.9-3.981,1.724-7.978,2.334-11.993a57.514,57.514,0,0,0,6.311,2.088.529.529,0,0,0-.145.565c1.036,3.593,3.775,6.567,7.657,6.844,2.9.208,6.319-1.376,7.279-4.252.963.191,1.922.386,2.87.59,7.995,1.729,16.287,4.453,24.487,4.841A71.217,71.217,0,0,0,456.267,70.49Z" transform="translate(56.5 16.598)" fill="#24ca6c"/>
      <path id="Path_6756" data-name="Path 6756" d="M409.868,72.772c-1.367-.513-2.82-.172-4.234-.029-1.088.109-1,1.83.09,1.7,1.4-.161,2.961-.118,4.176-.908A.448.448,0,0,0,409.868,72.772Z" transform="translate(60.447 31.898)" fill="#24ca6c"/>
      <path id="Path_6757" data-name="Path 6757" d="M410.892,76.241c-1.377-.122-.911,1.879.069,1.441a2.729,2.729,0,0,0,1.062-.613.4.4,0,0,0-.105-.612A2.3,2.3,0,0,0,410.892,76.241Z" transform="translate(63.632 34.223)" fill="#24ca6c"/>
      <path id="Path_6758" data-name="Path 6758" d="M415.739,77.893c-.6.238-.111,1.126.36.766.6-.461,1.217-.915,1.81-1.392.087-.07.032-.237-.091-.191C417.119,77.331,416.431,77.618,415.739,77.893Z" transform="translate(66.977 34.74)" fill="#24ca6c"/>
      <path id="Path_6759" data-name="Path 6759" d="M417.362,71.91a5.469,5.469,0,0,0-2.6.094.815.815,0,1,0,.294,1.6,5.65,5.65,0,0,0,2.5-1.072C417.786,72.323,417.6,71.983,417.362,71.91Z" transform="translate(66.097 31.451)" fill="#24ca6c"/>
      <path id="Path_6760" data-name="Path 6760" d="M421.979,75.436l.856-.071c.944-.078,1.146-1.565.139-1.728l-.839-.135C420.7,73.272,420.585,75.55,421.979,75.436Z" transform="translate(70.387 32.512)" fill="#24ca6c"/>
      <path id="Path_6761" data-name="Path 6761" d="M421.07,79.973c.6.006,1.8.54,2.043-.347.267-.981-1.236-1.379-1.9-1.481A.921.921,0,1,0,421.07,79.973Z" transform="translate(69.859 35.401)" fill="#24ca6c"/>
      <path id="Path_6762" data-name="Path 6762" d="M424.65,81.961a.819.819,0,0,0,.349-1.6A.819.819,0,0,0,424.65,81.961Z" transform="translate(72.258 36.776)" fill="#24ca6c"/>
      <path id="Path_6763" data-name="Path 6763" d="M428.17,77.131c.283-.152.569-.3.84-.47a.935.935,0,0,0-.546-1.7c-.333-.024-.664-.019-1-.019C425.664,74.935,426.3,78.124,428.17,77.131Z" transform="translate(73.714 33.414)" fill="#24ca6c"/>
      <path id="Path_6764" data-name="Path 6764" d="M409.12,53.737c-.732.216-2.9,1.041-2.393,2.171.184.414.65.4,1.012.25a15.91,15.91,0,0,1,1.873-.9C410.6,54.986,410.107,53.444,409.12,53.737Z" transform="translate(61.55 20.201)" fill="#24ca6c"/>
      <path id="Path_6765" data-name="Path 6765" d="M413.287,57.438c-.451,1.293-1.115,2.92-.722,4.3a.359.359,0,0,0,.651.057c.758-1.095.892-2.644,1.357-3.884A.688.688,0,1,0,413.287,57.438Z" transform="translate(65.119 22.204)" fill="#24ca6c"/>
      <path id="Path_6766" data-name="Path 6766" d="M417.879,58c.373.6.69,1.432,1.385,1.7a.342.342,0,0,0,.486-.227c.128-.787-.443-1.5-.8-2.164C418.571,56.594,417.441,57.3,417.879,58Z" transform="translate(68.406 22.261)" fill="#24ca6c"/>
      <path id="Path_6767" data-name="Path 6767" d="M425.343,57.626a.4.4,0,0,0,.145-.66c-.748-.795-1.834-1.089-2.673-1.778-.813-.668-1.926.552-1.105,1.2C422.713,57.188,424.019,58.1,425.343,57.626Z" transform="translate(70.649 21.005)" fill="#24ca6c"/>
      <path id="Path_6768" data-name="Path 6768" d="M403.688,46.443a1.244,1.244,0,0,0,0-2.485A1.244,1.244,0,0,0,403.688,46.443Z" transform="translate(58.988 14.139)" fill="#24ca6c"/>
      <path id="Path_6769" data-name="Path 6769" d="M406.636,47.126a1.278,1.278,0,0,0,0-2.555A1.278,1.278,0,0,0,406.636,47.126Z" transform="translate(60.782 14.52)" fill="#24ca6c"/>
      <path id="Path_6770" data-name="Path 6770" d="M409.728,47.76a1.278,1.278,0,0,0,0-2.555A1.278,1.278,0,0,0,409.728,47.76Z" transform="translate(62.688 14.915)" fill="#24ca6c"/>
      <path id="Path_6771" data-name="Path 6771" d="M449.024,90.922q-.875-.835-1.75-1.671c-.079-.076-.162-.165-.244-.256.449-.268.9-.537,1.332-.8a.9.9,0,0,0-.21-1.616,21.675,21.675,0,0,1-5.344-2.033.841.841,0,0,0-1.254.722,45.147,45.147,0,0,1-.069,4.769.668.668,0,0,0,.192.552c-.048.047-.107.086-.155.135a.422.422,0,0,0,.407.7,15.752,15.752,0,0,0,2.56-1.045,40.912,40.912,0,0,1,1.21,4.678.692.692,0,0,0,1.251.164,4.172,4.172,0,0,1,1.926-1.526,2.6,2.6,0,0,0,1.138-.53C450.768,92.283,449.6,91.469,449.024,90.922ZM444.56,88.4c-.514.326-1.015.668-1.5,1.028.081-.928.126-1.857.141-2.787a22.93,22.93,0,0,0,2.521,1.046c-.1.062-.205.128-.309.19A.954.954,0,0,0,444.56,88.4Zm4.148,3.984c-.453.347-1.172.456-1.665.818a3.984,3.984,0,0,0-.325.289,16.059,16.059,0,0,0-1.475-3.475c.205-.109.4-.229.606-.342.53.438,1.075,1.116,1.349,1.371l.89.821.533.492Q449.113,92.282,448.709,92.38Z" transform="translate(82.958 39.331)" fill="#020536"/>
    </g>
    <g id="Group_3206" data-name="Group 3206" transform="translate(-167.154 994.009)">
      <g id="Group_3183" data-name="Group 3183" transform="translate(622.842 263.991)">
        <path id="Path_6772" data-name="Path 6772" d="M690.344,322.384a1.235,1.235,0,0,1-.572-.141,1.283,1.283,0,0,1-.554-1.72c9.3-18.453-11.434-31.628-21.4-37.959-4.069-2.586-5.44-3.457-5.389-4.787.115-2.014.178-3.573.207-4.778-.076.219-.146.43-.214.628-1.736,5.087-2.555,7.124-4.185,7-1.421-.12-1.7-1.851-1.823-2.59-.62-3.793-1.14-6.7-1.562-8.689a.272.272,0,0,0-.005.05c-.9,4.74-2,10.642-5.527,11.262-6.427,1.194-19.923,13.038-23.766,24.819-1.9,5.832-1.163,10.631,2.2,14.263a1.29,1.29,0,0,1-.06,1.807,1.255,1.255,0,0,1-1.79-.061c-3.982-4.3-4.929-10.117-2.747-16.81,4-12.257,17.717-25.048,25.723-26.535,1.81-.32,2.942-6.333,3.485-9.224.641-3.39.835-4.874,2.415-4.927,1.412.016,1.982.6,3.942,12.467.459-1.156.954-2.612,1.314-3.664,1.515-4.442,2.063-6.1,3.662-5.8,1.365.273,1.807,1.211,1.283,10.548a41.305,41.305,0,0,0,4.189,2.854c9.772,6.209,32.661,20.749,22.306,41.286A1.261,1.261,0,0,1,690.344,322.384Z" transform="translate(-622.005 -263.991)" fill="#020536"/>
      </g>
      <g id="Group_3184" data-name="Group 3184" transform="translate(615.907 315.152)">
        <path id="Path_6773" data-name="Path 6773" d="M624.813,335.218a4.723,4.723,0,0,1-1.347-.2c-4.517-1.347-7.85-9.344-8.248-14.486-.251-3.24.587-5.494,2.357-6.342,2.419-1.169,5.895.495,10.617,5.06a1.29,1.29,0,0,1,.04,1.808,1.253,1.253,0,0,1-1.79.039c-5.468-5.288-7.436-4.766-7.785-4.6-.72.346-1.072,1.814-.915,3.834.37,4.751,3.411,11.327,6.442,12.229.382.112,1.573.473,3.1-1.558a1.257,1.257,0,0,1,1.774-.241,1.291,1.291,0,0,1,.238,1.794C627.738,334.621,626.14,335.218,624.813,335.218Z" transform="translate(-615.174 -313.826)" fill="#020536"/>
      </g>
      <g id="Group_3185" data-name="Group 3185" transform="translate(627.663 320.613)">
        <path id="Path_6774" data-name="Path 6774" d="M657.239,362.3a26.726,26.726,0,0,1-12.695-3.138c-11.323-6.091-17.643-19.843-17.792-38.727a1.274,1.274,0,0,1,1.253-1.289,1.323,1.323,0,0,1,1.274,1.27c.145,17.9,5.985,30.86,16.454,36.488,8.271,4.446,18.764,3.628,27.383-2.148,10.535-7.06,16.079-19.816,14.825-34.119a1.266,1.266,0,1,1,2.521-.227c1.336,15.253-4.628,28.891-15.952,36.479A31.149,31.149,0,0,1,657.239,362.3Z" transform="translate(-626.753 -319.145)" fill="#020536"/>
      </g>
      <g id="Group_3186" data-name="Group 3186" transform="translate(662.97 317.05)">
        <path id="Path_6775" data-name="Path 6775" d="M662.794,321.5a1.259,1.259,0,0,1-.823-.309,1.286,1.286,0,0,1-.135-1.8,10.535,10.535,0,0,1,7.963-3.712,6.962,6.962,0,0,1,5.471,2.674,1.286,1.286,0,0,1-.214,1.8,1.258,1.258,0,0,1-1.776-.217,4.462,4.462,0,0,0-3.538-1.7,7.953,7.953,0,0,0-5.988,2.819A1.255,1.255,0,0,1,662.794,321.5Z" transform="translate(-661.529 -315.675)" fill="#020536"/>
      </g>
      <g id="Group_3187" data-name="Group 3187" transform="translate(649.353 297.791)">
        <path id="Path_6776" data-name="Path 6776" d="M649.383,309.31a1.263,1.263,0,0,1-1.082-.617,1.285,1.285,0,0,1,.425-1.755c2.568-1.573,3.883-5.514,4.842-8.393l.258-.766a1.261,1.261,0,0,1,1.609-.795,1.282,1.282,0,0,1,.785,1.625l-.255.754c-1.083,3.251-2.572,7.7-5.925,9.76A1.254,1.254,0,0,1,649.383,309.31Z" transform="translate(-648.117 -296.915)" fill="#020536"/>
      </g>
      <g id="Group_3188" data-name="Group 3188" transform="translate(666.666 299.762)">
        <path id="Path_6777" data-name="Path 6777" d="M687.252,320.474a1.246,1.246,0,0,1-.666-.193c-1.76-1.107-3.275-2.034-4.6-2.849-8.069-4.943-9.521-5.833-16.6-16.613a1.287,1.287,0,0,1,.352-1.773,1.259,1.259,0,0,1,1.752.357c6.77,10.3,7.8,10.934,15.807,15.842,1.338.818,2.86,1.751,4.626,2.863a1.287,1.287,0,0,1,.406,1.762A1.255,1.255,0,0,1,687.252,320.474Z" transform="translate(-665.17 -298.835)" fill="#020536"/>
      </g>
      <g id="Group_3189" data-name="Group 3189" transform="translate(658.305 327.707)">
        <path id="Path_6778" data-name="Path 6778" d="M660.92,332.733l-.05,0a1.275,1.275,0,0,1-1.213-1.328c.044-1.139-.67-1.79-1.609-2.526a5.454,5.454,0,0,1-.813-.726,1.271,1.271,0,0,1,1.924-1.662,3.461,3.461,0,0,0,.439.364,5.512,5.512,0,0,1,2.587,4.651A1.272,1.272,0,0,1,660.92,332.733Z" transform="translate(-656.935 -326.055)" fill="#020536"/>
      </g>
      <g id="Group_3190" data-name="Group 3190" transform="translate(643.128 339.009)">
        <path id="Path_6779" data-name="Path 6779" d="M657.995,349.3c-4.339,0-10.3-1.8-15.776-9.629a1.288,1.288,0,0,1,.3-1.782,1.259,1.259,0,0,1,1.763.3c4.192,5.994,9,8.855,14.537,8.524,6.994-.436,12.949-6.158,14.444-8.978a1.26,1.26,0,0,1,1.713-.524,1.286,1.286,0,0,1,.519,1.73c-2.054,3.874-8.727,9.837-16.52,10.324C658.659,349.288,658.331,349.3,657.995,349.3Z" transform="translate(-641.986 -337.065)" fill="#020536"/>
      </g>
      <g id="Group_3191" data-name="Group 3191" transform="translate(688.847 316.152)">
        <path id="Path_6780" data-name="Path 6780" d="M692.522,335.513c-1.32,0-2.96-.628-4.508-2.945a1.289,1.289,0,0,1,.336-1.775,1.253,1.253,0,0,1,1.756.342c1.413,2.109,2.489,1.852,2.838,1.77,2.339-.551,5.061-5.39,5.714-10.153.362-2.631-.041-4.614-1.046-5.174-.532-.3-2.73-.889-8.516,4.04a1.26,1.26,0,0,1-1.782-.154,1.288,1.288,0,0,1,.153-1.8c5.092-4.339,8.815-5.752,11.365-4.324,2.034,1.135,2.862,3.892,2.332,7.765-.718,5.215-3.841,11.4-7.648,12.292A4.288,4.288,0,0,1,692.522,335.513Z" transform="translate(-687.017 -314.8)" fill="#020536"/>
      </g>
      <g id="Group_3192" data-name="Group 3192" transform="translate(642.156 318.227)">
        <path id="Path_6781" data-name="Path 6781" d="M642.292,322.65a1.262,1.262,0,0,1-.823-.308,1.288,1.288,0,0,1-.134-1.8,10.3,10.3,0,0,1,7.959-3.713,6.976,6.976,0,0,1,5.473,2.673,1.29,1.29,0,0,1-.214,1.8,1.263,1.263,0,0,1-1.777-.218,4.465,4.465,0,0,0-3.54-1.695,8.241,8.241,0,0,0-5.984,2.82A1.252,1.252,0,0,1,642.292,322.65Z" transform="translate(-641.028 -316.821)" fill="#020536"/>
      </g>
      <g id="Group_3193" data-name="Group 3193" transform="translate(636.999 297.105)">
        <path id="Path_6782" data-name="Path 6782" d="M637.213,315.82a1.263,1.263,0,0,1-1.016-.516,1.291,1.291,0,0,1,.262-1.789c2.732-2.049,9.2-13.213,10.041-16.324a1.26,1.26,0,0,1,1.551-.9,1.28,1.28,0,0,1,.888,1.569c-.882,3.267-7.52,15.119-10.973,17.707A1.258,1.258,0,0,1,637.213,315.82Z" transform="translate(-635.948 -296.246)" fill="#020536"/>
      </g>
      <g id="Group_3194" data-name="Group 3194" transform="translate(627.759 309.103)">
        <path id="Path_6783" data-name="Path 6783" d="M628.113,319.837a1.259,1.259,0,0,1-.839-.321,1.285,1.285,0,0,1-.107-1.8,23.152,23.152,0,0,0,4.416-7.367l.725-1.654a1.253,1.253,0,0,1,1.671-.642,1.28,1.28,0,0,1,.634,1.689l-.71,1.632a25.534,25.534,0,0,1-4.847,8.035A1.243,1.243,0,0,1,628.113,319.837Z" transform="translate(-626.848 -307.934)" fill="#020536"/>
      </g>
      <g id="Group_3195" data-name="Group 3195" transform="translate(632.793 352.582)">
        <path id="Path_6784" data-name="Path 6784" d="M680.043,423.407c-1.525,0-3.241-.146-5.147-.308-2.741-.231-6.154-.523-10.187-.523-3.2.014-6.078.065-8.659.112-16.712.3-22.339.4-23.727-12.962-.328-3.3-2.881-32.838,7.4-55.935a1.258,1.258,0,0,1,1.673-.641,1.285,1.285,0,0,1,.634,1.691c-10.014,22.49-7.511,51.4-7.192,54.625,1.146,11.02,4.208,10.965,21.166,10.663,2.593-.044,5.481-.094,8.7-.108,4.144,0,7.617.292,10.4.528,6.831.58,9.041.614,10.322-2.494,3.454-8.671-.9-32.16-4.4-51.033-1.04-5.607-2.02-10.906-2.691-15.264A1.276,1.276,0,0,1,679.4,350.3a1.257,1.257,0,0,1,1.443,1.068c.665,4.319,1.644,9.6,2.679,15.186,3.558,19.2,7.988,43.1,4.25,52.473C686.314,422.557,683.733,423.407,680.043,423.407Z" transform="translate(-631.806 -350.285)" fill="#020536"/>
      </g>
      <g id="Group_3196" data-name="Group 3196" transform="translate(672.697 423.599)">
        <path id="Path_6785" data-name="Path 6785" d="M675.489,485.753a1.271,1.271,0,0,1-1.263-1.212L671.112,420.8a1.274,1.274,0,0,1,1.2-1.343,1.252,1.252,0,0,1,1.328,1.213l3.113,63.737a1.272,1.272,0,0,1-1.2,1.341Z" transform="translate(-671.111 -419.461)" fill="#020536"/>
      </g>
      <g id="Group_3197" data-name="Group 3197" transform="translate(675.421 483.129)">
        <path id="Path_6786" data-name="Path 6786" d="M683.424,488.31c-4.114,0-7.295-.866-8.732-2.385a3.052,3.052,0,0,1-.9-2.261c0-3.521,6.1-5.659,11.764-6.137,7.144-.5,11.775,1.437,11.775,4.521-.151,3.6-6.254,5.72-11.86,6.191C684.759,488.287,684.082,488.31,683.424,488.31Zm4.1-8.292c-.577,0-1.17.017-1.777.062-6.089.511-9.423,2.673-9.423,3.64a.523.523,0,0,0,.2.435c.874.926,4.151,1.847,8.77,1.533,6.072-.509,9.476-2.707,9.52-3.694C694.808,481.489,692.566,480.018,687.522,480.018Z" transform="translate(-673.793 -477.448)" fill="#020536"/>
      </g>
      <g id="Group_3198" data-name="Group 3198" transform="translate(651.201 422.988)">
        <path id="Path_6787" data-name="Path 6787" d="M652.174,484.3a1.27,1.27,0,0,1-1.264-1.258l-.972-62.853a1.271,1.271,0,0,1,1.243-1.3c.664-.156,1.274.552,1.285,1.257L653.437,483a1.269,1.269,0,0,1-1.243,1.3Z" transform="translate(-649.938 -418.866)" fill="#020536"/>
      </g>
      <g id="Group_3199" data-name="Group 3199" transform="translate(634.562 483.599)">
        <path id="Path_6788" data-name="Path 6788" d="M644.625,487.353h0l-.489-.007c-5.01,0-10.268-1.61-10.571-4.693a2.742,2.742,0,0,1,.755-2.148c1.427-1.6,4.935-2.6,9.158-2.6,4.891.094,10.271,1.6,10.6,4.683a2.864,2.864,0,0,1-.788,2.249C651.878,486.411,648.64,487.353,644.625,487.353Zm-1.173-6.892c-4.933,0-7.3,1.47-7.377,1.933.074.719,2.906,2.4,8.08,2.4l.466,0c3.636,0,6.066-.866,6.79-1.673C651.489,482.209,648.564,480.562,643.453,480.461Z" transform="translate(-633.548 -477.905)" fill="#020536"/>
      </g>
      <g id="Group_3200" data-name="Group 3200" transform="translate(584.862 374.221)">
        <path id="Path_6789" data-name="Path 6789" d="M612.317,391.035a.271.271,0,0,1-.041,0l-26.458-.884a1.27,1.27,0,0,1-1.222-1.32,1.2,1.2,0,0,1,1.3-1.235l26.034.87L635.518,371.6a1.254,1.254,0,0,1,1.761.3,1.288,1.288,0,0,1-.3,1.782L613.047,390.8A1.257,1.257,0,0,1,612.317,391.035Z" transform="translate(-584.595 -371.363)" fill="#020536"/>
      </g>
      <g id="Group_3201" data-name="Group 3201" transform="translate(567.154 385.36)">
        <path id="Path_6790" data-name="Path 6790" d="M579.054,391.873h0q-.76,0-1.558-.047c-4.88-.389-10.179-2.257-10.335-5.443a2.714,2.714,0,0,1,.794-2.032c1.472-1.57,5.091-2.408,9.418-2.059,5.077.4,10.213,2.387,10.213,5.4a2.789,2.789,0,0,1-.816,2.045C585.489,391.1,582.68,391.873,579.054,391.873Zm-3.554-7.1c-3.831,0-5.715,1.063-5.815,1.484.035.714,2.792,2.6,7.984,3.017.455.028.928.041,1.384.041,3.194,0,5.254-.67,5.88-1.337.1-.932-2.69-2.738-7.759-3.14C576.6,384.8,576.039,384.773,575.5,384.773Z" transform="translate(-567.154 -382.214)" fill="#020536"/>
      </g>
      <g id="Group_3202" data-name="Group 3202" transform="translate(584.639 381.597)">
        <path id="Path_6791" data-name="Path 6791" d="M587.612,389.466a2.633,2.633,0,0,1-1.974-.93,6.307,6.307,0,0,1-1.229-4.689c.382-3.09,2.094-5.3,4.081-5.3a2.674,2.674,0,0,1,2.017.934,6.32,6.32,0,0,1,1.187,4.683C591.305,387.306,589.63,389.466,587.612,389.466Zm.959-8.263c-.527,0-1.415,1.018-1.65,2.915-.144,1.7.473,2.7.7,2.79.428-.013,1.31-1.018,1.558-3.01a3.965,3.965,0,0,0-.536-2.688A.335.335,0,0,0,588.571,381.2Z" transform="translate(-584.376 -378.548)" fill="#020536"/>
      </g>
      <g id="Group_3203" data-name="Group 3203" transform="translate(683.3 368.908)">
        <path id="Path_6792" data-name="Path 6792" d="M705.192,427.172a1.269,1.269,0,0,1-1.263-1.24l-.865-30.852-21.233-26.813a1.287,1.287,0,0,1,.2-1.8,1.256,1.256,0,0,1,1.779.2l21.5,27.148a1.283,1.283,0,0,1,.275.764l.874,31.277a1.271,1.271,0,0,1-1.226,1.315Z" transform="translate(-681.554 -366.188)" fill="#020536"/>
      </g>
      <g id="Group_3204" data-name="Group 3204" transform="translate(698.67 438.663)">
        <path id="Path_6793" data-name="Path 6793" d="M700.257,449.668c-2.464,0-3.564-3.759-3.564-7.483.1-3.639,1.264-7.688,3.6-8.051a2.617,2.617,0,0,1,2.052.8c1.169,1.218,1.819,3.755,1.739,6.791,0,3.782-1.237,7.743-3.6,7.927C700.454,449.656,700.289,449.668,700.257,449.668Zm.2-13.013a12.913,12.913,0,0,0-1.236,5.564c0,2.735.686,4.406,1.065,4.832.406-.411,1.273-2.321,1.273-5.357C701.639,438.569,700.816,436.85,700.457,436.654Z" transform="translate(-696.693 -434.134)" fill="#020536"/>
      </g>
      <g id="Group_3205" data-name="Group 3205" transform="translate(694.973 427.225)">
        <path id="Path_6794" data-name="Path 6794" d="M705.251,436.9h0c-.325,0-.65-.01-.982-.027-6.16-.223-11.1-3.446-11.217-7.336a4.9,4.9,0,0,1,1.458-3.585c1.776-1.854,5.06-2.959,8.781-2.959l.7.014c6.184.227,11.12,3.449,11.24,7.331a4.977,4.977,0,0,1-1.484,3.634C711.991,435.806,708.813,436.9,705.251,436.9Zm-1.959-11.349c-3.007,0-5.674.836-6.965,2.179a2.387,2.387,0,0,0-.747,1.726c.067,2.152,3.7,4.679,8.8,4.862.309.017.594.025.871.025h0c2.848,0,5.408-.824,6.678-2.153a2.418,2.418,0,0,0,.775-1.769c-.067-2.145-3.844-4.675-8.8-4.859Z" transform="translate(-693.051 -422.993)" fill="#020536"/>
      </g>
    </g>
    <g id="Group_3215" data-name="Group 3215" transform="matrix(0.985, 0.174, -0.174, 0.985, 231.188, 854.165)">
      <path id="Path_6848" data-name="Path 6848" d="M339.2,261.265c-6.255-7.115-16.142-8.63-25-9.9a.673.673,0,0,0-.5.122c-3.048-13.493-11.49-25.462-24.941-31.251-21-9.039-46.632-2.818-58.834,17.246a45.755,45.755,0,0,0-4.985,11.6c-13.06-.5-35.112,7.683-30.674,24.44,2.068,7.811,8.966,12.722,15.979,15.781a99.07,99.07,0,0,0,24.745,6.631c5.823,9.87,17.487,14.615,28.515,15.173,12.038.608,26.756-2.308,35.454-11.276a.589.589,0,0,0,.172-.517c14.623-1.2,31.536-5.115,41-17.084C345.331,275.661,344.653,267.472,339.2,261.265Zm-89.341-39.8c20.074-9.282,45.726-2.14,57.388,16.845,6.734,10.961,8.014,24.465,5.08,36.843a.588.588,0,0,0,.052.417,53.631,53.631,0,0,1-10.142,2.046,214.34,214.34,0,0,1-33.909,1.264,223.417,223.417,0,0,1-35.06-4.117c-2.493-.5-5.108-.978-7.65-1.678a.353.353,0,0,0,.061-.295C221.3,252,230.209,230.55,249.856,221.464ZM314.764,258.3c2.84.624,6.545,1.4,7.994,4.241,1.912,3.754-.759,7.634-3.737,9.769a23.2,23.2,0,0,1-5.434,2.832A53.029,53.029,0,0,0,314.764,258.3Zm-89.8,14.6a25.145,25.145,0,0,1-7.189-3.215c-2.975-2.03-5.318-5.54-3.306-9.1,1.851-3.276,5.635-4.79,9.2-5.259A42.54,42.54,0,0,0,224.964,272.9Zm39.8,36.937c-11.345-.219-21.723-4.78-28.734-13.744.447.066.9.131,1.343.194,6.605.923,13.3,1.729,20.032,2.347-.726,1.86,1.108,4.1,3.138,3.164.295-.136.159-.675-.171-.633a2.24,2.24,0,0,1-1.89-.479,1.862,1.862,0,0,1-.387-1.989,253.853,253.853,0,0,0,38.434.808c.321-.02.644-.043.968-.066C289.192,307.355,275.847,310.05,264.765,309.836Zm74.809-29.2c-8.849,12.349-26.623,16.219-40.759,17.37-16.132,1.314-32.441,0-48.511-1.526-15.339-1.457-33.595-2.974-46.6-12.182-8.364-5.921-12.155-17.13-4.188-25.1,6.505-6.505,16.235-8.885,25.152-9.145q-.559,2.213-.9,4.472c-7.226.046-15.27,7.409-9.015,14.2,3.2,3.475,8.251,4.988,12.683,6.062a189.629,189.629,0,0,0,18.7,3.406,227.874,227.874,0,0,0,37.586,2.064c10.973-.307,24.36-.106,34.2-5.7,3.706-2.107,7.255-5.75,6.616-10.392-.653-4.742-5.548-6.232-9.555-6.986a.561.561,0,0,0-.328.039q-.256-2.306-.715-4.573c7.581,1.1,15.921,2.263,21.993,7.384C342.16,265.281,344.567,273.668,339.574,280.635Z" transform="translate(0 0)" fill="#020536" stroke="#020536" stroke-width="1"/>
      <path id="Path_6849" data-name="Path 6849" d="M260.656,295.981a.31.31,0,0,0-.606.083c-.013.744-.425,1.823-1.305,1.855a1.082,1.082,0,0,1-.872-1.612c.229-.289-.135-.683-.413-.415a1.745,1.745,0,0,0,1,2.819A2.092,2.092,0,0,0,260.656,295.981Z" transform="translate(-26.354 -32.895)" fill="#020536" stroke="#020536" stroke-width="1"/>
      <path id="Path_6850" data-name="Path 6850" d="M255.953,289.89a1.546,1.546,0,0,0-1.814,1.382.316.316,0,0,0,.619.084.883.883,0,0,1,1.453-.366c.471.376.566,1.03,1.056,1.354a.429.429,0,0,0,.627-.256C258.04,291.1,256.885,290.009,255.953,289.89Z" transform="translate(-25.152 -30.462)" fill="#020536" stroke="#020536" stroke-width="1"/>
      <path id="Path_6851" data-name="Path 6851" d="M263.261,283.608a1.465,1.465,0,0,1-1.848.9,1.383,1.383,0,0,1-.345-1.988.3.3,0,0,0-.427-.429,2.049,2.049,0,0,0,.377,3.221,1.97,1.97,0,0,0,2.886-1.621A.329.329,0,0,0,263.261,283.608Z" transform="translate(-27.6 -27.21)" fill="#020536" stroke="#020536" stroke-width="1"/>
      <path id="Path_6852" data-name="Path 6852" d="M309.124,227.156a1.274,1.274,0,0,1-1.622.689,1.232,1.232,0,0,1-.2-1.809c.194-.228-.06-.639-.342-.445a1.829,1.829,0,0,0,.064,2.96,1.809,1.809,0,0,0,2.739-1.221C309.807,226.983,309.275,226.868,309.124,227.156Z" transform="translate(-46.828 -3.867)" fill="#020536" stroke="#020536" stroke-width="1"/>
      <path id="Path_6853" data-name="Path 6853" d="M316.836,227.712a2.366,2.366,0,0,0-2.272-1.783c-.313-.033-.3.447,0,.488.688.092,1.58.482,1.669,1.269a1.09,1.09,0,0,1-.267.844c-.184.2-.453.227-.62.439a.3.3,0,0,0,.058.455C316.31,229.981,316.933,228.388,316.836,227.712Z" transform="translate(-50.195 -4.027)" fill="#020536" stroke="#020536" stroke-width="1"/>
      <path id="Path_6854" data-name="Path 6854" d="M331.753,259.188a.387.387,0,0,0-.774,0c-.093.9-1.4,1.7-2.119.959a1.456,1.456,0,0,1,.672-2.234c.338-.1.188-.563-.141-.515a2.066,2.066,0,0,0-1.038,3.433A2.089,2.089,0,0,0,331.753,259.188Z" transform="translate(-55.792 -17.035)" fill="#020536" stroke="#020536" stroke-width="1"/>
      <path id="Path_6855" data-name="Path 6855" d="M329.215,252.857a2.319,2.319,0,0,0-2.764,1.01c-.138.223.2.5.371.287a1.827,1.827,0,0,1,2.157-.62c.791.379.745,1.068,1.142,1.713a.287.287,0,0,0,.493,0C331.1,254.31,330.05,253.165,329.215,252.857Z" transform="translate(-55.223 -15.102)" fill="#020536" stroke="#020536" stroke-width="1"/>
      <path id="Path_6856" data-name="Path 6856" d="M340.063,256.556c-.729.013-1.487-.068-1.852-.809a1.559,1.559,0,0,1,.824-2.044c.228-.1.065-.478-.169-.4a2.2,2.2,0,0,0-1.5,2.71,2.118,2.118,0,0,0,2.891,1.265A.389.389,0,0,0,340.063,256.556Z" transform="translate(-59.737 -15.338)" fill="#020536" stroke="#020536" stroke-width="1"/>
      <path id="Path_6857" data-name="Path 6857" d="M372.967,311.345c-.805-.835-2.489-.125-2.844.856a1.583,1.583,0,0,0,1.446,2.143c.244-.01.329-.415.061-.453a1.039,1.039,0,0,1-.7-1.493c.415-.72,1.162-.484,1.824-.542A.3.3,0,0,0,372.967,311.345Z" transform="translate(-73.367 -39.183)" fill="#020536" stroke="#020536" stroke-width="1"/>
      <path id="Path_6858" data-name="Path 6858" d="M377.443,308.984c-.213-.023-.3.233-.224.391.173.365.5.579.635.981a1.737,1.737,0,0,1-.039,1.312,1.784,1.784,0,0,1-2.395.716.25.25,0,0,0-.252.432,2.328,2.328,0,0,0,3.29-.77C378.94,311.135,378.723,309.118,377.443,308.984Z" transform="translate(-75.456 -38.359)" fill="#020536" stroke="#020536" stroke-width="1"/>
      <path id="Path_6859" data-name="Path 6859" d="M380,298.117a1.933,1.933,0,0,0-2.254-.091A2,2,0,0,0,376.643,300c.028.219.372.323.425.058a1.953,1.953,0,0,1,1-1.345,2.156,2.156,0,0,1,1.63-.076A.316.316,0,0,0,380,298.117Z" transform="translate(-76.113 -33.7)" fill="#020536" stroke="#020536" stroke-width="1"/>
      <path id="Path_6860" data-name="Path 6860" d="M385.881,302.439a2.814,2.814,0,0,0-3.107.261.154.154,0,1,0,.187.243,2.206,2.206,0,0,1,2.791-.121,2.11,2.11,0,0,1,.781,2.25c-.169.458.686.6.663.09A3.027,3.027,0,0,0,385.881,302.439Z" transform="translate(-78.641 -35.508)" fill="#020536" stroke="#020536" stroke-width="1"/>
      <path id="Path_6861" data-name="Path 6861" d="M307.71,359.748a.247.247,0,0,0-.248.427,1.732,1.732,0,0,1,.708,2.147c-.386.744-1.124.82-1.859.861-.33.019-.552.534-.187.694a2.164,2.164,0,0,0,2.7-1.277A2.249,2.249,0,0,0,307.71,359.748Z" transform="translate(-46.702 -59.333)" fill="#020536" stroke="#020536" stroke-width="1"/>
      <path id="Path_6862" data-name="Path 6862" d="M336.279,368.9a2.008,2.008,0,0,0-2.352-1.348,2.137,2.137,0,0,0-1.656,2.192.266.266,0,0,0,.531,0,1.544,1.544,0,0,1,1.413-1.461c.7-.018,1.08.47,1.51.94C335.968,369.494,336.331,369.206,336.279,368.9Z" transform="translate(-57.658 -62.557)" fill="#020536" stroke="#020536" stroke-width="1"/>
      <path id="Path_6863" data-name="Path 6863" d="M345.564,366.023a1.952,1.952,0,0,0-2.42.26,2.071,2.071,0,0,0-.426,2.4c.149.33.655.092.569-.241a1.511,1.511,0,0,1,.467-1.56c.488-.383.977-.239,1.536-.191A.393.393,0,0,0,345.564,366.023Z" transform="translate(-61.921 -61.808)" fill="#020536" stroke="#020536" stroke-width="1"/>
      <path id="Path_6864" data-name="Path 6864" d="M308.715,310.093c-.309.5-.638.994-1.286,1.032a1.426,1.426,0,0,1-1.388-1.151c-.064-.26-.5-.214-.477.065a1.921,1.921,0,0,0,1.74,1.782,1.824,1.824,0,0,0,1.968-1.576A.3.3,0,0,0,308.715,310.093Z" transform="translate(-46.546 -38.698)" fill="#020536" stroke="#020536" stroke-width="1"/>
      <path id="Path_6865" data-name="Path 6865" d="M305.467,303.918a1.873,1.873,0,0,0-1.145-1.121c-.864-.231-2.019.379-1.749,1.39a.313.313,0,0,0,.612-.083c-.005-.631.908-.587,1.225-.253.478.506.3,1.339.76,1.806a.324.324,0,0,0,.505-.065A2.176,2.176,0,0,0,305.467,303.918Z" transform="translate(-45.286 -35.782)" fill="#020536" stroke="#020536" stroke-width="1"/>
      <path id="Path_6866" data-name="Path 6866" d="M313.393,296.741c-2.36-.185-3.87,3.08-2.745,4.965a.234.234,0,0,0,.426-.18c-.568-1.964.614-3.483,2.411-4.1A.348.348,0,0,0,313.393,296.741Z" transform="translate(-48.504 -33.296)" fill="#020536" stroke="#020536" stroke-width="1"/>
      <path id="Path_6867" data-name="Path 6867" d="M373.837,245.6c-.292-.12-.454.337-.207.494a1.839,1.839,0,0,1,.346,2.715c-.2.259.06.725.386.5A2.2,2.2,0,0,0,373.837,245.6Z" transform="translate(-74.815 -12.151)" fill="#020536" stroke="#020536" stroke-width="1"/>
      <path id="Path_6868" data-name="Path 6868" d="M372.36,253.973a1.854,1.854,0,0,1-1.952-.256,1.819,1.819,0,0,1-.129-2.113c.048-.083-.054-.2-.14-.14a1.919,1.919,0,0,0-.361,2.713,1.964,1.964,0,0,0,2.878.309A.309.309,0,0,0,372.36,253.973Z" transform="translate(-73.095 -14.576)" fill="#020536" stroke="#020536" stroke-width="1"/>
      <path id="Path_6869" data-name="Path 6869" d="M378.83,256.069a.228.228,0,0,0-.356.275,2.129,2.129,0,0,1-.9,2.976.367.367,0,0,0,.28.668A2.473,2.473,0,0,0,378.83,256.069Z" transform="translate(-76.432 -16.459)" fill="#020536" stroke="#020536" stroke-width="1"/>
    </g>
    <g id="Group_3216" data-name="Group 3216" transform="translate(-169.139 876.863)">
      <path id="Path_6870" data-name="Path 6870" d="M306.342,447.694c-3.6-2.762-12.063-7.967-10.518-12.955,1.388-4.484,4.168-8.775,5.689-13.307a1.208,1.208,0,0,0-1.476-1.476q-3.957,1.445-7.912,2.9c-1.884.7-5.945,3.14-7.9,2.938-4.209-.435-9.516-9.184-12.287-12.319-.685-.776-1.786-.092-1.867.773a86.67,86.67,0,0,0,.055,17.845,31.534,31.534,0,0,0-14.767-2.643,1.246,1.246,0,0,0-.87,2.1c2.035,2.123,4.1,4.207,6.256,6.209,1.478,1.371,5.956,3.992,6.655,5.779,1.462,3.742-4.559,11.543-6.39,15.05a1.243,1.243,0,0,0,1.687,1.688c5.085-2.777,10-5.8,14.778-9.062,1.273,3.794,2.684,7.52,4.247,11.211.443,1.048,1.971.614,2.259-.295q2.3-7.293,4.611-14.585a51.319,51.319,0,0,0,17.128,2.446A1.245,1.245,0,0,0,306.342,447.694Zm-9.807-20.046q-1.595-1.388-3.272-2.671,2.55-.932,5.1-1.863C297.8,424.652,297.184,426.158,296.535,427.648Zm-6.742-1.4c.785-.284,1.569-.574,2.354-.86,1.257,1.164,2.562,2.268,3.9,3.329-.317.7-.62,1.408-.955,2.1a38.53,38.53,0,0,1-5.509-4.49C289.655,426.3,289.729,426.267,289.793,426.244Zm-1.548.644a20.651,20.651,0,0,0,6.253,5.144c-.387.767-.779,1.532-1.191,2.29-1.078-.876-2.288-1.635-3.371-2.435l-5.067-3.749A22.032,22.032,0,0,0,288.245,426.888ZM265.09,456.1q.885-1.693,1.768-3.387a16.557,16.557,0,0,0,1.591,1.2.376.376,0,0,0,.2.063Q266.884,455.055,265.09,456.1Zm3.944-2.354a.428.428,0,0,0-.054-.516,16.507,16.507,0,0,0-1.631-1.457l1-1.924c.571.536,1.154,1.059,1.767,1.547.384.305.777.628,1.193.911C270.554,452.782,269.8,453.272,269.034,453.741Zm3.114-1.966c-.541-.431-1.136-.816-1.662-1.238-.593-.475-1.157-.984-1.709-1.5l1.185-2.271a39.186,39.186,0,0,0,4.652,3.411Q273.386,450.982,272.148,451.775Zm5.356-3.555c-.682.474-1.37.935-2.058,1.395-1.606-1.31-3.364-2.463-5.054-3.677l.664-1.273a1.253,1.253,0,0,0-.192-1.493,148.693,148.693,0,0,1-12.593-11.3c.216.006.43.022.645.032,6.186,5.474,12.524,10.961,19.027,16.15A1,1,0,0,0,277.5,448.22Zm5.127,9.972c-1.174-2.959-2.242-5.951-3.228-8.984q2.422,1.909,4.878,3.753Zm1.975-6.263c-7.682-6.969-15.93-13.556-24.136-19.912a28.845,28.845,0,0,1,2.979.469.345.345,0,0,0,.121.18c7.284,5.672,14.433,11.506,21.679,17.223Q284.928,450.909,284.606,451.929Zm.974-3.089a198.7,198.7,0,0,0-19.959-15.822,29.659,29.659,0,0,1,4.182,1.548,1.293,1.293,0,0,0,1.754-.761c4.894,4.186,9.823,8.339,14.875,12.332Zm2.532-4.052a1.118,1.118,0,0,0-1.073.243c-5.155-4.154-10.328-8.281-15.421-12.512a.751.751,0,0,0,.075-.368c-.031-.993-.045-1.981-.057-2.969,3.609,3.306,7.43,6.4,11.264,9.439a97.849,97.849,0,0,0,9.958,7.509C291.271,445.753,289.689,445.326,288.112,444.788Zm7.445,1.92a.621.621,0,0,0-.161-.676c-3.343-3.368-7.607-5.978-11.391-8.843-4.139-3.135-8.194-6.388-12.381-9.459,0-1.422.029-2.839.068-4.257,8.961,7.738,17.615,15.815,26.505,23.626C297.314,446.985,296.432,446.865,295.557,446.708Zm5.282.649c-9.126-9.059-19.142-17.318-29.106-25.432.066-1.674.157-3.348.3-5.026l5.857,6.709c1.177,1.348,2.9,4.2,4.808,4.659a3.012,3.012,0,0,0,.52.052l5.852,4.7c1.118.9,2.223,1.939,3.424,2.785-.112.2-.213.4-.327.591a1.221,1.221,0,0,0,.186,1.438,87.776,87.776,0,0,0,9.841,9.638C301.736,447.446,301.29,447.391,300.839,447.357Z" fill="#020536"/>
    </g>
    <g id="Group_3217" data-name="Group 3217" transform="matrix(0.766, 0.643, -0.643, 0.766, 381.877, 705.149)">
      <path id="Path_6870-2" data-name="Path 6870" d="M296.444,441.142c-2.92-2.238-9.776-6.456-8.524-10.5,1.125-3.634,3.378-7.111,4.61-10.784a.979.979,0,0,0-1.2-1.2q-3.207,1.171-6.412,2.351c-1.527.563-4.818,2.545-6.4,2.381-3.411-.353-7.712-7.443-9.957-9.983-.555-.629-1.447-.075-1.513.626a70.232,70.232,0,0,0,.045,14.461,25.555,25.555,0,0,0-11.967-2.142,1.01,1.01,0,0,0-.705,1.7c1.649,1.72,3.323,3.409,5.07,5.032,1.2,1.111,4.827,3.235,5.393,4.683,1.185,3.033-3.695,9.354-5.178,12.2a1.008,1.008,0,0,0,1.367,1.368c4.121-2.25,8.1-4.7,11.976-7.344,1.032,3.075,2.175,6.094,3.442,9.085.359.849,1.6.5,1.831-.239q1.867-5.91,3.737-11.82A41.589,41.589,0,0,0,295.939,443,1.009,1.009,0,0,0,296.444,441.142ZM288.5,424.9q-1.292-1.124-2.652-2.165,2.067-.755,4.133-1.51C289.523,422.469,289.022,423.689,288.5,424.9Zm-5.464-1.138c.636-.23,1.271-.465,1.908-.7,1.019.943,2.076,1.838,3.164,2.7-.257.568-.5,1.141-.774,1.7a31.227,31.227,0,0,1-4.464-3.639C282.921,423.8,282.981,423.778,283.033,423.759Zm-1.255.522a16.735,16.735,0,0,0,5.067,4.169c-.314.622-.631,1.242-.965,1.856-.874-.71-1.854-1.325-2.732-1.973l-4.106-3.038A17.86,17.86,0,0,0,281.778,424.281ZM263.014,447.95q.717-1.372,1.433-2.745a13.406,13.406,0,0,0,1.289.977.3.3,0,0,0,.166.051Q264.468,447.107,263.014,447.95Zm3.2-1.908a.347.347,0,0,0-.044-.418,13.378,13.378,0,0,0-1.322-1.181l.814-1.559c.463.434.935.858,1.432,1.254.311.247.63.509.967.738C267.442,445.265,266.831,445.662,266.21,446.042Zm2.524-1.593c-.438-.349-.921-.661-1.347-1-.481-.385-.938-.8-1.385-1.22l.96-1.84a31.761,31.761,0,0,0,3.77,2.764Q269.736,443.806,268.733,444.449Zm4.34-2.881c-.553.384-1.11.758-1.668,1.13-1.3-1.062-2.726-2-4.1-2.98l.538-1.032a1.016,1.016,0,0,0-.156-1.21,120.493,120.493,0,0,1-10.205-9.157c.175,0,.348.018.523.026,5.013,4.436,10.149,8.883,15.419,13.088A.811.811,0,0,0,273.074,441.568Zm4.155,8.081c-.951-2.4-1.817-4.823-2.616-7.281q1.963,1.547,3.953,3.041Zm1.6-5.075c-6.225-5.648-12.91-10.986-19.56-16.137a23.385,23.385,0,0,1,2.414.38.279.279,0,0,0,.1.146c5.9,4.6,11.7,9.324,17.569,13.957Zm.789-2.5a161.033,161.033,0,0,0-16.175-12.822,24.044,24.044,0,0,1,3.389,1.255,1.048,1.048,0,0,0,1.421-.617c3.966,3.392,7.961,6.758,12.055,9.994Zm2.052-3.284a.906.906,0,0,0-.87.2c-4.178-3.366-8.37-6.711-12.5-10.14a.609.609,0,0,0,.061-.3c-.025-.8-.036-1.605-.046-2.406,2.925,2.679,6.021,5.189,9.128,7.649a79.309,79.309,0,0,0,8.07,6.085C284.231,439.569,282.948,439.223,281.67,438.787Zm6.033,1.556a.5.5,0,0,0-.13-.548c-2.709-2.729-6.165-4.845-9.231-7.166-3.354-2.541-6.64-5.177-10.034-7.666,0-1.152.023-2.3.055-3.45,7.262,6.271,14.275,12.816,21.479,19.146C289.128,440.567,288.413,440.47,287.7,440.343Zm4.28.526c-7.4-7.341-15.513-14.034-23.587-20.61.054-1.357.127-2.713.24-4.073l4.746,5.437c.954,1.092,2.349,3.4,3.9,3.776a2.443,2.443,0,0,0,.421.042l4.742,3.806c.906.728,1.8,1.571,2.775,2.257-.091.159-.173.32-.265.479a.99.99,0,0,0,.151,1.165,71.137,71.137,0,0,0,7.975,7.811C292.711,440.941,292.35,440.9,291.984,440.869Z" transform="translate(0 0)" fill="#020536"/>
    </g>
    <g id="Group_3218" data-name="Group 3218" transform="matrix(0.766, 0.643, -0.643, 0.766, 226.877, 694.149)">
      <path id="Path_6870-3" data-name="Path 6870" d="M296.444,441.142c-2.92-2.238-9.776-6.456-8.524-10.5,1.125-3.634,3.378-7.111,4.61-10.784a.979.979,0,0,0-1.2-1.2q-3.207,1.171-6.412,2.351c-1.527.563-4.818,2.545-6.4,2.381-3.411-.353-7.712-7.443-9.957-9.983-.555-.629-1.447-.075-1.513.626a70.232,70.232,0,0,0,.045,14.461,25.555,25.555,0,0,0-11.967-2.142,1.01,1.01,0,0,0-.705,1.7c1.649,1.72,3.323,3.409,5.07,5.032,1.2,1.111,4.827,3.235,5.393,4.683,1.185,3.033-3.695,9.354-5.178,12.2a1.008,1.008,0,0,0,1.367,1.368c4.121-2.25,8.1-4.7,11.976-7.344,1.032,3.075,2.175,6.094,3.442,9.085.359.849,1.6.5,1.831-.239q1.867-5.91,3.737-11.82A41.589,41.589,0,0,0,295.939,443,1.009,1.009,0,0,0,296.444,441.142ZM288.5,424.9q-1.292-1.124-2.652-2.165,2.067-.755,4.133-1.51C289.523,422.469,289.022,423.689,288.5,424.9Zm-5.464-1.138c.636-.23,1.271-.465,1.908-.7,1.019.943,2.076,1.838,3.164,2.7-.257.568-.5,1.141-.774,1.7a31.227,31.227,0,0,1-4.464-3.639C282.921,423.8,282.981,423.778,283.033,423.759Zm-1.255.522a16.735,16.735,0,0,0,5.067,4.169c-.314.622-.631,1.242-.965,1.856-.874-.71-1.854-1.325-2.732-1.973l-4.106-3.038A17.86,17.86,0,0,0,281.778,424.281ZM263.014,447.95q.717-1.372,1.433-2.745a13.406,13.406,0,0,0,1.289.977.3.3,0,0,0,.166.051Q264.468,447.107,263.014,447.95Zm3.2-1.908a.347.347,0,0,0-.044-.418,13.378,13.378,0,0,0-1.322-1.181l.814-1.559c.463.434.935.858,1.432,1.254.311.247.63.509.967.738C267.442,445.265,266.831,445.662,266.21,446.042Zm2.524-1.593c-.438-.349-.921-.661-1.347-1-.481-.385-.938-.8-1.385-1.22l.96-1.84a31.761,31.761,0,0,0,3.77,2.764Q269.736,443.806,268.733,444.449Zm4.34-2.881c-.553.384-1.11.758-1.668,1.13-1.3-1.062-2.726-2-4.1-2.98l.538-1.032a1.016,1.016,0,0,0-.156-1.21,120.493,120.493,0,0,1-10.205-9.157c.175,0,.348.018.523.026,5.013,4.436,10.149,8.883,15.419,13.088A.811.811,0,0,0,273.074,441.568Zm4.155,8.081c-.951-2.4-1.817-4.823-2.616-7.281q1.963,1.547,3.953,3.041Zm1.6-5.075c-6.225-5.648-12.91-10.986-19.56-16.137a23.385,23.385,0,0,1,2.414.38.279.279,0,0,0,.1.146c5.9,4.6,11.7,9.324,17.569,13.957Zm.789-2.5a161.033,161.033,0,0,0-16.175-12.822,24.044,24.044,0,0,1,3.389,1.255,1.048,1.048,0,0,0,1.421-.617c3.966,3.392,7.961,6.758,12.055,9.994Zm2.052-3.284a.906.906,0,0,0-.87.2c-4.178-3.366-8.37-6.711-12.5-10.14a.609.609,0,0,0,.061-.3c-.025-.8-.036-1.605-.046-2.406,2.925,2.679,6.021,5.189,9.128,7.649a79.309,79.309,0,0,0,8.07,6.085C284.231,439.569,282.948,439.223,281.67,438.787Zm6.033,1.556a.5.5,0,0,0-.13-.548c-2.709-2.729-6.165-4.845-9.231-7.166-3.354-2.541-6.64-5.177-10.034-7.666,0-1.152.023-2.3.055-3.45,7.262,6.271,14.275,12.816,21.479,19.146C289.128,440.567,288.413,440.47,287.7,440.343Zm4.28.526c-7.4-7.341-15.513-14.034-23.587-20.61.054-1.357.127-2.713.24-4.073l4.746,5.437c.954,1.092,2.349,3.4,3.9,3.776a2.443,2.443,0,0,0,.421.042l4.742,3.806c.906.728,1.8,1.571,2.775,2.257-.091.159-.173.32-.265.479a.99.99,0,0,0,.151,1.165,71.137,71.137,0,0,0,7.975,7.811C292.711,440.941,292.35,440.9,291.984,440.869Z" transform="translate(0 0)" fill="#020536"/>
    </g>
    <g id="Group_3221" data-name="Group 3221" transform="translate(-48.139 651.863)">
      <path id="Path_6880" data-name="Path 6880" d="M306.342,447.694c-3.6-2.762-12.063-7.967-10.518-12.955,1.388-4.484,4.168-8.775,5.689-13.307a1.208,1.208,0,0,0-1.476-1.476q-3.957,1.445-7.912,2.9c-1.884.7-5.945,3.14-7.9,2.938-4.209-.435-9.516-9.184-12.287-12.319-.685-.776-1.786-.092-1.867.773a86.67,86.67,0,0,0,.055,17.845,31.534,31.534,0,0,0-14.767-2.643,1.246,1.246,0,0,0-.87,2.1c2.035,2.123,4.1,4.207,6.256,6.209,1.478,1.371,5.956,3.992,6.655,5.779,1.462,3.742-4.559,11.543-6.39,15.05a1.243,1.243,0,0,0,1.687,1.688c5.085-2.777,10-5.8,14.778-9.062,1.273,3.794,2.684,7.52,4.247,11.211.443,1.048,1.971.614,2.259-.295q2.3-7.293,4.611-14.585a51.319,51.319,0,0,0,17.128,2.446A1.245,1.245,0,0,0,306.342,447.694Zm-9.807-20.046q-1.595-1.388-3.272-2.671,2.55-.932,5.1-1.863C297.8,424.652,297.184,426.158,296.535,427.648Zm-6.742-1.4c.785-.284,1.569-.574,2.354-.86,1.257,1.164,2.562,2.268,3.9,3.329-.317.7-.62,1.408-.955,2.1a38.53,38.53,0,0,1-5.509-4.49C289.655,426.3,289.729,426.267,289.793,426.244Zm-1.548.644a20.651,20.651,0,0,0,6.253,5.144c-.387.767-.779,1.532-1.191,2.29-1.078-.876-2.288-1.635-3.371-2.435l-5.067-3.749A22.032,22.032,0,0,0,288.245,426.888ZM265.09,456.1q.885-1.693,1.768-3.387a16.557,16.557,0,0,0,1.591,1.2.376.376,0,0,0,.2.063Q266.884,455.055,265.09,456.1Zm3.944-2.354a.428.428,0,0,0-.054-.516,16.507,16.507,0,0,0-1.631-1.457l1-1.924c.571.536,1.154,1.059,1.767,1.547.384.305.777.628,1.193.911C270.554,452.782,269.8,453.272,269.034,453.741Zm3.114-1.966c-.541-.431-1.136-.816-1.662-1.238-.593-.475-1.157-.984-1.709-1.5l1.185-2.271a39.186,39.186,0,0,0,4.652,3.411Q273.386,450.982,272.148,451.775Zm5.356-3.555c-.682.474-1.37.935-2.058,1.395-1.606-1.31-3.364-2.463-5.054-3.677l.664-1.273a1.253,1.253,0,0,0-.192-1.493,148.693,148.693,0,0,1-12.593-11.3c.216.006.43.022.645.032,6.186,5.474,12.524,10.961,19.027,16.15A1,1,0,0,0,277.5,448.22Zm5.127,9.972c-1.174-2.959-2.242-5.951-3.228-8.984q2.422,1.909,4.878,3.753Zm1.975-6.263c-7.682-6.969-15.93-13.556-24.136-19.912a28.845,28.845,0,0,1,2.979.469.345.345,0,0,0,.121.18c7.284,5.672,14.433,11.506,21.679,17.223Q284.928,450.909,284.606,451.929Zm.974-3.089a198.7,198.7,0,0,0-19.959-15.822,29.659,29.659,0,0,1,4.182,1.548,1.293,1.293,0,0,0,1.754-.761c4.894,4.186,9.823,8.339,14.875,12.332Zm2.532-4.052a1.118,1.118,0,0,0-1.073.243c-5.155-4.154-10.328-8.281-15.421-12.512a.751.751,0,0,0,.075-.368c-.031-.993-.045-1.981-.057-2.969,3.609,3.306,7.43,6.4,11.264,9.439a97.849,97.849,0,0,0,9.958,7.509C291.271,445.753,289.689,445.326,288.112,444.788Zm7.445,1.92a.621.621,0,0,0-.161-.676c-3.343-3.368-7.607-5.978-11.391-8.843-4.139-3.135-8.194-6.388-12.381-9.459,0-1.422.029-2.839.068-4.257,8.961,7.738,17.615,15.815,26.505,23.626C297.314,446.985,296.432,446.865,295.557,446.708Zm5.282.649c-9.126-9.059-19.142-17.318-29.106-25.432.066-1.674.157-3.348.3-5.026l5.857,6.709c1.177,1.348,2.9,4.2,4.808,4.659a3.012,3.012,0,0,0,.52.052l5.852,4.7c1.118.9,2.223,1.939,3.424,2.785-.112.2-.213.4-.327.591a1.221,1.221,0,0,0,.186,1.438,87.776,87.776,0,0,0,9.841,9.638C301.736,447.446,301.29,447.391,300.839,447.357Z" fill="#020536"/>
    </g>
  </g>
</svg>
