<svg xmlns="http://www.w3.org/2000/svg" width="271.145" height="210.683" viewBox="0 0 271.145 210.683">
  <g id="Group_4404" data-name="Group 4404" transform="translate(-1122 -963)">
    <g id="Group_3219" data-name="Group 3219" transform="translate(712.855 796.333)">
      <path id="Path_6871" data-name="Path 6871" d="M642.881,178.767c-11.151-7.288-24.594-10.836-38.48-11.425-.124-.146-.245-.295-.369-.442-.419-.5-1.019-.12-1.119.384-20.748-.563-42.335,5.414-58.64,15.435a74.308,74.308,0,0,0-23.108,22.3c-.342-.1-.783.3-.527.651l.051.067a83.124,83.124,0,0,0-11.679,29.267c-.627-.484-1.476.362-.887.955.192.193.389.381.582.575-.288,1.6-.542,3.217-.745,4.841a.615.615,0,0,0-.122.9l.011.013a96.29,96.29,0,0,0-.634,11.221.441.441,0,0,0,0,.483,101.2,101.2,0,0,0,2.448,21.407c9.857,43.971,53.606,63.612,95.52,60.356a.907.907,0,0,0,.523.252c9.438,1.112,18.4-3.2,26.89-6.8,8.473-3.593,16.6-7.928,23.425-14.177,13.406-12.269,21.152-29.655,23.449-47.505C683.7,234.676,671.5,197.473,642.881,178.767Zm26,45.107c1.122,1.078,2.273,2.1,3.3,3.279s1.85,2.526,2.881,3.7a.653.653,0,0,0,.359.21c.44,1.8.841,3.619,1.183,5.438a167.4,167.4,0,0,0-11.653-14.161A15,15,0,0,0,668.882,223.874Zm5.561,3.462a22.658,22.658,0,0,0-3.315-3.207,6.429,6.429,0,0,0,2.23-.389C673.744,224.931,674.1,226.131,674.443,227.336Zm-1.709-5.442c-5.916.767-10.851-5.416-15.065-8.944-2.919-2.443-6.227-5.489-6.776-9.5-.53-3.872,2.622-7.909,5.271-10.568A85.93,85.93,0,0,1,672.734,221.894ZM655.228,191.85a16.984,16.984,0,0,0-2.853,2.662c-2.372-3.289-5.522-6.141-8.318-9.034-2.635-2.726-5.316-5.407-8.016-8.069A65.1,65.1,0,0,1,655.228,191.85Zm-26.209-17.377c1.414.488,2.791,1.032,4.144,1.611q4.719,4.873,9.314,9.864c2.948,3.214,5.679,6.9,8.956,9.792a13.557,13.557,0,0,0-1.593,3.066c-3.2-4.384-7.387-8.174-11.135-12.075-4.287-4.463-8.537-8.978-12.972-13.295C626.839,173.76,627.938,174.1,629.019,174.473Zm-4.171-1.294a.334.334,0,0,0,.053.359c3.855,4.65,7.931,9.12,11.945,13.631,3.955,4.445,7.749,9.453,12.356,13.22a.715.715,0,0,0,.167.091,11.486,11.486,0,0,0,.062,5.008c-.264-.3-.538-.59-.8-.887-9.649-10.9-19.153-21.949-28.964-32.705Q622.289,172.461,624.848,173.179Zm-6.684-1.6c9.122,11.424,18.722,22.489,28.246,33.578s18.8,23.657,29.72,33.4a.833.833,0,0,0,.85.143,104.059,104.059,0,0,1,1.235,10.914c0,.027,0,.053,0,.079a.87.87,0,0,0-.043-.087C667.71,236,655.388,223.628,644.437,210.376c-10.783-13.051-20.834-26.717-31.682-39.711C614.578,170.912,616.377,171.231,618.164,171.584ZM603.2,169.848c.5.018.993.053,1.49.079,11.521,14.452,23.151,28.8,34.451,43.433,11.124,14.4,21.813,29.224,33.379,43.28-.4-.03-.793-.062-1.189-.072q-35.2-40.885-68.946-82.846C602.7,172.445,602.982,171.156,603.2,169.848Zm65.157,86.843c-.628.068-1.255.153-1.88.276-10.544-13.242-22.439-25.52-33.307-38.515-10.97-13.118-21.515-26.569-32.2-39.921.326-.957.62-1.925.9-2.9C622.647,203.643,644.955,230.842,668.359,256.691Zm-4.638-.106c-.249-.287-.5-.572-.75-.859.561.562,1.121,1.126,1.688,1.681-.235.067-.472.12-.706.2A1.07,1.07,0,0,0,663.721,256.585Zm-4.226,2.221c-10.262-12.092-21.48-23.42-31.9-35.388-10.375-11.913-19.566-24.919-30.135-36.636.5-.962.968-1.937,1.415-2.918,20.524,25.17,41.164,50.491,63.289,74.282a.918.918,0,0,0,.111.08,22.161,22.161,0,0,0-2.616,1.3A.748.748,0,0,0,659.495,258.806Zm-4.426,4.555c-.5.56-1.008,1.131-1.52,1.68-4.7-7.195-10.744-13.729-16.1-20.426a21.291,21.291,0,0,0,.242-3.4c.549.639,1.108,1.27,1.653,1.912q3.783,4.46,7.553,8.932,1.889,2.232,3.777,4.465c.747.885,3.88,3.656,5.145,5.022a.738.738,0,0,0-1.053.5l-.093.327A.9.9,0,0,0,655.069,263.361Zm-11.174.374a.416.416,0,0,0-.394-.163,11.577,11.577,0,0,0,.148-1.7,9.32,9.32,0,0,0-.163-1.653,65.134,65.134,0,0,0,6.648,7.622,2.334,2.334,0,0,1-2.535.965,12.723,12.723,0,0,0-1.654-2.4Zm1.71,4.212c-2.591.058-3.345-1.111-2.218-3.535q.809,1.273,1.616,2.549C645.2,267.278,645.4,267.614,645.6,267.947Zm-1.247-9.052c-2.629-2.82-5.28-5.629-8.143-8.214.362-1.587.751-3.259,1.04-4.914,4.724,6.874,9.53,14.249,15.4,20.191a13.3,13.3,0,0,1-1.313,1.123C649.519,264.06,646.746,261.457,644.358,258.895Zm-5.292-3.791a8.021,8.021,0,0,0-3.667-.409c.145-.963.378-2.049.63-3.175Q637.521,253.334,639.066,255.1Zm15.958,3.667q-3.834-4.41-7.645-8.84-5.187-6.008-10.306-12.066a5.21,5.21,0,0,0-2.121-2.514q-2.5-2.956-4.992-5.915c-11.19-13.329-22.572-26.536-34.249-39.442.351-.638.691-1.251,1-1.8.1-.177.188-.358.284-.536,8.3,12.808,18.871,24.44,28.662,36.1,10.383,12.368,20.931,25.107,32.768,36.123a.765.765,0,0,0,.35.188c-.343.226-.684.454-1.012.7-.243.18-.476.388-.709.593A10.84,10.84,0,0,0,655.024,258.771Zm-44.991-30.186c-2.13-1.834-4.02-.984-4.371-5.807a10.411,10.411,0,0,1,.58-3.341c4.564,5.959,9.156,11.987,14.261,17.48a8.05,8.05,0,0,1-2.929.6q-2.418,1-3.73-1.638.167-.641.332-1.283C613.224,231.272,612.832,230.995,610.033,228.585Zm-3.569-10.013c.066-.279.125-.555.161-.823a17.573,17.573,0,0,0,.213-2.154c5.658,6.708,11.379,13.363,17.1,20.025-.4.145-.8.29-1.192.432-.3.107-.6.224-.9.344a.6.6,0,0,0-.12-.31C617.041,229.946,611.716,224.239,606.464,218.572Zm-13.983-21.9c.345-.888.735-1.77,1.143-2.633q17.152,20.238,34.4,40.4a19.1,19.1,0,0,0-2.879.758C614.4,222.22,603.7,209.235,592.481,196.668Zm3.009,9.029q-2.156-2.21-4.3-4.429a19.08,19.08,0,0,1,.914-3.6q5.094,6.389,10.329,12.653a27.524,27.524,0,0,0-2.819-.365A38.769,38.769,0,0,0,595.49,205.7Zm1.791,3.914c-4.768-1.011-6.3-3.76-6.2-7.088,1.127,1.393,2.275,2.768,3.484,4.094C595.42,207.55,596.308,208.653,597.281,209.611ZM594.074,193.1c.362-.729.73-1.429,1.093-2.1q14.48,17.938,29.619,35.369c2.311,2.669,4.641,5.322,6.964,7.979a14.086,14.086,0,0,0-1.9-.084C618.257,220.277,606.283,206.553,594.074,193.1Zm5.258-10.256c.406-.937.778-1.885,1.133-2.839,9.739,13.324,20.1,26.2,30.627,38.912,2.286,2.762,4.573,5.557,6.87,8.356-12.957-14.655-25.9-29.321-38.485-44.314A.489.489,0,0,0,599.332,182.847Zm-67.858,12.812c3.912,4.473,7.911,8.871,11.912,13.265,4.176,4.586,8.139,9.7,12.854,13.726.592.506,1.7-.171,1.164-.9-7.068-9.68-16.637-18.353-25.118-26.891.89-.873,1.793-1.735,2.744-2.557.092-.079.19-.151.282-.23,7.356,9.218,15.126,19.386,24.024,27.072a.711.711,0,0,0,.207.117,10.074,10.074,0,0,1-.435,1.041c-1.147,2.332-3.594,3.835-4.667,6.246-.036.082-.059.16-.092.242-7.712-9.95-17.123-18.966-25.572-28.253C529.644,197.554,530.549,196.6,531.474,195.659Zm20.874,12.867c3.928,2.154,8.038,4.721,7.607,8.984C557.56,214.44,555,211.458,552.348,208.526Zm-24.262-9.2c8.448,9.658,16.488,20.3,25.763,29.183-.654,3.968,2.4,6.917,5.773,9.188,4.758,3.205,11.231,7.169,7.658,11.554-13.875-15.591-27.512-31.495-41.8-46.7C526.312,201.444,527.188,200.375,528.086,199.322Zm-6.05,8.2A512.07,512.07,0,0,0,560.4,252.419c1,1.059,2.59-.536,1.6-1.6-13.516-14.442-26.363-29.34-39.374-44.219.687-1.053,1.408-2.083,2.15-3.1,12.868,16.307,27.191,31.707,41.618,46.651a16.224,16.224,0,0,1-3.307,2.177,20.877,20.877,0,0,1-2.347.914c-2.08-2.924-5.14-5.451-7.64-7.973q-5.7-5.748-11.312-11.569c-7.263-7.566-14.462-15.207-21.88-22.623C520.581,209.874,521.3,208.693,522.036,207.526Zm-2.814,4.789c7.006,7.635,14.236,15.071,21.391,22.565,3.728,3.9,7.4,7.848,11.07,11.81,2.318,2.5,4.585,5.495,7.27,7.689a3.952,3.952,0,0,0-.745,1.145,3.412,3.412,0,0,0,.021,3.171c1.66,3.152,11.119,4.534,6.342,9.582-7.206-9.207-16.118-17.378-23.983-26.043-7.828-8.624-15.312-17.6-23.293-26.077C517.9,214.856,518.548,213.579,519.222,212.315Zm-2.478,5.062c6.836,8.757,14.387,17.017,21.78,25.3,7.978,8.936,15.782,18.845,24.834,26.714-.447.363-.953.742-1.54,1.141a19.5,19.5,0,0,1-1.954,1.148,1.013,1.013,0,0,0-.117-.212c-7.021-8.721-15.753-16.378-23.461-24.507-7.311-7.709-14.211-16.186-22.019-23.417C515,221.446,515.845,219.4,516.744,217.377Zm-2.777,7.005c6.107,8.09,13.567,15.4,20.4,22.84,7.742,8.425,15.216,17.764,23.9,25.223q-1.191.525-2.414.985a.468.468,0,0,0-.029-.047c-13.69-15.14-28.933-29.284-43.474-43.64Q513.072,227.033,513.967,224.382Zm-1.972,6.756c13.6,14.577,27.461,29.66,42.4,42.832-1.372.5-2.746.987-4.08,1.557-5.458-7.2-12.759-13.429-19.2-19.711-6.661-6.495-13.37-12.993-20.3-19.2C511.141,234.773,511.545,232.948,511.995,231.138Zm-1.486,7.178c6.122,6.048,12.441,11.9,18.567,17.946,6.585,6.494,12.585,13.915,19.438,20.11a17.964,17.964,0,0,0-3.368,2.191c-12.366-11.381-23.9-23.448-35.263-35.8C510.051,241.271,510.268,239.792,510.509,238.316Zm-.816,6.134a454.859,454.859,0,0,0,34.1,35.381l0,0a14.575,14.575,0,0,0-1.279,1.594c-5.248-5.173-10.771-10.086-16.006-15.276-5.754-5.705-11.185-11.817-17.129-17.323C509.445,247.367,509.556,245.907,509.693,244.45Zm-.4,5.939a245.176,245.176,0,0,0,32.5,32.2,9.6,9.6,0,0,0-1.187,4.38c-10.553-10.612-20.887-21.416-31.344-32.122Q509.225,252.616,509.293,250.389Zm.013,6.035c9.933,11.445,20.635,22.393,31.518,32.928,1.129,5.605,6.291,11.125,9.411,16.665-5.967-7.647-13.165-14.494-19.792-21.561-6.889-7.346-13.691-14.8-20.746-21.988C509.5,260.46,509.374,258.444,509.306,256.424Zm.6,7.957c6.106,6.858,12.429,13.536,18.662,20.276,6.917,7.479,13.552,15.6,21.161,22.385a.585.585,0,0,0,.911-.273,15.163,15.163,0,0,1,2.005,6.553l0,0c-14.485-13.918-28.493-28.262-41.884-43.237Q510.243,267.253,509.906,264.381Zm1.318,8.059c12.781,14.6,26.194,28.671,40.359,41.94a.728.728,0,0,0,1.031-.014,9.394,9.394,0,0,1-1.1,3.692A427.841,427.841,0,0,1,512.137,276.4C511.8,275.092,511.5,273.769,511.224,272.44Zm5.583,17.432a179.541,179.541,0,0,0,29.443,31.862A70.565,70.565,0,0,1,516.807,289.872Zm62.512,42.862a.468.468,0,0,0-.088-.463c-1.742-1.964-3.842-3.637-5.65-5.554s-3.521-3.923-5.217-5.944c-.008-.01-.021-.006-.03-.014a3.762,3.762,0,0,1,.591-2.308c4.257,4.949,8.484,10.124,13.159,14.66C581.161,332.994,580.238,332.871,579.319,332.734Zm4.484.581a.64.64,0,0,0-.127-.3c-4.261-5.368-9.332-10.272-14.143-15.194a5.225,5.225,0,0,1,2.716-.944h0c4.676,5.437,9.089,11.482,14.085,16.681C585.491,333.479,584.645,333.412,583.8,333.315Zm4.214.41c-4.109-6.13-9.761-11.689-14.922-16.9a24.8,24.8,0,0,1,4.769.459.29.29,0,0,0-.012.382c2.619,3.25,5.344,6.41,8.217,9.439a67.6,67.6,0,0,0,6.986,6.98C591.373,333.985,589.693,333.871,588.017,333.725Zm6.942.456c-2.26-2.945-5.37-5.344-7.995-7.973q-4.357-4.362-8.61-8.826a7.405,7.405,0,0,0,2.572.459,4.3,4.3,0,0,0,2.2-.833,173.791,173.791,0,0,0,16.21,17.336C597.875,334.3,596.417,334.252,594.959,334.181Zm14.1.141c-.7.017-1.4,0-2.09-.028a.874.874,0,0,0-.07-.13c-2.872-3.635-6.345-6.878-9.555-10.22s-6.3-6.927-9.837-9.937c-.342-.292-.988.1-.674.521,2.662,3.545,5.865,6.7,8.863,9.966,3.048,3.316,6.008,6.856,9.3,9.947-1.23-.005-2.46-.029-3.69-.053-5.832-6-11.864-11.732-17.462-17.959.244-.217.492-.45.76-.7,1.021-.957,1.91-2.079,3.02-2.944a9.147,9.147,0,0,1,1.936-1.152c2.816,3.407,5.764,6.708,8.769,9.949,2.756,2.973,5.562,6.594,9.024,8.742a.569.569,0,0,0,.773-.772c-2.251-3.425-5.8-6.177-8.673-9.094-2.981-3.03-5.877-6.137-8.793-9.227a7.715,7.715,0,0,1,2.2-.288q4.221,4.077,8.334,8.262c2.572,2.631,5.012,6.045,8.1,8.066C608.831,329.647,607.858,332.185,609.055,334.322Zm-14.647-23.179a7.45,7.45,0,0,1,4.546,3.273,12.567,12.567,0,0,1,.873,1.67Q597.141,313.588,594.408,311.143Zm10.417,9.514a2.534,2.534,0,0,1,.79.16c3.162,1.146,3.937,2.831,3.894,4.724A30.737,30.737,0,0,0,604.825,320.657Zm34.255,3.337a18.047,18.047,0,0,1-5.581-7.423,39.778,39.778,0,0,0,6.4,6.985C639.622,323.7,639.356,323.853,639.08,323.994Zm1.926-1.034c-2.807-3.237-5.636-6.362-8.269-9.73a15.579,15.579,0,0,1-.025-2.352,137.806,137.806,0,0,0,9.5,11.4C641.81,322.5,641.413,322.738,641.006,322.96Zm2.287-1.3a.675.675,0,0,0-.119-.2c-3.435-3.946-7.059-7.672-10.382-11.717.106-.85.283-1.7.446-2.551,3.429,4.758,7.173,9.734,11.578,13.544C644.31,321.042,643.807,321.358,643.293,321.659Zm2.786-1.721c-4.089-4.766-8.645-9.078-12.627-13.97a11.519,11.519,0,0,0,.144-2.6q2.953,3.39,5.926,6.764c2.576,2.938,5.034,6.309,8.044,8.816C647.073,319.281,646.58,319.615,646.079,319.938Zm2.587-1.756c-2.124-3.12-5.093-5.759-7.681-8.493-2.622-2.77-5.233-5.551-7.876-8.3-.705-1.452-2.06-2.448-2.45-3.858q.126-.664.251-1.327,5.211,5.453,10.47,10.859c3.07,3.169,6.05,6.681,9.5,9.468C650.146,317.089,649.418,317.652,648.666,318.182Zm3.457-2.616c-3.054-3.648-6.942-6.775-10.36-10.075-3.586-3.463-7.108-6.992-10.618-10.531q.192-1.023.386-2.046a6.772,6.772,0,0,1,.847-1.2c6.961,7.63,14.177,15.149,21.683,22.227C653.424,314.494,652.78,315.038,652.123,315.566Zm3.35-2.9c-7.32-7.342-14.8-14.558-22.234-21.787a9.617,9.617,0,0,1,2.712-1.563c6.515,7.054,12.779,17.324,21.8,21.145C657,311.216,656.248,311.953,655.473,312.667Zm4.867-5.005c-.551.642-1.129,1.249-1.705,1.859-4.023-3.215-7.987-6.138-11.54-9.963-3.318-3.573-6.517-7.231-10.052-10.584,1.329-.3,2.947-.255,4.2-.793a259.766,259.766,0,0,0,18.515,19.1.778.778,0,0,0,.74.188C660.441,307.534,660.393,307.6,660.34,307.662Zm.824-1.021a.737.737,0,0,0-.242-.526c-6.37-6.079-12.809-12.061-18.973-18.351a2.5,2.5,0,0,0,.233-.176c.958.013,1.917.019,2.875-.051a21.832,21.832,0,0,0,2.225-.282,125.874,125.874,0,0,0,15.537,17.26C662.276,305.229,661.738,305.946,661.164,306.641Zm2.618-3.4a201.2,201.2,0,0,0-15.371-16.22,29.79,29.79,0,0,0,4.721-1.563.417.417,0,0,0,.1.367q3.219,3.633,6.51,7.195c1.943,2.1,3.834,4.688,6.226,6.277a.576.576,0,0,0,.391.093C665.542,300.7,664.693,301.99,663.782,303.245Zm3.15-4.768a.617.617,0,0,0-.037-.1c-1.512-2.445-4.039-4.414-6.078-6.426q-3.452-3.4-6.973-6.732c-.015-.014-.032-.018-.047-.03,1.2-.516,2.393-1.073,3.6-1.626q3.091,2.857,6.009,5.89c1.788,1.858,3.411,4.049,5.453,5.627C668.245,296.228,667.609,297.363,666.932,298.477Zm2.541-4.54a33.465,33.465,0,0,0-5.086-5.461c-1.932-1.86-3.947-3.63-6-5.358.918-.411,1.866-.8,2.837-1.178a.512.512,0,0,0,.108.186c1.627,1.808,3.378,3.515,5.077,5.255a47.5,47.5,0,0,0,4.206,4.175C670.243,292.353,669.876,293.154,669.473,293.937Zm1.784-3.725c-1.186-1.351-2.634-2.538-3.92-3.756-1.718-1.628-3.409-3.3-5.189-4.864.127-.045.245-.1.373-.141a10.8,10.8,0,0,1,3.047-.511,64.158,64.158,0,0,0,6.924,6.218c.013.008.025.009.038.016C672.126,288.2,671.705,289.209,671.257,290.212Zm1.712-4.2a53.917,53.917,0,0,0-5.8-5.094c1.278.017,2.542.07,3.736-.031a2.205,2.205,0,0,0,.278.311c.4.34.794.678,1.168,1.043.487.474.91,1.072,1.391,1.578C673.488,284.555,673.242,285.29,672.969,286.015Zm1.309-3.754c-.368-.331-.764-.635-1.132-.919-.295-.228-.6-.447-.911-.654a5.585,5.585,0,0,0,3.021-1.683C674.958,280.1,674.626,281.183,674.278,282.261Zm1.628-5.83a1,1,0,0,0-1.321.278c-2.025,2.665-9.5,1.459-12.768,2.669-4.165,1.543-7.667,4.244-12.052,5.359-6.726,1.709-17.154-1.55-21.678,5.492a6.427,6.427,0,0,0-.826,5.847c.526,1.491,1.228,1.575,1.981,2.87,2.859,4.913,2.08,5.625,1.6,10.4-.056.555-.084,1.108-.1,1.66a.467.467,0,0,0-.409.716c.134.231.28.462.419.693.212,5.082,2.341,9.742,7.215,12.143-.2.1-.4.208-.6.307-7.589,3.675-16.682,8.254-25.527,9.27a.728.728,0,0,0-.742-.423c1.012-.116.868-10.767-.253-12.617-1.255-2.073-2.41-1.647-4.3-2.495-4.97-2.234-4.021-3.1-6.726-6.491a11.068,11.068,0,0,0-2.511-2.462,7.9,7.9,0,0,0-7.986-.416c-4.28,1.957-5.454,6.273-10.7,6.174-3.292-.063-6.29-1.466-9.495.428a8.347,8.347,0,0,0-1.193.846.318.318,0,0,0-.033.03c-4.706,4.083,1.489,10.044,3.68,14.068.3.551,1.276.172,1.037-.437-.825-2.1-2.5-3.73-3.328-5.749a14.194,14.194,0,0,1-.8-2.537,45.927,45.927,0,0,0,9.612,10.5,95.062,95.062,0,0,1-26.606-8.032c-1.219-.588-2.414-1.215-3.6-1.861a.4.4,0,0,0,.048-.641c-6.309-5.9-12.539-11.756-18.274-18.235-5.485-6.2-10.218-12.912-15.142-19.531-.628-1.747-1.194-3.524-1.712-5.318a243.331,243.331,0,0,0,38.045,40.188,15.878,15.878,0,0,1-2.516,2.838c-.42.379.12,1.06.6.776,14.226-8.431-1.94-21.228-5.37-32.226a.662.662,0,0,0-.171-.717l-.048-.048a9.52,9.52,0,0,1,.106-5.768c.1.083.2.172.306.255.545.443,1.3-.265.787-.787-.191-.194-.39-.38-.582-.573a11.809,11.809,0,0,1,4.06-4.112c4.051-2.647,8.89-4.161,13.332-6.017,2-.836,5.553-1.683,6.888-3.594a5.083,5.083,0,0,0,.08-5.437c-1.477-2.69-5.619-2.72-6.9-4.8-2.614-4.242,6.114-5.168,7.8-7.274a6.61,6.61,0,0,0,1.263-4.63c-.483-8.23-14.784-10.136-14.852-17.391a.537.537,0,0,0,.25-.83c-.053-.072-.112-.142-.166-.214.012-.068.015-.132.029-.2.677-3.367,4.638-5.407,5.807-8.629a7.923,7.923,0,0,0-1.057-7.3c-1.859-2.834-4.919-4.211-7.755-5.812-6.529-3.688-10.426-8.83-10.934-16.445-.083-1.26-2.038-1.279-1.977,0a22.907,22.907,0,0,0,1.138,6.139q-2.366-2.532-4.661-5.086c17.334-14.33,41.992-21.979,65.493-21.453-.256,1.052-.539,2.09-.835,3.12a.72.72,0,0,0-.348,1.059l.024.031a65.631,65.631,0,0,1-6.539,14.844c-2.625,4.374-5.595,8.923-5,14.254a9.538,9.538,0,0,0,4.934,7.773c1.763.862,4.079.236,5.676,1.012l4.818,6.067q-.177.762-.353,1.523c.024.7-.551,2.55-.549,3.3.01,3.632,2.034,5.235,4.8,7.193,1.707,1.207,2.674,1.562,3.184,3.725.226.954-.276,2.4-.036,3.17a4.116,4.116,0,0,0,.845,1.958c3.126,3.166,10.276-.769,13.353-1.689,1.716-.514,4.8-1.437,6.475-.565l3.862,6.446a15.393,15.393,0,0,1-.808,4.008c-.842,3.069-1.87,5.722-2.089,8.914a1.02,1.02,0,0,0,1.281.976c3.91-1.089,6.6,2.114,7.133,5.694.171,1.158-.478,2.537-.467,3.773a6.191,6.191,0,0,0,.595,3.556c1.292,1.963,3.5,2.132,5.623,1.6,3.9-.979,6.343-4.35,9.136-6.968a21,21,0,0,1,13.721-5.909.951.951,0,0,0,.827-.007,22.526,22.526,0,0,1,6.386.956.888.888,0,0,0,.8-.117A90.019,90.019,0,0,1,675.906,276.431Zm2.431-18.564a1.031,1.031,0,0,0-.341-.186,25.037,25.037,0,0,0-2.774-.682.891.891,0,0,0-.147-.665c-10.629-15.349-22.627-29.848-34.32-44.389-11.282-14.032-22.54-28.113-34.11-41.912,1.483.1,2.956.254,4.422.425,9.19,13.858,19.925,26.776,30.446,39.619,11.209,13.681,22.353,28.5,35.272,40.605a.97.97,0,0,0,1.458-.289C678.367,252.88,678.4,255.374,678.337,257.867Z" fill="#020536"/>
      <path id="Path_6872" data-name="Path 6872" d="M610.936,282.745c-1.684-1.856-5.449-3.857-7.755-2.088,1.336-9.321-3.714-19.6-14.757-18.332-3.97.456-7.96,3.441-7.581,7.838.187,2.186,1.589,3.734,2.71,5.5,2.3,3.612,2.127,6.938,3.052,10.887,2.079,8.879,17.472,14.274,24.066,7.278A8.264,8.264,0,0,0,610.936,282.745Zm-9.627-7.886a45.135,45.135,0,0,0-4.264-5.654q-1.707-2.155-3.416-4.309C598.68,266.594,600.791,270.442,601.309,274.859Zm-9.1-10.33,3.9,5.4a41.456,41.456,0,0,0,4.491,5.849.53.53,0,0,0,.789-.047,22.955,22.955,0,0,1,.013,2.968c-4.191-4.648-8.383-9.3-12.341-14.164A8.581,8.581,0,0,1,592.208,264.529Zm-.075,26.612c-3.113-2.4-3.467-5.509-3.884-8.7a100.07,100.07,0,0,0,8.379,10.916A19.39,19.39,0,0,1,592.133,291.141Zm6.652,2.934c-.121-.033-.273-.08-.416-.123-3.37-4.458-7.022-8.69-10.361-13.184a14.267,14.267,0,0,0-1.123-3.879c-.509-1.067-1.454-1.945-1.932-3a10.659,10.659,0,0,1-.414-1.075,76.4,76.4,0,0,0,6.214,7.91,176.742,176.742,0,0,0,12.063,14.007A12.228,12.228,0,0,1,598.785,294.075Zm7.2.219a12.568,12.568,0,0,1-1.429.3.662.662,0,0,0-.045-.093c-2.963-3.887-6.4-7.417-9.617-11.1-3.483-3.986-8.425-8.358-10.8-13.234a5.641,5.641,0,0,1,.827-2.958c6.808,8.932,13.88,18.625,22.3,26Q606.64,293.743,605.981,294.294Zm2.327-2.191c-6.953-8.977-15.355-17.034-22.776-25.686a6.085,6.085,0,0,1,2.281-1.518c6.646,8.875,13.622,18.06,21.765,25.614A13.834,13.834,0,0,1,608.308,292.1Zm2.123-3.165c-2.054-2.426-4.154-4.811-6.274-7.178a.713.713,0,0,0,.175-.176l.1-.153a.505.505,0,0,0,.09-.326Q612.354,284.121,610.431,288.938Z" fill="#020536"/>
    </g>
    <g id="Group_3220" data-name="Group 3220" transform="translate(540.795 467.014)">
      <path id="Path_6873" data-name="Path 6873" d="M641.529,646.66a.2.2,0,0,0-.2-.335c-.07.015-.14.035-.21.051a.6.6,0,0,0-.507.122,20.223,20.223,0,0,0-10.354,5.709c-1.533,1.7-4.366,5.959-2.948,8.386s5.226-.493,6.455-1.748c3.253-3.323,4.538-8,7.685-11.446A.583.583,0,0,0,641.529,646.66Zm-12.008,12.8c-1.643-.207-1.261-.621-.871-2.012a10.987,10.987,0,0,1,1.075-2.5,13.249,13.249,0,0,1,2.856-3.372,27.945,27.945,0,0,1,6.917-3.965,25.738,25.738,0,0,0-3.18,5.045C634.974,655.2,632.854,659.879,629.521,659.459Z" transform="translate(-14.739 -3.654)" fill="#020536"/>
      <path id="Path_6874" data-name="Path 6874" d="M593.792,688.149c-1.042-.543-2.691-.361-3.15.858a.367.367,0,0,0-.014.08,2.414,2.414,0,0,0,.1,2.318,2.212,2.212,0,0,0,3.542.166A2.148,2.148,0,0,0,593.792,688.149Zm-.4,2.663c-1.1,1.136-2.229-.165-2.018-1.3a.435.435,0,0,0,.066-.043,1.469,1.469,0,0,1,1.681-.424A1.032,1.032,0,0,1,593.389,690.811Z" transform="translate(-2.957 -17.043)" fill="#020536"/>
      <path id="Path_6875" data-name="Path 6875" d="M615.479,720.385a2.277,2.277,0,0,0-1.511-1.224.2.2,0,0,0-.17-.259,2.274,2.274,0,0,0-2.7,1.977,2.358,2.358,0,0,0,2.584,2.5A2.265,2.265,0,0,0,615.479,720.385Zm-1.946,1.75a1.243,1.243,0,0,1-1.335-1.159,1.31,1.31,0,0,1,.279-.865.3.3,0,0,0,.265.094,1.442,1.442,0,0,1,1.505.418A1.029,1.029,0,0,1,613.533,722.135Z" transform="translate(-9.633 -27.042)" fill="#020536"/>
      <path id="Path_6876" data-name="Path 6876" d="M668.46,726.729c-.53-.838-2.118-1.678-3.037-.968a.5.5,0,0,0-.3.073,2.513,2.513,0,0,0-.92,3.2,2.42,2.42,0,0,0,4.254-2.309Zm-1.6,2.1c-1.358.725-2.3-1.274-1.212-2.1a.546.546,0,0,0,.094-.1c.618,0,1.165-.031,1.595.573A1.087,1.087,0,0,1,666.865,728.831Z" transform="translate(-26.678 -29.175)" fill="#020536"/>
      <path id="Path_6877" data-name="Path 6877" d="M712.6,715.912a1.8,1.8,0,0,0-2.324.082,2.053,2.053,0,0,0-1.116,2.772,2.273,2.273,0,0,0,3.36.764A2.339,2.339,0,0,0,712.6,715.912Zm-1.17,2.885a1.184,1.184,0,0,1-1.4-.745,1.1,1.1,0,0,1,0-.608.436.436,0,0,0,.683-.208c.2-.928,1.27-.728,1.5.075A1.244,1.244,0,0,1,711.426,718.8Z" transform="translate(-41.182 -25.962)" fill="#020536"/>
      <path id="Path_6878" data-name="Path 6878" d="M721.362,693.369a1.926,1.926,0,0,0-2.06-.206,2.212,2.212,0,0,0-.979,1.658,2.644,2.644,0,0,0,2.267,3,2.414,2.414,0,0,0,2.641-2.331A2.519,2.519,0,0,0,721.362,693.369Zm-.592,3.328c-1.658,0-1.875-2.618-.461-2.961-.132.222-.114.559.2.605.68.1,1.429.184,1.59,1.015C722.243,696.109,721.455,696.7,720.77,696.7Z" transform="translate(-44.194 -18.683)" fill="#020536"/>
      <path id="Path_6879" data-name="Path 6879" d="M685.158,678.8c-3.232-6.615-10.787-8.885-17.348-10.67a.716.716,0,0,0-.237-.016c-.014-7.462-1.044-14.9-5.507-20.943-5.254-7.117-13.908-11.391-22.644-12.083-16.5-1.307-31.6,9.9-36.377,24.961-10.223-1.954-20.535,3.447-21.722,14.459-1.324,12.279,8.7,21.326,19.047,25.773,13.473,5.792,28.78,6.261,43.232,6.384a61.6,61.6,0,0,0,21.341-3.745c5.906-2.059,12.488-4.091,16.9-8.776C685.7,690.047,687.751,684.108,685.158,678.8Zm-3.069-2.131a10.311,10.311,0,0,1,2.753,5.914c-1-1.406-2.138-2.753-3.175-4.119A5.321,5.321,0,0,0,682.089,676.67Zm-1.334-1.267a.685.685,0,0,0-.2.531c.117,3.579-4.138,6.041-6.729,2.965a4.093,4.093,0,0,1-.952-2.086.4.4,0,0,0,.068-.493c-.032-.061-.077-.116-.111-.176a6.3,6.3,0,0,1,2.026-4.185A23.309,23.309,0,0,1,680.756,675.4Zm-6.93-3.861a6.147,6.147,0,0,0-.934.925,18.175,18.175,0,0,0-1.654-1.836C672.1,670.91,672.962,671.206,673.825,671.542Zm-6.26-2c.795.218,1.634.459,2.488.718a24.626,24.626,0,0,0,2.362,2.663.294.294,0,0,0,.081.049,6.436,6.436,0,0,0-.8,1.618c-.476-.546-.985-1.069-1.435-1.595q-1.346-1.574-2.711-3.131C667.558,669.754,667.564,669.648,667.565,669.54Zm-.043,1.414c.589.762,1.176,1.525,1.771,2.281.691.878,1.351,1.9,2.123,2.764a5.326,5.326,0,0,0,.962,3.566c-1.657-2.138-3.309-4.279-4.922-6.442C667.487,672.4,667.5,671.677,667.522,670.954Zm-.71,10.464a.557.557,0,0,0,.148-.644.763.763,0,0,0,.108-.352c.02-.4.044-.8.066-1.2,1.351,2.385,2.779,4.792,4.308,7.137-.1-.032-.2-.066-.3-.092-.133-.033-.268-.047-.4-.071a17.244,17.244,0,0,0-2.253-2.425c-.646-.712-1.269-1.443-1.882-2.183C666.669,681.528,666.743,681.477,666.812,681.417Zm-2.892,4.8q-.807-.888-1.612-1.78c.56-.29,1.107-.609,1.647-.943a20.229,20.229,0,0,0,1.109,1.7,5,5,0,0,0,1.445,1.611.369.369,0,0,0,.5-.5,7.841,7.841,0,0,0-1.365-1.558,19.24,19.24,0,0,1-1.2-1.557c.518-.338,1.021-.706,1.517-1.09.531.763,1.075,1.516,1.658,2.242.429.534.9,1.215,1.422,1.792a5.867,5.867,0,0,0-3.635,1.787A9.233,9.233,0,0,0,663.92,686.219Zm.943,2.385a5.638,5.638,0,0,0-.836,1.869,5.432,5.432,0,0,0-.107.6,30.9,30.9,0,0,1-3.524-5.738c.465-.2.922-.412,1.376-.633q.761,1,1.522,2A7.667,7.667,0,0,0,664.863,688.6Zm.565,1.979a4.5,4.5,0,0,1,5.9-2.8,4.176,4.176,0,0,1,2.569,5.205c-.84,2.132-3.339,2.347-5.3,2.269a.619.619,0,0,0-.6.426,5.437,5.437,0,0,1-1.231-.828c-.375-.512-.758-1.021-1.143-1.528A3.848,3.848,0,0,1,665.428,690.583Zm-26.006-53.869c8.7.73,17.369,5.316,22.16,12.726,5.771,8.923,4.547,20.873,3.954,30.981a.708.708,0,0,0,.038.259.456.456,0,0,0-.216.167c-9.232,6.209-20.061,6.171-30.826,5.046-.018-.034-.036-.07-.054-.1a.331.331,0,0,0-.605.032,80.434,80.434,0,0,1-15.3-2.936,43.009,43.009,0,0,1-7.805-3.247c-1.807-.985-6.528-3.423-7.81-5.747l-.035-.062a2.352,2.352,0,0,1-.293-.968.32.32,0,0,0-.139-.246C602.693,652.539,618.356,634.948,639.422,636.714Zm-5.358,62.435q-2.883-6.475-6.022-12.83c.3.05.608.092.911.141a.3.3,0,0,0,.033.237l3.139,5.507a32.022,32.022,0,0,0,2.652,4.371,3.829,3.829,0,0,0-.733,2.025A4.281,4.281,0,0,0,634.064,699.149Zm-1.156-7.4-3.232-5.177c.322.049.643.105.965.149l.672.091a40.1,40.1,0,0,0,2.3,4.161,11.862,11.862,0,0,0,2.627,3.375c.329.24.615-.206.493-.492a24.3,24.3,0,0,0-2.646-3.79c-.7-1.023-1.351-2.081-1.983-3.148q1.085.143,2.2.279a32.83,32.83,0,0,0,3.56,6.892,8.649,8.649,0,0,0-2.484,1.753A37.375,37.375,0,0,0,632.908,691.747Zm2.974,5.08a6.292,6.292,0,0,1,4.8-2.148,3.781,3.781,0,0,1,1.43.5.449.449,0,0,0,.109.068,4.05,4.05,0,0,1,1.665,5.137c-1.151,2.23-3.405,2.429-5.612,2.54a.591.591,0,0,0-.376.159C635.678,702.568,634.564,698.375,635.882,696.827Zm4.284-3.457a6.738,6.738,0,0,0-1.415.348c-.54-1.176-1.287-2.273-1.908-3.4-.546-.994-1.068-2-1.585-3.007.81.092,1.632.176,2.457.254,1.025,1.952,2.093,3.927,3.244,5.827A3.1,3.1,0,0,0,640.166,693.37Zm-37.408-32.331c-.2.686-.36,1.382-.51,2.082a24.469,24.469,0,0,0-1.523-1.97C601.4,661.109,602.082,661.072,602.758,661.039ZM600,661.2a23.967,23.967,0,0,0,2,3.146c-.152.867-.277,1.741-.361,2.624-.39-.636-.817-1.254-1.206-1.878q-1.168-1.873-2.352-3.737C598.722,661.292,599.362,661.246,600,661.2Zm-2.787.249q1.224,2.049,2.472,4.083a33.2,33.2,0,0,0,1.847,2.944c-.047.948-.056,1.9-.018,2.866q-2.81-4.9-5.766-9.692C596.233,661.572,596.724,661.51,597.215,661.45Zm-4.468.867c4.341,9.391,9.262,18.629,14.555,27.611a5.612,5.612,0,0,0-2.1-.771.381.381,0,0,0-.028-.227c-4.119-8.891-9.009-17.58-13.719-26.174C591.879,662.594,592.31,662.449,592.747,662.318Zm8.554,27.45a6.2,6.2,0,0,0-.863.521A66.308,66.308,0,0,0,593,677.475a4.843,4.843,0,0,0,1.17-.967C596.389,681,598.769,685.44,601.3,689.767Zm-6.654-13.852a5.153,5.153,0,0,0,.846-3.265c2.841,5.562,5.763,11.1,8.926,16.43a6.6,6.6,0,0,0-1.988.257C600.008,684.774,597.4,680.286,594.647,675.915ZM594,674.887c-.042-.066-.081-.132-.123-.2a.274.274,0,0,0-.473.277c.076.159.158.316.235.474-.064.084-.125.169-.2.251-1.734,1.956-4.159,1.248-6.2.331-1.407-1.238-2.65-3.81-1.8-5.478a3.5,3.5,0,0,1,1.746-1.576.368.368,0,0,0,.527-.2,6.188,6.188,0,0,1,2.558-.226l0,0a.436.436,0,0,0,.686.121A4.431,4.431,0,0,1,594,674.887Zm-1.734,2.934a104.425,104.425,0,0,1,7.382,13.154,5.583,5.583,0,0,0-.562.673,4.572,4.572,0,0,0-.32.576c-2.635-4.718-5.247-9.458-8-14.106A4.97,4.97,0,0,0,592.27,677.82Zm7.081,16.389a.516.516,0,0,0,.144-.688l-.015-.026a4.382,4.382,0,0,1,.883-1.633.559.559,0,0,0,.478-.48,4.047,4.047,0,0,1,.331-.277,5.082,5.082,0,0,1,.685-.381c.135.228.265.461.4.688a.566.566,0,0,0,.977-.571c-.09-.173-.186-.344-.276-.516A4.735,4.735,0,0,1,608,692.2a3.8,3.8,0,0,1-1.887,5.779c-1.99.76-3.568-.373-5.35-1.1a.374.374,0,0,0-.373.045A3.1,3.1,0,0,1,599.351,694.209Zm-8.7-31.112q1.454,2.867,2.909,5.755a5.326,5.326,0,0,0-2.845-1.294q-1.2-1.531-2.379-3.082c-.007-.009-.019-.009-.028-.017A13.008,13.008,0,0,1,590.655,663.1ZM588,664.715c.551.915,1.094,1.834,1.636,2.755a6.757,6.757,0,0,0-2.233.386c-.165-.226-.354-.441-.5-.645-.209-.285-.43-.557-.65-.831A12.019,12.019,0,0,1,588,664.715Zm-2.217,2.249c.165.273.323.55.5.82.093.145.183.3.276.451a5.3,5.3,0,0,0-1.3.949,7.14,7.14,0,0,0-.437-.764A13.371,13.371,0,0,1,585.786,666.964Zm-1.31,2.1a4.637,4.637,0,0,0,.384.588c-.03.041-.064.077-.093.118a3.485,3.485,0,0,0-.564,1.885l-.474-.813A15.712,15.712,0,0,1,584.477,669.068Zm1.89,18.71a20.419,20.419,0,0,1-3.4-8.642,90.565,90.565,0,0,0,7.217,13.06A27.623,27.623,0,0,1,586.367,687.778Zm5.488,5.88a161.086,161.086,0,0,1-9.071-16.674,17.849,17.849,0,0,1,.1-2.392,230.933,230.933,0,0,0,11.112,20.645C593.261,694.734,592.542,694.215,591.855,693.658Zm3.68,2.583a.457.457,0,0,0-.025-.439c-4.264-7.348-8.249-14.857-12.491-22.215a16.743,16.743,0,0,1,.5-2.086q.436.885.877,1.771a6.079,6.079,0,0,0,1.138,2.261c3.766,7.434,7.784,14.782,12.1,21.89C596.922,697.047,596.218,696.658,595.534,696.241Zm3.789,2.026c-.006-.013,0-.024-.012-.037-3.844-7.07-7.844-14.078-11.889-21.047a5.851,5.851,0,0,0,2.57.913,164.156,164.156,0,0,0,8.329,15.617,3.763,3.763,0,0,0,1.965,3.956s0,.008.009.012a7.357,7.357,0,0,0,2.74,1.687l.575.661C602.148,699.5,600.712,698.922,599.323,698.267Zm5.4,2.15c-.2-.2-.406-.4-.6-.6l-.218-.222a5.18,5.18,0,0,0,1.879-.009c.425.515.846,1.048,1.285,1.564C606.284,700.917,605.5,700.677,604.727,700.417Zm3.6,1.075a28.407,28.407,0,0,0-1.972-2.059,4.869,4.869,0,0,0,1.243-.613,32.495,32.495,0,0,0,1.788,2.932C609.034,701.661,608.678,701.587,608.327,701.492Zm1.873.46a24.929,24.929,0,0,0-2.3-3.368,5.592,5.592,0,0,0,.837-.807c.1-.123.2-.251.286-.38.665,1.093,1.36,2.17,2.06,3.239.381.583.749,1.19,1.14,1.779C611.547,702.266,610.872,702.115,610.2,701.951Zm3.508.773c-.653-1.044-1.469-2.016-2.189-2.99s-1.437-1.924-2.187-2.862a5.041,5.041,0,0,0,.563-2.6q2.7,4.443,5.513,8.783C614.84,702.956,614.274,702.838,613.708,702.725Zm3.135.565c-8.235-13.51-15.854-27.235-23.346-41.17.515-.133,1.041-.243,1.572-.343,6.782,14.161,14.786,27.926,22.481,41.616C617.315,703.358,617.08,703.327,616.844,703.29Zm2.11.308c-4.6-8.641-9.162-17.408-13.935-26.029a28.417,28.417,0,0,0,2.816,1.892A187.794,187.794,0,0,0,619.8,703.7C619.516,703.665,619.238,703.637,618.953,703.6Zm1.94.236c-4.3-7.744-8.086-15.719-11.9-23.709.572.317,1.111.6,1.59.846,3.977,7.687,7.807,15.508,12.044,23.057C622.052,703.966,621.475,703.9,620.893,703.834Zm4.49.464c-.525-.044-1.062-.1-1.6-.151-3.677-7.785-8.032-15.328-12.376-22.762l.352.174c.686.334,1.382.643,2.082.939a.3.3,0,0,0,.037.107c4.222,7.151,7.877,14.659,12.192,21.748Zm4.24.322a158.222,158.222,0,0,0-11.395-19.907.269.269,0,0,0-.463.271c3.766,6.4,7.121,12.994,10.6,19.543-.408-.03-.817-.058-1.224-.089-3.427-7.526-8.042-14.584-12.42-21.592a52.858,52.858,0,0,0,5.855,1.92c3.184,6.737,6.592,13.813,10.828,19.96C630.81,704.689,630.215,704.661,629.624,704.62Zm2.836.167c-3.358-6.751-7.468-13.254-11.174-19.844.6.152,1.2.289,1.8.424,3.9,6.314,7.414,12.816,10.67,19.482C633.321,704.827,632.89,704.812,632.46,704.787Zm2.641.127a130.538,130.538,0,0,0-11.123-19.348c1.032.22,2.069.415,3.108.6,2.669,6.331,5.511,12.609,8.55,18.771Zm1.491.054c-.329-.78-.668-1.557-1-2.335a3.391,3.391,0,0,0,2.173,1.209.548.548,0,0,0,.357.258,5.678,5.678,0,0,0,.865.139,3.767,3.767,0,0,0,.406.81Q637.991,705.02,636.591,704.968Zm3.707.1c-.162-.251-.344-.489-.5-.749-.01-.018-.017-.038-.027-.056a5.971,5.971,0,0,0,1.7-.333l.794.9c.071.081.142.167.213.251C641.754,705.074,641.027,705.075,640.3,705.064Zm3.121.018c-.228-.244-.481-.471-.708-.7l-.674-.682a6.057,6.057,0,0,0,1.415-.925,12.353,12.353,0,0,0,.977,1.52c.189.247.387.518.609.76C644.5,705.061,643.961,705.08,643.42,705.081Zm3.781-.067c-.379.014-.762.012-1.143.02a11.72,11.72,0,0,0-.978-1.078,11.606,11.606,0,0,1-1.17-1.624,5.609,5.609,0,0,0,.924-1.352c.476.718.951,1.438,1.434,2.152.411.607.8,1.258,1.238,1.86C647.4,705,647.3,705.011,647.2,705.014Zm1.464-.1a26.906,26.906,0,0,0-1.757-2.275c-.6-.766-1.216-1.525-1.828-2.286a5.2,5.2,0,0,0,.262-1.134,6.167,6.167,0,0,0-2.879-5.277c-1.2-2.15-2.545-4.258-3.91-6.308q.917.079,1.841.142c3.016,5.522,5.915,12.077,10.172,16.716a.144.144,0,0,0,.239-.139c-1.948-5.8-6.1-11.344-9.431-16.521.922.051,1.847.083,2.772.1,3.246,5.433,6.438,11.016,10,16.245A47.066,47.066,0,0,1,648.665,704.915Zm6.449-.933a187.275,187.275,0,0,0-10.1-16.036c.712,0,1.422-.009,2.131-.03a.333.333,0,0,0,.019.375c3.331,4.994,6.289,10.174,9.27,15.377C656,703.771,655.557,703.889,655.113,703.982Zm2.427-.576a.578.578,0,0,0-.049-.173,118.061,118.061,0,0,0-9.616-15.339q1.34-.058,2.667-.186c1.505,2.563,3.279,4.988,4.863,7.5,1.505,2.389,2.764,5.041,4.549,7.227a.339.339,0,0,0,.562-.328c-1.061-2.791-2.98-5.351-4.61-7.844a72.315,72.315,0,0,0-4.68-6.632q1.257-.142,2.493-.362a.287.287,0,0,0,.043.154c2.965,4.758,5.575,10.052,9.047,14.465C661.063,702.448,659.309,702.961,657.54,703.406Zm6.172-1.816c-2.516-5.05-6.3-9.712-9.4-14.429.739-.143,1.466-.317,2.188-.506a140.62,140.62,0,0,0,8.889,14.356C664.832,701.2,664.273,701.4,663.712,701.59Zm4.105-1.414c-.36.13-.721.245-1.082.372-3.15-4.71-6.554-9.251-9.51-14.092.8-.23,1.586-.495,2.359-.789a40.13,40.13,0,0,0,3.878,6.595q.354.54.7,1.09a4.985,4.985,0,0,0,1.229,1.938,38.722,38.722,0,0,0,3.3,4.567C668.4,699.965,668.1,700.072,667.817,700.176Zm1.853-.69a26.667,26.667,0,0,0-1.7-2.9,4.83,4.83,0,0,0,.61.06.338.338,0,0,0,.127-.019,7.573,7.573,0,0,0,1.372.041,6.035,6.035,0,0,0,.684,1.238,4.748,4.748,0,0,0,.7.848C670.863,699.011,670.261,699.258,669.67,699.486Zm2.587-1.073a6.939,6.939,0,0,0-.837-.9,7.033,7.033,0,0,1-.657-.9,6.848,6.848,0,0,0,1.9-.577l.773,1.123c.125.182.244.369.373.545Q673.037,698.071,672.257,698.413Zm2.389-1.14c-.165-.222-.356-.424-.543-.635l-.831-.941a4.591,4.591,0,0,0,2.08-2.723,4.874,4.874,0,0,0,.15-.945c.863,1.091,1.75,2.154,2.678,3.159A30.67,30.67,0,0,1,674.646,697.274Zm4.52-2.81c-3.685-5.673-8.016-11.014-11.961-16.53.073-1.269.145-2.557.208-3.854A126.689,126.689,0,0,0,681.248,692.6,19.057,19.057,0,0,1,679.166,694.463ZM681.795,692c-2.941-4.1-6.055-8.1-9.16-12.1a5.556,5.556,0,0,0,.932.878,5.168,5.168,0,0,0,2.714,1.023c1.017,1.575,2.156,3.081,3.258,4.6a32.917,32.917,0,0,0,3.273,4.265A14.255,14.255,0,0,1,681.795,692Zm1.563-2.216a38.491,38.491,0,0,0-3.005-4.015c-1.04-1.335-2.065-2.694-3.16-3.986a5.412,5.412,0,0,0,1.834-.539c.774,1.127,1.579,2.235,2.381,3.341a21.1,21.1,0,0,0,2.719,3.533A12.36,12.36,0,0,1,683.357,689.781Zm-1.364-6.224c-.707-.945-1.42-1.887-2.15-2.815a5.58,5.58,0,0,0,1.431-1.544,26.564,26.564,0,0,0,3.611,5.456,12.162,12.162,0,0,1-.369,2.271A36.641,36.641,0,0,0,681.993,683.557Z" transform="translate(0 0)" fill="#020536"/>
    </g>
  </g>
</svg>
